<svg width="24" height="26" viewBox="0 0 24 26" fill="none" xmlns="http://www.w3.org/2000/svg">
<path d="M21.3333 12.05H21.6833V11.7V2.6V2.25H21.3333H2.66667H2.31667V2.6V11.7V12.05H2.66667H21.3333ZM21.6833 14.3V13.95H21.3333H2.66667H2.31667V14.3V23.4V23.75H2.66667H21.3333H21.6833V23.4V14.3ZM0.35 1.2896C0.35 0.779253 0.777762 0.35 1.324 0.35H22.6747C22.9353 0.352052 23.183 0.453903 23.3648 0.63099C23.5463 0.807735 23.6476 1.045 23.65 1.29117V24.71C23.6497 24.9565 23.5492 25.1947 23.3675 25.3716C23.1855 25.5489 22.937 25.65 22.676 25.65H1.32534C1.06469 25.648 0.816989 25.5461 0.635166 25.369C0.453713 25.1923 0.352367 24.955 0.35 24.7089V1.2896ZM8.35 5.55H15.65V7.45H8.35V5.55ZM8.35 17.25H15.65V19.15H8.35V17.25Z" fill="#9DB2CE" stroke="#224D60" stroke-width="0.7"/>
</svg>
