<svg width="54" height="54" viewBox="0 0 54 54" fill="none" xmlns="http://www.w3.org/2000/svg">
<rect width="54" height="54" rx="27" fill="#D3DEEC"/>
<path d="M16 28.2H38V37.8036C38 38.4636 37.4561 39 36.7863 39H17.2137C17.054 38.9997 16.8959 38.9685 16.7485 38.9082C16.601 38.8479 16.4672 38.7597 16.3545 38.6486C16.2418 38.5375 16.1525 38.4057 16.0916 38.2607C16.0308 38.1157 15.9997 37.9604 16 37.8036V28.2ZM16 16.1976C16 15.5364 16.5439 15 17.2137 15H36.7863C37.4561 15 38 15.5352 38 16.1976V25.8H16V16.1976ZM23.3333 18.6V21H30.6667V18.6H23.3333ZM23.3333 31.8V34.2H30.6667V31.8H23.3333Z" fill="#224D60"/>
</svg>
