<svg width="54" height="54" viewBox="0 0 54 54" fill="none" xmlns="http://www.w3.org/2000/svg">
<rect width="54" height="54" rx="27" fill="#D3DEEC"/>
<path d="M27 25.68C26.268 25.68 25.68 26.268 25.68 27C25.68 27.732 26.268 28.32 27 28.32C27.732 28.32 28.32 27.732 28.32 27C28.32 26.268 27.732 25.68 27 25.68ZM27 15C20.376 15 15 20.376 15 27C15 33.624 20.376 39 27 39C33.624 39 39 33.624 39 27C39 20.376 33.624 15 27 15ZM29.628 29.628L19.8 34.2L24.372 24.372L34.2 19.8L29.628 29.628Z" fill="#224D60"/>
</svg>
