<svg width="54" height="54" viewBox="0 0 54 54" fill="none" xmlns="http://www.w3.org/2000/svg">
<rect width="54" height="54" rx="27" fill="#D3DEEC"/>
<path d="M25.6753 15C27.6798 14.9999 29.6439 15.5641 31.3428 16.628C33.0417 17.692 34.4067 19.2127 35.2816 21.0162C36.1565 22.8197 36.506 24.8331 36.29 26.8259C36.074 28.8187 35.3014 30.7105 34.0604 32.2847L38.6474 36.8715C38.8762 37.1084 39.0028 37.4256 39 37.7549C38.9971 38.0843 38.865 38.3993 38.6321 38.6321C38.3992 38.865 38.0842 38.9971 37.7549 39C37.4256 39.0028 37.1083 38.8762 36.8714 38.6474L32.2844 34.0606C30.9473 35.1143 29.3776 35.833 27.7063 36.1567C26.0349 36.4804 24.3104 36.3998 22.6765 35.9215C21.0427 35.4432 19.5469 34.5811 18.314 33.4072C17.0811 32.2333 16.1469 30.7815 15.5891 29.1731C15.0314 27.5647 14.8665 25.8462 15.108 24.1611C15.3495 22.476 15.9906 20.873 16.9776 19.486C17.9647 18.099 19.2691 16.9681 20.7821 16.1878C22.2951 15.4074 23.9728 15.0001 25.6753 15ZM25.6753 17.5119C23.51 17.5119 21.4334 18.3721 19.9023 19.9031C18.3713 21.4341 17.5111 23.5106 17.5111 25.6758C17.5111 27.8409 18.3713 29.9174 19.9023 31.4484C21.4334 32.9795 23.51 33.8396 25.6753 33.8396C27.8405 33.8396 29.9171 32.9795 31.4482 31.4484C32.9792 29.9174 33.8394 27.8409 33.8394 25.6758C33.8394 23.5106 32.9792 21.4341 31.4482 19.9031C29.9171 18.3721 27.8405 17.5119 25.6753 17.5119ZM25.6753 18.7679C27.5074 18.7679 29.2645 19.4957 30.56 20.7912C31.8555 22.0866 32.5834 23.8437 32.5834 25.6758C32.5834 27.5078 31.8555 29.2649 30.56 30.5603C29.2645 31.8558 27.5074 32.5836 25.6753 32.5836C23.8431 32.5836 22.086 31.8558 20.7905 30.5603C19.495 29.2649 18.7671 27.5078 18.7671 25.6758C18.7671 23.8437 19.495 22.0866 20.7905 20.7912C22.086 19.4957 23.8431 18.7679 25.6753 18.7679Z" fill="#224D60"/>
</svg>
