<svg width="259" height="42" viewBox="0 0 259 42" fill="none" xmlns="http://www.w3.org/2000/svg">
<path d="M45.501 38.4756C45.5726 38.6546 45.5189 38.7441 45.3398 38.7441C45.1966 38.7441 45.0713 38.7441 44.9639 38.7441C45.0713 38.9232 45.0892 39.0664 45.0176 39.1738C44.9818 39.2812 44.9102 39.3887 44.8027 39.4961C44.7311 39.5677 44.6416 39.6572 44.5342 39.7646C44.4626 39.8721 44.4268 39.9974 44.4268 40.1406C43.8538 40.069 43.5137 40.0869 43.4062 40.1943C43.2988 40.266 43.1019 40.5166 42.8154 40.9463C42.4574 41.0179 42.153 41.1253 41.9023 41.2686C41.6159 41.2327 41.401 41.1432 41.2578 41C41.1504 40.8926 40.8997 40.8747 40.5059 40.9463C40.5775 40.5524 40.4163 40.3555 40.0225 40.3555C40.0583 40.1048 40.0583 39.8721 40.0225 39.6572C40.0225 39.4424 39.8792 39.2812 39.5928 39.1738C39.8076 38.959 39.8434 38.7262 39.7002 38.4756C39.557 38.1891 39.5033 37.9027 39.5391 37.6162C39.5391 37.5446 39.557 37.473 39.5928 37.4014C39.6286 37.2939 39.6465 37.1865 39.6465 37.0791C39.5033 36.7926 39.4674 36.6136 39.5391 36.542C39.6465 36.4704 39.7002 36.3809 39.7002 36.2734C39.8434 35.5573 39.915 34.9307 39.915 34.3936C39.915 33.8206 39.915 33.2835 39.915 32.7822C39.915 32.639 39.8792 32.5495 39.8076 32.5137C39.736 32.4779 39.6465 32.4242 39.5391 32.3525C39.5391 32.1735 39.5928 32.0661 39.7002 32.0303C39.8434 31.9945 39.9329 31.9049 39.9688 31.7617C40.0046 31.5111 39.9688 31.2783 39.8613 31.0635C39.7897 30.8486 39.7718 30.6159 39.8076 30.3652C39.915 29.8639 39.915 29.5238 39.8076 29.3447C39.736 29.1299 39.7181 28.9329 39.7539 28.7539C39.7539 28.6107 39.7718 28.4854 39.8076 28.3779C39.8792 28.2705 39.915 28.1631 39.915 28.0557C39.915 27.9124 39.8971 27.7871 39.8613 27.6797C39.8255 27.5723 39.8076 27.4648 39.8076 27.3574C39.8076 27.1784 39.8255 26.9993 39.8613 26.8203C39.8971 26.6413 39.915 26.4622 39.915 26.2832C39.915 26.1042 39.8971 25.943 39.8613 25.7998C39.8255 25.6208 39.7539 25.4775 39.6465 25.3701C39.8255 25.0479 39.8792 24.5824 39.8076 23.9736C39.736 23.3649 39.736 22.8636 39.8076 22.4697C39.915 22.04 39.915 21.7715 39.8076 21.6641C39.736 21.5566 39.7181 21.4313 39.7539 21.2881C39.7539 21.1449 39.7718 21.0195 39.8076 20.9121C39.8792 20.8047 39.915 20.6794 39.915 20.5361C39.915 20.3571 39.8613 20.196 39.7539 20.0527C39.6823 19.9095 39.6644 19.7484 39.7002 19.5693C39.8434 18.8174 39.8255 18.2445 39.6465 17.8506C39.5033 17.4567 39.5212 17.0449 39.7002 16.6152C39.7002 16.472 39.6644 16.3646 39.5928 16.293C39.5212 16.2214 39.4495 16.1318 39.3779 16.0244C39.4137 15.6663 39.3779 15.4515 39.2705 15.3799C39.1989 15.2725 39.1273 15.0755 39.0557 14.7891C38.9482 14.252 38.9303 13.7148 39.002 13.1777C39.1094 12.6406 39.0915 12.1214 38.9482 11.6201C38.8766 11.4411 38.7871 11.2979 38.6797 11.1904C38.5723 11.083 38.5544 10.9219 38.626 10.707C38.4469 10.7786 38.2858 10.8861 38.1426 11.0293C37.9993 11.1367 37.8382 11.2262 37.6592 11.2979C37.6592 11.5843 37.6055 11.8171 37.498 11.9961C37.4264 12.1393 37.4264 12.3721 37.498 12.6943C37.3906 12.9092 37.2116 13.0882 36.9609 13.2314L36.6387 14.3057C36.6029 14.3773 36.5312 14.431 36.4238 14.4668C36.3522 14.5026 36.2806 14.5563 36.209 14.6279L35.9404 15.3262C35.9046 15.4336 35.8867 15.541 35.8867 15.6484C35.9225 15.7201 35.9404 15.7917 35.9404 15.8633C35.9404 15.9707 35.8867 16.1139 35.7793 16.293C35.7077 16.472 35.6003 16.6689 35.457 16.8838C35.3138 17.0628 35.1706 17.2419 35.0273 17.4209C34.9199 17.5999 34.8483 17.7253 34.8125 17.7969C34.5977 18.1549 34.4365 18.3698 34.3291 18.4414C34.2217 18.4772 34.1501 18.5309 34.1143 18.6025C34.0426 18.6742 34.0068 18.7816 34.0068 18.9248C34.0068 19.0322 33.9889 19.1217 33.9531 19.1934C33.8815 19.3724 33.7383 19.623 33.5234 19.9453C33.3444 20.2318 33.1654 20.4108 32.9863 20.4824C32.9863 20.6257 32.9684 20.7868 32.9326 20.9658C32.8968 21.109 32.7715 21.1807 32.5566 21.1807C32.6283 21.5745 32.5566 21.8968 32.3418 22.1475C32.127 22.3981 32.0911 22.6488 32.2344 22.8994C32.0553 22.8994 31.9121 22.9531 31.8047 23.0605C31.7331 23.1322 31.6615 23.2217 31.5898 23.3291C31.5182 23.4365 31.4466 23.5439 31.375 23.6514C31.3034 23.7588 31.196 23.8304 31.0527 23.8662C31.1243 24.0811 31.1243 24.3317 31.0527 24.6182C31.0169 24.8688 30.8558 25.0299 30.5693 25.1016C30.5335 25.2806 30.4977 25.4238 30.4619 25.5312C30.4261 25.6387 30.444 25.7819 30.5156 25.9609C30.265 26.0326 30.1396 26.2116 30.1396 26.498C30.1396 26.7487 29.9964 26.9814 29.71 27.1963C29.7816 27.5544 29.7637 27.805 29.6562 27.9482C29.5846 28.0915 29.5309 28.3063 29.4951 28.5928C29.2803 28.6644 29.0117 28.9329 28.6895 29.3984C28.403 29.8281 28.224 30.1504 28.1523 30.3652C27.8301 30.5085 27.6689 30.6338 27.6689 30.7412C27.6689 30.8486 27.651 30.9561 27.6152 31.0635C27.5436 31.1351 27.472 31.2067 27.4004 31.2783C27.3288 31.3499 27.2572 31.4215 27.1855 31.4932C27.0781 31.7438 27.0065 32.0303 26.9707 32.3525C26.9707 32.639 26.9707 32.9076 26.9707 33.1582C26.8275 33.1582 26.7201 33.2119 26.6484 33.3193C26.6126 33.4268 26.541 33.5163 26.4336 33.5879C26.4336 33.7669 26.4157 33.9997 26.3799 34.2861C26.3799 34.5726 26.2904 34.7695 26.1113 34.877C26.2546 35.1634 26.2367 35.5036 26.0576 35.8975C25.8786 36.2555 25.8249 36.5778 25.8965 36.8643C25.61 37.0433 25.3236 37.276 25.0371 37.5625C24.7865 37.8132 24.5 38.028 24.1777 38.207C23.8913 38.3861 23.5869 38.4935 23.2646 38.5293C22.9424 38.5651 22.6022 38.4398 22.2441 38.1533C22.1367 38.1175 22.0472 38.1354 21.9756 38.207C21.904 38.2428 21.8145 38.2607 21.707 38.2607C21.528 38.2607 21.3311 38.2249 21.1162 38.1533C20.9372 38.0817 20.7581 38.0817 20.5791 38.1533C20.5433 37.7952 20.4359 37.473 20.2568 37.1865C20.0778 36.8643 20.0062 36.5062 20.042 36.1123C20.042 35.9691 20.0778 35.8438 20.1494 35.7363C20.2568 35.6289 20.3105 35.5036 20.3105 35.3604C20.3464 35.0739 20.3105 34.8053 20.2031 34.5547C20.1315 34.2682 19.9883 34.0355 19.7734 33.8564C19.7376 33.57 19.7018 33.2656 19.666 32.9434C19.6302 32.6211 19.487 32.3704 19.2363 32.1914C19.2721 31.7617 19.2005 31.3857 19.0215 31.0635C18.8424 30.7412 18.6097 30.4368 18.3232 30.1504C18.3232 30.0788 18.2695 29.9176 18.1621 29.667C18.0905 29.4163 17.9831 29.1657 17.8398 28.915C17.7324 28.6286 17.6071 28.3779 17.4639 28.1631C17.3564 27.9124 17.2848 27.7513 17.249 27.6797C17.1774 27.5365 17.1058 27.3753 17.0342 27.1963C16.9984 27.0173 16.873 26.9456 16.6582 26.9814C16.694 26.4801 16.5687 26.1937 16.2822 26.1221C15.9958 26.0146 15.763 25.8356 15.584 25.585C15.3691 25.2985 15.1901 24.9941 15.0469 24.6719C14.9036 24.3138 14.6888 23.9915 14.4023 23.7051C14.3665 23.3828 14.2412 23.1322 14.0264 22.9531C13.8473 22.7741 13.6146 22.613 13.3281 22.4697C13.3997 22.1833 13.3818 22.0042 13.2744 21.9326C13.167 21.8252 13.1133 21.682 13.1133 21.5029C13.0059 21.3239 12.8447 21.1807 12.6299 21.0732C12.4508 20.93 12.2718 20.8047 12.0928 20.6973C12.0212 20.2676 11.8242 19.9095 11.502 19.623C11.1797 19.3008 10.9469 18.9248 10.8037 18.4951C10.7679 18.4235 10.6068 18.2803 10.3203 18.0654C10.0697 17.8148 9.90853 17.6895 9.83691 17.6895C9.90853 17.3314 9.87272 17.0807 9.72949 16.9375C9.58626 16.7943 9.51465 16.5794 9.51465 16.293C9.37142 16.1855 9.264 16.0781 9.19238 15.9707C9.15658 15.8275 9.12077 15.7021 9.08496 15.5947C9.04915 15.4515 8.97754 15.3262 8.87012 15.2188C8.7985 15.1113 8.65527 15.0397 8.44043 15.0039C8.36882 14.7174 8.2972 14.4668 8.22559 14.252C8.18978 14.0371 7.97493 13.8939 7.58105 13.8223C7.58105 13.6074 7.52734 13.4463 7.41992 13.3389C7.34831 13.1956 7.24089 13.0703 7.09766 12.9629C6.99023 12.8555 6.88281 12.748 6.77539 12.6406C6.66797 12.4974 6.61426 12.3363 6.61426 12.1572C6.72168 12.6227 6.72168 12.9808 6.61426 13.2314C6.50684 13.4463 6.45312 13.6611 6.45312 13.876C6.45312 14.055 6.50684 14.1624 6.61426 14.1982C6.75749 14.1982 6.8291 14.2878 6.8291 14.4668C6.8291 14.6458 6.77539 14.8249 6.66797 15.0039C6.56055 15.1829 6.50684 15.362 6.50684 15.541C6.57845 16.0423 6.56055 16.5436 6.45312 17.0449C6.38151 17.5462 6.43522 17.8685 6.61426 18.0117C6.61426 18.1908 6.56055 18.3161 6.45312 18.3877C6.3457 18.4593 6.25618 18.5667 6.18457 18.71C6.25618 18.8532 6.27409 18.9964 6.23828 19.1396C6.23828 19.2471 6.25618 19.3724 6.29199 19.5156C6.3278 19.6589 6.36361 19.7842 6.39941 19.8916C6.47103 19.999 6.50684 20.1064 6.50684 20.2139C6.50684 20.6077 6.45312 21.0553 6.3457 21.5566C6.23828 22.0579 6.3278 22.4697 6.61426 22.792C6.47103 23.0068 6.45312 23.2217 6.56055 23.4365C6.66797 23.6514 6.72168 23.8662 6.72168 24.0811C6.68587 24.1885 6.65007 24.2959 6.61426 24.4033C6.57845 24.5107 6.56055 24.6361 6.56055 24.7793C6.52474 25.0658 6.50684 25.3701 6.50684 25.6924C6.54264 26.0146 6.54264 26.319 6.50684 26.6055C6.50684 26.7845 6.48893 26.9635 6.45312 27.1426C6.41732 27.2858 6.39941 27.4469 6.39941 27.626C6.39941 27.805 6.47103 27.9124 6.61426 27.9482C6.75749 27.984 6.79329 28.0915 6.72168 28.2705C6.25618 28.736 6.09505 29.1478 6.23828 29.5059C6.41732 29.8281 6.41732 30.1504 6.23828 30.4727L5.96973 31.0635C6.14876 31.4574 6.20247 31.8512 6.13086 32.2451C6.05924 32.6032 6.00553 32.9792 5.96973 33.373C5.96973 33.5879 5.98763 33.8027 6.02344 34.0176C6.09505 34.2324 6.11296 34.4473 6.07715 34.6621C6.00553 35.1276 6.00553 35.4499 6.07715 35.6289C6.18457 35.7721 6.23828 35.9333 6.23828 36.1123C6.20247 36.3271 6.13086 36.5778 6.02344 36.8643C5.91602 37.1507 5.95182 37.3835 6.13086 37.5625C5.95182 37.7773 5.8265 38.028 5.75488 38.3145C5.68327 38.5651 5.57585 38.8158 5.43262 39.0664C5.64746 39.3887 5.64746 39.693 5.43262 39.9795C5.25358 40.266 5.05664 40.5166 4.8418 40.7314C4.44792 40.7314 4.17936 40.7314 4.03613 40.7314C3.8929 40.6956 3.80339 40.9284 3.76758 41.4297C3.58854 41.4655 3.3916 41.5371 3.17676 41.6445C2.99772 41.7878 2.80078 41.8594 2.58594 41.8594C2.29948 41.8594 2.06673 41.734 1.8877 41.4834C1.74447 41.2327 1.47591 41.1253 1.08203 41.1611C1.11784 41.0537 1.11784 40.9821 1.08203 40.9463C1.08203 40.9105 1.04622 40.8926 0.974609 40.8926C0.902995 40.8568 0.83138 40.8031 0.759766 40.7314C0.688151 40.6598 0.652344 40.5166 0.652344 40.3018C0.294271 39.693 0.186849 39.2812 0.330078 39.0664C0.509115 38.8158 0.598633 38.5651 0.598633 38.3145C0.598633 38.1712 0.580729 38.0459 0.544922 37.9385C0.509115 37.7952 0.580729 37.6699 0.759766 37.5625C0.83138 37.3835 0.83138 37.2581 0.759766 37.1865C0.723958 37.0791 0.706055 36.9359 0.706055 36.7568C0.956706 36.3988 1.06413 36.1481 1.02832 36.0049C0.992513 35.8258 0.974609 35.6826 0.974609 35.5752C1.08203 35.2887 1.09993 35.1097 1.02832 35.0381C0.956706 34.9665 0.920898 34.877 0.920898 34.7695C0.920898 34.2682 1.02832 33.7669 1.24316 33.2656C1.45801 32.7643 1.56543 32.263 1.56543 31.7617C1.56543 31.5827 1.52962 31.4395 1.45801 31.332C1.4222 31.2246 1.38639 31.0993 1.35059 30.9561C1.27897 30.4906 1.26107 30.2041 1.29688 30.0967C1.36849 29.9535 1.4043 29.8102 1.4043 29.667C1.4401 29.3805 1.45801 29.112 1.45801 28.8613C1.45801 28.5749 1.45801 28.2884 1.45801 28.002C1.52962 27.071 1.58333 26.1937 1.61914 25.3701C1.69076 24.5107 1.56543 23.6156 1.24316 22.6846C1.4222 22.5055 1.52962 22.3981 1.56543 22.3623C1.63704 22.3265 1.69076 22.1833 1.72656 21.9326C1.72656 21.6462 1.69076 21.3418 1.61914 21.0195C1.54753 20.6973 1.60124 20.3929 1.78027 20.1064C1.78027 19.9274 1.72656 19.7842 1.61914 19.6768C1.54753 19.5693 1.49382 19.444 1.45801 19.3008C1.49382 18.8711 1.60124 18.4056 1.78027 17.9043C1.70866 17.7253 1.65495 17.5641 1.61914 17.4209C1.61914 17.2419 1.54753 17.0986 1.4043 16.9912C1.65495 15.7738 1.81608 14.5205 1.8877 13.2314C1.9235 12.6227 1.9235 12.014 1.8877 11.4053C1.85189 10.7607 1.86979 10.1341 1.94141 9.52539C1.94141 9.41797 1.97721 9.27474 2.04883 9.0957C2.15625 8.91667 2.26367 8.79134 2.37109 8.71973C2.15625 8.46908 2.06673 8.29004 2.10254 8.18262C2.17415 8.03939 2.19206 7.82454 2.15625 7.53809C2.19206 7.18001 2.17415 6.94727 2.10254 6.83984C2.06673 6.73242 2.03092 6.6071 1.99512 6.46387C1.95931 6.32064 1.94141 6.17741 1.94141 6.03418C1.97721 5.85514 2.04883 5.6582 2.15625 5.44336C2.04883 5.08529 1.97721 4.83464 1.94141 4.69141C1.94141 4.54818 1.95931 4.45866 1.99512 4.42285C2.06673 4.35124 2.13835 4.29753 2.20996 4.26172C2.28158 4.1901 2.33529 4.04688 2.37109 3.83203C2.69336 4.01107 2.99772 4.02897 3.28418 3.88574C3.60645 3.70671 3.94661 3.61719 4.30469 3.61719C4.62695 3.61719 4.93132 3.6709 5.21777 3.77832C5.50423 3.88574 5.8265 3.90365 6.18457 3.83203C6.22038 3.93945 6.39941 4.11849 6.72168 4.36914C7.07975 4.61979 7.3125 4.78092 7.41992 4.85254C7.49154 5.24642 7.67057 5.6224 7.95703 5.98047C8.2793 6.33854 8.52995 6.66081 8.70898 6.94727C8.7806 7.05469 8.85221 7.1263 8.92383 7.16211C9.03125 7.19792 9.12077 7.25163 9.19238 7.32324C9.19238 7.53809 9.19238 7.71712 9.19238 7.86035C9.22819 8.00358 9.2998 8.16471 9.40723 8.34375C9.62207 8.66602 9.7653 8.82715 9.83691 8.82715C9.90853 8.82715 9.98014 8.86296 10.0518 8.93457C10.1234 9.04199 10.1413 9.13151 10.1055 9.20312C10.1055 9.27474 10.195 9.38216 10.374 9.52539C10.5531 9.66862 10.7321 9.90137 10.9111 10.2236C11.126 10.5101 11.305 10.7428 11.4482 10.9219C11.5915 11.1009 11.681 11.2083 11.7168 11.2441C11.7884 11.2441 11.8242 11.3695 11.8242 11.6201C11.8242 11.7633 11.8779 11.8529 11.9854 11.8887C12.1286 11.9245 12.236 11.9961 12.3076 12.1035C12.3792 12.3542 12.4688 12.5153 12.5762 12.5869C12.7194 12.6585 12.8268 12.766 12.8984 12.9092C12.9701 12.9808 12.988 13.0882 12.9521 13.2314C12.9163 13.3389 12.9342 13.4284 13.0059 13.5C13.2565 13.7148 13.3639 13.8402 13.3281 13.876C13.2923 13.9118 13.2744 13.9655 13.2744 14.0371C13.2386 14.1445 13.3102 14.2878 13.4893 14.4668C13.7041 14.6458 13.8652 14.7533 13.9727 14.7891C14.0085 14.8965 14.0264 15.0218 14.0264 15.165C14.0622 15.2725 14.1159 15.3799 14.1875 15.4873C14.3307 15.6663 14.4202 15.7201 14.4561 15.6484C14.5277 15.541 14.5635 15.6842 14.5635 16.0781C14.5635 16.1139 14.6172 16.2035 14.7246 16.3467C14.8678 16.4899 15.0111 16.651 15.1543 16.8301C15.2975 17.0091 15.4408 17.1702 15.584 17.3135C15.7272 17.4567 15.8167 17.5462 15.8525 17.582C15.8167 17.9759 15.9421 18.2624 16.2285 18.4414C16.5508 18.6204 16.8372 18.8353 17.0879 19.0859C17.2311 19.2292 17.3206 19.3903 17.3564 19.5693C17.4281 19.7126 17.5713 19.82 17.7861 19.8916C18.0368 20.5719 18.2158 21.1986 18.3232 21.7715C18.6455 21.9863 18.8962 22.2728 19.0752 22.6309C19.2542 22.9531 19.5407 23.2038 19.9346 23.3828C19.8988 23.6335 19.9525 23.8841 20.0957 24.1348C20.2747 24.3496 20.2747 24.5645 20.0957 24.7793C20.1673 24.9583 20.2747 25.0658 20.418 25.1016C20.597 25.1016 20.7402 25.1553 20.8477 25.2627C20.9193 25.3343 20.9909 25.4596 21.0625 25.6387C21.1341 25.7819 21.2236 25.9251 21.3311 26.0684C21.4385 26.1758 21.5996 26.3727 21.8145 26.6592C21.9577 26.8382 22.0472 27.0531 22.083 27.3037C22.1546 27.5186 22.2979 27.7155 22.5127 27.8945C22.4053 28.1094 22.3874 28.3242 22.459 28.5391C22.5664 28.7181 22.6917 28.8971 22.835 29.0762C23.0856 29.1478 23.3542 29.0225 23.6406 28.7002C23.9271 28.3421 24.0703 28.0378 24.0703 27.7871C24.4642 27.7155 24.7327 27.5365 24.876 27.25C25.0192 26.9277 25.1087 26.5697 25.1445 26.1758C25.8607 25.6387 26.2367 25.012 26.2725 24.2959C26.7021 23.5439 27.0423 22.8815 27.293 22.3086C27.5436 21.7357 27.8659 21.1986 28.2598 20.6973C28.1882 20.4108 28.224 20.2139 28.3672 20.1064C28.5462 19.999 28.6178 19.8021 28.582 19.5156C28.9401 19.444 29.1729 19.265 29.2803 18.9785C29.3877 18.6921 29.5846 18.4951 29.8711 18.3877C29.7995 18.2087 29.7995 18.0475 29.8711 17.9043C29.9785 17.7253 30.0859 17.5641 30.1934 17.4209L30.2471 16.8838C30.1755 16.6689 30.2292 16.5794 30.4082 16.6152C30.5872 16.651 30.7126 16.6152 30.7842 16.5078C31.0348 16.1855 31.196 15.8275 31.2676 15.4336C31.375 15.0397 31.4466 14.6458 31.4824 14.252C31.5182 14.0729 31.5719 13.9834 31.6436 13.9834C31.751 13.9476 31.8405 13.8581 31.9121 13.7148C32.0553 13.321 32.1986 12.9629 32.3418 12.6406C32.5208 12.3184 32.7536 12.014 33.04 11.7275C33.1117 11.5485 33.1117 11.4232 33.04 11.3516C32.9684 11.2799 32.9326 11.1725 32.9326 11.0293C32.9684 10.8861 33.04 10.7786 33.1475 10.707C33.2549 10.6354 33.2549 10.4743 33.1475 10.2236C33.3265 9.97298 33.5055 9.75814 33.6846 9.5791C33.8994 9.40007 34.0426 9.14941 34.1143 8.82715C34.4007 8.75553 34.5618 8.5944 34.5977 8.34375C34.6693 8.0931 34.8125 7.91406 35.0273 7.80664C34.9915 7.5918 34.9736 7.43066 34.9736 7.32324C35.0094 7.18001 35.0452 7.01888 35.0811 6.83984C35.3675 6.55339 35.4928 6.35645 35.457 6.24902C35.4212 6.10579 35.4391 5.96257 35.5107 5.81934C35.6898 5.71191 35.833 5.60449 35.9404 5.49707C36.0479 5.35384 36.209 5.26432 36.4238 5.22852C36.4596 5.04948 36.4596 4.94206 36.4238 4.90625C36.388 4.83464 36.4059 4.70931 36.4775 4.53027C36.764 4.45866 36.9609 4.33333 37.0684 4.1543C37.2116 3.93945 37.4622 3.83203 37.8203 3.83203C37.8919 3.76042 37.9277 3.65299 37.9277 3.50977C37.9635 3.36654 37.9814 3.24121 37.9814 3.13379C38.1605 3.06217 38.3216 3.02637 38.4648 3.02637C38.6439 3.02637 38.8229 3.02637 39.002 3.02637C39.4316 2.95475 39.8255 3.00846 40.1836 3.1875C40.5775 3.36654 41.0251 3.45605 41.5264 3.45605C41.5622 3.74251 41.6159 3.99316 41.6875 4.20801C41.7949 4.42285 41.8844 4.6377 41.9561 4.85254C42.0993 5.38965 42.1888 5.81934 42.2246 6.1416C42.2604 6.46387 42.4753 6.85775 42.8691 7.32324L42.8154 7.91406C42.9229 8.02148 42.9766 8.14681 42.9766 8.29004C43.0124 8.43327 43.1198 8.54069 43.2988 8.6123C43.1198 8.89876 43.084 9.16732 43.1914 9.41797C43.3346 9.66862 43.4421 9.93717 43.5137 10.2236L43.1914 10.707C43.263 10.8861 43.2988 11.1009 43.2988 11.3516C43.3346 11.6022 43.46 11.7633 43.6748 11.835C43.4242 12.1214 43.3704 12.39 43.5137 12.6406C43.6569 12.8555 43.7285 13.1061 43.7285 13.3926C43.6927 13.4642 43.6569 13.5537 43.6211 13.6611C43.5853 13.7327 43.5674 13.8223 43.5674 13.9297C43.5674 14.0013 43.6032 14.1266 43.6748 14.3057C43.7464 14.4847 43.7822 14.6637 43.7822 14.8428C43.8896 15.5231 43.9434 16.0781 43.9434 16.5078C43.9792 16.9375 43.9971 17.3672 43.9971 17.7969C43.9971 17.9759 44.0508 18.1012 44.1582 18.1729C44.2656 18.2445 44.373 18.3161 44.4805 18.3877C44.5163 18.4951 44.4805 18.5846 44.373 18.6562C44.3014 18.6921 44.2835 18.7995 44.3193 18.9785C44.391 19.0501 44.4268 19.1396 44.4268 19.2471C44.4626 19.3545 44.5521 19.4082 44.6953 19.4082C44.5163 20.0169 44.4984 20.5898 44.6416 21.127C44.7848 21.6283 44.8385 22.1475 44.8027 22.6846C44.7669 22.792 44.7132 22.8815 44.6416 22.9531C44.57 22.9889 44.5163 23.0605 44.4805 23.168C44.4805 23.2754 44.4984 23.3828 44.5342 23.4902C44.57 23.5618 44.5879 23.6335 44.5879 23.7051C44.5879 23.8125 44.5521 23.9199 44.4805 24.0273C44.4447 24.099 44.4268 24.1706 44.4268 24.2422C44.4268 24.4212 44.5163 24.5465 44.6953 24.6182C44.8743 24.6898 44.946 24.7793 44.9102 24.8867C44.9102 24.9583 44.8385 25.0837 44.6953 25.2627C44.5521 25.4417 44.6237 25.5492 44.9102 25.585C44.7311 25.6924 44.6595 25.8535 44.6953 26.0684C44.7669 26.2832 44.7311 26.4264 44.5879 26.498C44.8385 27.2858 44.8027 27.984 44.4805 28.5928C44.5521 28.7718 44.6058 28.9508 44.6416 29.1299C44.7132 29.3089 44.8564 29.3984 45.0713 29.3984C44.9639 29.5417 44.8564 29.667 44.749 29.7744C44.6416 29.8818 44.5342 30.0072 44.4268 30.1504C44.3551 30.3294 44.391 30.4368 44.5342 30.4727C44.6774 30.4727 44.749 30.5443 44.749 30.6875C44.749 31.0814 44.7132 31.3141 44.6416 31.3857C44.6058 31.4215 44.5879 31.4753 44.5879 31.5469C44.5879 31.6901 44.6058 31.8333 44.6416 31.9766C44.7132 32.1198 44.7669 32.263 44.8027 32.4062C44.8385 32.5137 44.8385 32.639 44.8027 32.7822C44.7669 32.9255 44.6595 33.0508 44.4805 33.1582C44.4447 33.373 44.4805 33.5879 44.5879 33.8027C44.6953 33.9818 44.7311 34.1966 44.6953 34.4473C44.6953 34.5547 44.6774 34.68 44.6416 34.8232C44.6416 34.9307 44.6416 35.0381 44.6416 35.1455C44.6416 35.2171 44.6237 35.3604 44.5879 35.5752C44.5879 35.79 44.5879 36.0228 44.5879 36.2734C44.5879 36.4883 44.5879 36.7031 44.5879 36.918C44.6237 37.097 44.6595 37.2044 44.6953 37.2402C44.7669 37.4193 44.9281 37.6341 45.1787 37.8848C45.4652 38.0996 45.5726 38.2965 45.501 38.4756ZM66.5908 33.8027C66.8057 34.0892 66.7699 34.304 66.4834 34.4473C66.4834 34.9128 66.5192 35.4857 66.5908 36.166C66.6982 36.8105 66.6266 37.3298 66.376 37.7236C66.4118 37.7952 66.4476 37.8848 66.4834 37.9922C66.5192 38.0996 66.5371 38.1891 66.5371 38.2607C66.5371 38.583 66.4834 38.8158 66.376 38.959C66.2686 39.1022 66.1432 39.2275 66 39.335C65.8926 39.4424 65.7673 39.5498 65.624 39.6572C65.5166 39.7288 65.4629 39.8542 65.4629 40.0332C64.9974 39.9974 64.693 40.0332 64.5498 40.1406C64.4066 40.2122 64.1917 40.4092 63.9053 40.7314C63.5114 40.7314 63.2428 40.6598 63.0996 40.5166C62.9564 40.3734 62.7415 40.2839 62.4551 40.248C62.276 39.7467 62.0433 39.335 61.7568 39.0127C61.5062 38.6546 61.3809 38.2249 61.3809 37.7236C61.3809 37.5088 61.4167 37.3118 61.4883 37.1328C61.5599 36.918 61.6315 36.7031 61.7031 36.4883C61.7747 36.1302 61.7568 35.8975 61.6494 35.79C61.542 35.6826 61.4883 35.5036 61.4883 35.2529C61.4883 35.1455 61.5062 35.0381 61.542 34.9307C61.6136 34.8232 61.6315 34.7158 61.5957 34.6084C61.6673 34.2503 61.7568 33.9818 61.8643 33.8027C62.0075 33.5879 62.0791 33.3372 62.0791 33.0508C62.0791 32.9434 62.0612 32.8359 62.0254 32.7285C61.9896 32.6211 61.9717 32.4958 61.9717 32.3525C61.9717 32.2093 62.0075 32.0661 62.0791 31.9229C62.1865 31.7438 62.2402 31.5648 62.2402 31.3857C62.2402 31.1709 62.1865 30.974 62.0791 30.7949C62.0075 30.6159 61.9717 30.4189 61.9717 30.2041C61.9717 30.0609 61.9896 29.9355 62.0254 29.8281C62.0612 29.6849 62.0791 29.5238 62.0791 29.3447C62.0791 28.9867 62.0075 28.6644 61.8643 28.3779C61.7568 28.0915 61.6852 27.7692 61.6494 27.4111C61.6494 27.3037 61.6494 27.1963 61.6494 27.0889C61.6852 26.9814 61.6673 26.874 61.5957 26.7666C61.4525 26.4443 61.4167 26.2116 61.4883 26.0684C61.4883 25.8893 61.3809 25.6924 61.166 25.4775C60.9512 25.2269 60.9333 25.012 61.1123 24.833C61.0049 24.5107 60.9512 24.2959 60.9512 24.1885C60.9512 24.0452 60.9512 23.9378 60.9512 23.8662C60.987 23.7588 61.0228 23.6693 61.0586 23.5977C61.1302 23.526 61.166 23.4007 61.166 23.2217C61.166 22.8278 61.0944 22.4518 60.9512 22.0938C60.8079 21.6999 60.7542 21.306 60.79 20.9121C61.1839 20.196 61.2376 19.641 60.9512 19.2471C60.6647 18.8532 60.1813 18.513 59.501 18.2266C59.5726 18.0475 59.5726 17.958 59.501 17.958C59.4652 17.9222 59.4294 17.8327 59.3936 17.6895C59.2145 17.582 59.1071 17.5104 59.0713 17.4746C59.0355 17.403 58.9102 17.3672 58.6953 17.3672C58.7311 17.1165 58.6774 16.9196 58.5342 16.7764C58.391 16.6331 58.2298 16.4899 58.0508 16.3467C57.8717 16.2035 57.6927 16.0781 57.5137 15.9707C57.3346 15.8275 57.2093 15.738 57.1377 15.7021C57.0661 15.5589 56.9766 15.4336 56.8691 15.3262C56.7975 15.2188 56.7259 15.0755 56.6543 14.8965C56.2962 14.7891 56.0098 14.5921 55.7949 14.3057C55.5801 14.0192 55.3115 13.8044 54.9893 13.6611C54.8818 13.5537 54.8102 13.4463 54.7744 13.3389C54.7386 13.2314 54.6849 13.1061 54.6133 12.9629C54.3268 12.8913 54.1299 12.8018 54.0225 12.6943C53.915 12.5869 53.7002 12.5332 53.3779 12.5332C53.4137 12.2826 53.3958 12.0677 53.3242 11.8887C53.1094 11.5306 52.7871 11.2799 52.3574 11.1367C51.9635 10.9577 51.6234 10.6891 51.3369 10.3311C51.1579 10.1162 51.0146 9.93717 50.9072 9.79395C50.8356 9.65072 50.6745 9.54329 50.4238 9.47168C50.4238 9.14941 50.3522 8.98828 50.209 8.98828C50.1016 8.95247 50.012 8.80924 49.9404 8.55859C49.7256 8.45117 49.5107 8.32585 49.2959 8.18262C49.1169 8.03939 48.9915 7.86035 48.9199 7.64551C48.347 7.39486 47.8994 7.01888 47.5771 6.51758C47.2191 6.01628 46.7536 5.6582 46.1807 5.44336C46.0016 5.04948 45.7689 4.70931 45.4824 4.42285C45.1602 4.10059 44.9095 3.74251 44.7305 3.34863C44.9453 2.95475 45.0169 2.48926 44.9453 1.95215C45.1243 1.95215 45.2676 1.91634 45.375 1.84473C45.4466 1.7373 45.5361 1.64779 45.6436 1.57617C45.7152 1.46875 45.8405 1.37923 46.0195 1.30762C46.1628 1.236 46.4134 1.2002 46.7715 1.2002C47.0579 1.2002 47.2728 1.12858 47.416 0.985352C47.7025 1.2002 48.0426 1.32552 48.4365 1.36133C48.7946 1.36133 49.1169 1.50456 49.4033 1.79102C49.4391 1.97005 49.4749 2.13118 49.5107 2.27441C49.5465 2.38184 49.5824 2.52507 49.6182 2.7041C49.9046 2.81152 50.1374 2.95475 50.3164 3.13379C50.4954 3.31283 50.6745 3.50977 50.8535 3.72461C51.0326 3.90365 51.2116 4.08268 51.3906 4.26172C51.6055 4.44076 51.8561 4.56608 52.1426 4.6377C52.3932 5.03158 52.6976 5.35384 53.0557 5.60449C53.4495 5.81934 53.8792 5.99837 54.3447 6.1416C54.4521 6.39225 54.5954 6.6071 54.7744 6.78613C54.9535 6.92936 55.0788 7.14421 55.1504 7.43066C55.3294 7.50228 55.598 7.57389 55.9561 7.64551C56.0277 7.78874 56.0814 7.93197 56.1172 8.0752C56.153 8.18262 56.2067 8.30794 56.2783 8.45117C56.4215 8.48698 56.529 8.54069 56.6006 8.6123C56.6722 8.68392 56.7438 8.75553 56.8154 8.82715C56.887 8.89876 56.9587 8.95247 57.0303 8.98828C57.1377 9.02409 57.2809 9.02409 57.46 8.98828C57.4958 9.13151 57.5495 9.23893 57.6211 9.31055C57.7285 9.38216 57.7643 9.48958 57.7285 9.63281C57.9076 9.66862 58.0508 9.70443 58.1582 9.74023C58.3014 9.77604 58.4626 9.81185 58.6416 9.84766C58.7132 10.1699 58.8743 10.4564 59.125 10.707C59.4115 10.9577 59.5905 11.2441 59.6621 11.5664C59.8411 11.638 59.9665 11.7096 60.0381 11.7812C60.1455 11.8529 60.2887 11.8887 60.4678 11.8887C60.5036 12.0677 60.5573 12.193 60.6289 12.2646C60.7363 12.3363 60.8079 12.4437 60.8438 12.5869C61.2018 12.6585 61.4525 12.8555 61.5957 13.1777C61.7747 13.4642 62.0612 13.6253 62.4551 13.6611C62.4193 14.055 62.473 14.2878 62.6162 14.3594C62.7594 14.3952 62.9027 14.5384 63.0459 14.7891C63.1533 14.7174 63.2428 14.6637 63.3145 14.6279C63.4219 14.5921 63.5293 14.5384 63.6367 14.4668C63.8516 14.3594 64.0306 14.2161 64.1738 14.0371C64.3529 13.8223 64.5677 13.6969 64.8184 13.6611C64.8184 13.5179 64.8363 13.4284 64.8721 13.3926C64.9437 13.3568 64.9616 13.2493 64.9258 13.0703C65.3197 13.0703 65.5345 13.0166 65.5703 12.9092C65.6061 12.8018 65.7673 12.6943 66.0537 12.5869C66.1969 12.4079 66.3223 12.2646 66.4297 12.1572C66.5729 12.0498 66.6803 11.8708 66.752 11.6201C66.9668 11.5485 67.0921 11.4769 67.1279 11.4053C67.1637 11.2979 67.2712 11.262 67.4502 11.2979L67.7725 10.8145C67.8441 10.7428 67.9336 10.707 68.041 10.707C68.1484 10.707 68.238 10.6712 68.3096 10.5996C68.6676 10.2415 68.972 9.93717 69.2227 9.68652C69.5091 9.43587 69.6882 9.22103 69.7598 9.04199C69.7598 8.93457 69.7956 8.86296 69.8672 8.82715C69.9388 8.79134 70.0283 8.73763 70.1357 8.66602C70.2432 8.5944 70.3506 8.50488 70.458 8.39746C70.5654 8.25423 70.6729 8.03939 70.7803 7.75293C70.9593 7.68132 71.1383 7.6276 71.3174 7.5918C71.5322 7.52018 71.7292 7.39486 71.9082 7.21582C72.2663 6.82194 72.5348 6.46387 72.7139 6.1416C72.8929 5.81934 73.1077 5.60449 73.3584 5.49707C73.609 5.38965 73.7523 5.30013 73.7881 5.22852C73.8239 5.12109 73.9134 4.95996 74.0566 4.74512C74.2357 4.53027 74.3968 4.38704 74.54 4.31543C74.7191 4.24382 74.8981 4.06478 75.0771 3.77832C75.1846 3.63509 75.3278 3.52767 75.5068 3.45605C75.5785 3.38444 75.5964 3.29492 75.5605 3.1875C75.5605 3.04427 75.6322 2.90104 75.7754 2.75781C76.3841 2.72201 76.7959 2.38184 77.0107 1.7373C77.2972 1.7015 77.4404 1.7373 77.4404 1.84473C77.4762 1.91634 77.5837 2.02376 77.7627 2.16699C78.0492 1.95215 78.4251 1.84473 78.8906 1.84473C79.3561 1.84473 79.7679 1.89844 80.126 2.00586C80.126 2.2207 80.1797 2.38184 80.2871 2.48926C80.3945 2.59668 80.502 2.7041 80.6094 2.81152C80.7168 2.91895 80.8063 3.04427 80.8779 3.1875C80.9495 3.33073 80.9674 3.52767 80.9316 3.77832C81.0749 3.92155 81.2002 4.04688 81.3076 4.1543C81.4508 4.22591 81.5583 4.35124 81.6299 4.53027C81.5583 4.78092 81.5046 4.95996 81.4688 5.06738C81.4329 5.139 81.4508 5.31803 81.5225 5.60449C81.415 5.78353 81.2897 5.89095 81.1465 5.92676C81.0033 5.92676 80.8421 5.96257 80.6631 6.03418C80.5915 6.28483 80.4482 6.42806 80.2334 6.46387C80.0544 6.49967 79.929 6.66081 79.8574 6.94727C79.75 6.98307 79.6605 7.00098 79.5889 7.00098C79.5173 6.96517 79.4277 6.94727 79.3203 6.94727C79.1055 7.16211 78.9085 7.28743 78.7295 7.32324C78.5863 7.35905 78.4072 7.43066 78.1924 7.53809C78.0133 7.6097 77.8522 7.73503 77.709 7.91406C77.6016 8.0931 77.5658 8.37956 77.6016 8.77344C77.4583 8.84505 77.333 8.91667 77.2256 8.98828C77.154 9.0599 77.0645 9.0957 76.957 9.0957C76.778 9.16732 76.6348 9.27474 76.5273 9.41797C76.4557 9.52539 76.2946 9.59701 76.0439 9.63281C75.9365 9.81185 75.8291 9.97298 75.7217 10.1162C75.6143 10.2236 75.5247 10.3669 75.4531 10.5459C74.9518 10.6175 74.5579 10.7607 74.2715 10.9756C73.985 11.1904 73.8239 11.5485 73.7881 12.0498C73.3942 12.0856 73.1257 12.2109 72.9824 12.4258C72.8392 12.6406 72.5885 12.7839 72.2305 12.8555C72.1589 12.9629 72.1051 13.0703 72.0693 13.1777C72.0693 13.2852 72.0156 13.3926 71.9082 13.5C71.8724 13.6432 71.8008 13.7148 71.6934 13.7148C71.6217 13.679 71.5322 13.6969 71.4248 13.7686C71.1742 14.0192 70.9056 14.1445 70.6191 14.1445C70.5475 14.5384 70.3685 14.8428 70.082 15.0576C69.8314 15.2725 69.6165 15.541 69.4375 15.8633C69.0794 16.1139 68.8467 16.3109 68.7393 16.4541C68.6676 16.5615 68.6139 16.7048 68.5781 16.8838C68.2201 16.9912 67.9515 17.1882 67.7725 17.4746C67.6292 17.7611 67.3786 17.958 67.0205 18.0654C66.9489 18.3161 66.7878 18.4951 66.5371 18.6025C66.3223 18.6742 66.1253 18.7995 65.9463 18.9785C66.0179 19.1934 66.0179 19.3724 65.9463 19.5156C65.8747 19.6589 65.8031 19.82 65.7314 19.999C65.9105 20.2855 65.9463 20.5719 65.8389 20.8584C65.7314 21.1449 65.6777 21.4313 65.6777 21.7178C65.6777 21.8968 65.6419 22.0221 65.5703 22.0938C65.4987 22.1296 65.3913 22.1833 65.248 22.2549C65.4629 22.5413 65.5882 22.8815 65.624 23.2754C65.6956 23.6335 65.8389 23.9557 66.0537 24.2422C66.0179 24.4212 65.9821 24.7435 65.9463 25.209C65.9463 25.6745 65.9821 25.9609 66.0537 26.0684L66.2148 26.6055C66.179 26.7487 66.179 26.8919 66.2148 27.0352C66.2865 27.1426 66.3402 27.25 66.376 27.3574C66.4476 27.6439 66.4655 27.9303 66.4297 28.2168C66.3939 28.4674 66.376 28.736 66.376 29.0225C66.376 29.1657 66.4297 29.2552 66.5371 29.291C66.6445 29.3268 66.752 29.3447 66.8594 29.3447C66.8236 29.5238 66.7878 29.6312 66.752 29.667C66.7161 29.7028 66.6445 29.7923 66.5371 29.9355C66.6087 30.0072 66.6624 30.1146 66.6982 30.2578C66.734 30.3652 66.7878 30.4906 66.8594 30.6338C66.8236 30.8844 66.8057 31.1709 66.8057 31.4932C66.8057 31.7796 66.752 32.0303 66.6445 32.2451C66.7161 32.3525 66.734 32.4958 66.6982 32.6748C66.6982 32.8538 66.7878 32.9434 66.9668 32.9434C67.0026 33.3014 66.9489 33.4805 66.8057 33.4805C66.6982 33.4447 66.6266 33.5521 66.5908 33.8027Z" fill="#224D60"/>
<path d="M106.729 12.4795C107.052 12.5153 107.356 12.4974 107.643 12.4258C107.965 12.3184 108.287 12.2288 108.609 12.1572C109.111 12.0498 109.648 11.9961 110.221 11.9961C110.829 11.9603 111.384 11.9424 111.886 11.9424C112.459 11.9424 113.014 11.9961 113.551 12.1035C114.088 12.2109 114.625 12.3005 115.162 12.3721C115.735 12.4079 116.29 12.4974 116.827 12.6406C117.364 12.7839 117.901 12.9271 118.438 13.0703C118.761 13.1777 119.065 13.321 119.352 13.5C119.638 13.6432 119.924 13.8044 120.211 13.9834C120.354 14.4131 120.372 14.9144 120.265 15.4873C120.193 16.0602 119.978 16.5078 119.62 16.8301C119.405 16.7943 119.208 16.7943 119.029 16.8301C118.85 16.8301 118.671 16.9375 118.492 17.1523C118.385 17.1165 118.313 17.0449 118.277 16.9375C118.242 16.7943 118.134 16.7048 117.955 16.6689C117.776 16.5973 117.597 16.5794 117.418 16.6152C117.275 16.651 117.114 16.651 116.935 16.6152C116.684 16.5794 116.433 16.5436 116.183 16.5078C115.968 16.4362 115.735 16.3646 115.484 16.293C115.413 16.3288 115.27 16.3288 115.055 16.293C114.876 16.2572 114.679 16.2214 114.464 16.1855C114.249 16.1497 114.052 16.1318 113.873 16.1318C113.694 16.096 113.587 16.1139 113.551 16.1855C113.443 16.1855 113.354 16.1139 113.282 15.9707C113.246 15.8275 113.139 15.7559 112.96 15.7559C112.566 15.7559 112.208 15.7738 111.886 15.8096C111.563 15.8454 111.205 15.8275 110.812 15.7559C110.489 15.8275 110.239 15.9528 110.06 16.1318C109.881 16.3109 109.594 16.3646 109.2 16.293C109.021 16.3646 108.878 16.4541 108.771 16.5615C108.663 16.6689 108.574 16.7943 108.502 16.9375C108.108 16.9017 107.786 16.9554 107.535 17.0986C107.285 17.2419 107.052 17.403 106.837 17.582C106.658 17.7611 106.479 17.9401 106.3 18.1191C106.157 18.2982 105.978 18.4056 105.763 18.4414C105.584 19.1217 105.226 19.623 104.688 19.9453C104.617 20.2318 104.599 20.4466 104.635 20.5898C104.456 20.6257 104.33 20.6615 104.259 20.6973C104.223 20.7331 104.116 20.7331 103.937 20.6973C103.722 21.4492 103.346 22.0579 102.809 22.5234V23.1143C102.63 23.1859 102.558 23.2933 102.594 23.4365C102.63 23.5798 102.504 23.6514 102.218 23.6514C102.361 23.9378 102.325 24.2601 102.11 24.6182C101.931 24.9762 101.806 25.3164 101.734 25.6387C101.555 25.8177 101.466 26.0505 101.466 26.3369C101.502 26.5876 101.412 26.8382 101.197 27.0889C101.412 27.5186 101.502 27.984 101.466 28.4854C101.466 28.9867 101.466 29.488 101.466 29.9893C101.466 30.1683 101.52 30.2757 101.627 30.3115C101.734 30.3473 101.86 30.401 102.003 30.4727C101.931 30.7591 101.931 31.0277 102.003 31.2783C102.075 31.4932 102.164 31.708 102.271 31.9229C102.379 32.1377 102.486 32.3525 102.594 32.5674C102.737 32.7822 102.809 33.015 102.809 33.2656C103.095 33.6237 103.435 33.8923 103.829 34.0713C104.223 34.2145 104.617 34.3398 105.011 34.4473C105.118 34.5189 105.19 34.5905 105.226 34.6621C105.297 34.6979 105.351 34.8053 105.387 34.9844C105.709 34.9844 106.013 35.0381 106.3 35.1455C106.622 35.2529 106.962 35.3066 107.32 35.3066C107.75 35.2708 108.019 35.3066 108.126 35.4141C108.269 35.4857 108.466 35.5215 108.717 35.5215C108.896 35.5215 109.003 35.4678 109.039 35.3604C109.111 35.2529 109.218 35.1634 109.361 35.0918C109.863 35.3424 110.471 35.5215 111.188 35.6289C111.904 35.7363 112.512 35.611 113.014 35.2529C113.157 35.2529 113.282 35.2708 113.39 35.3066C113.497 35.3424 113.604 35.3604 113.712 35.3604C113.855 35.3604 113.963 35.3424 114.034 35.3066C114.106 35.235 114.195 35.1634 114.303 35.0918C114.41 35.056 114.607 35.0202 114.894 34.9844C115.216 34.9486 115.538 34.9128 115.86 34.877C116.218 34.8411 116.541 34.8232 116.827 34.8232C117.149 34.8232 117.382 34.8232 117.525 34.8232C117.776 34.7158 117.973 34.5726 118.116 34.3936C118.259 34.1787 118.403 33.9639 118.546 33.749C118.94 33.6416 119.19 33.6774 119.298 33.8564C119.441 33.9997 119.674 34.0713 119.996 34.0713C120.175 34.0713 120.283 34.0355 120.318 33.9639C120.39 33.8564 120.497 33.7848 120.641 33.749C120.748 33.9281 120.855 34.0892 120.963 34.2324C121.106 34.3757 121.285 34.4831 121.5 34.5547C121.5 34.8053 121.518 35.056 121.554 35.3066C121.625 35.5573 121.769 35.7721 121.983 35.9512C121.876 36.0944 121.697 36.2555 121.446 36.4346C121.196 36.5778 120.945 36.7389 120.694 36.918C120.479 37.097 120.265 37.276 120.05 37.4551C119.871 37.6341 119.781 37.8132 119.781 37.9922C119.781 38.1354 119.799 38.2428 119.835 38.3145C119.871 38.3503 119.853 38.4398 119.781 38.583C119.674 38.6546 119.549 38.7083 119.405 38.7441C119.298 38.7799 119.244 38.8874 119.244 39.0664C118.814 39.0306 118.421 39.0485 118.062 39.1201C117.704 39.1559 117.346 39.2275 116.988 39.335C116.63 39.4424 116.272 39.5498 115.914 39.6572C115.592 39.7288 115.234 39.7646 114.84 39.7646C114.768 39.6572 114.643 39.6214 114.464 39.6572C114.285 39.6572 114.088 39.693 113.873 39.7646C113.694 39.8005 113.497 39.8542 113.282 39.9258C113.103 39.9974 112.96 40.0332 112.853 40.0332C112.674 40.0332 112.494 40.0153 112.315 39.9795C112.136 39.9079 111.957 39.8721 111.778 39.8721C111.492 39.8721 111.223 39.89 110.973 39.9258C110.758 39.9616 110.507 39.9795 110.221 39.9795C109.576 39.9795 109.2 39.8721 109.093 39.6572C108.985 39.4424 108.824 39.335 108.609 39.335C108.395 39.335 108.269 39.4066 108.233 39.5498C108.233 39.6572 108.162 39.7646 108.019 39.8721C107.625 39.7288 107.195 39.5677 106.729 39.3887C106.3 39.2096 105.87 39.2275 105.44 39.4424C105.261 39.1917 105.029 39.0664 104.742 39.0664C104.456 39.0664 104.241 38.9411 104.098 38.6904C103.847 38.6904 103.614 38.6725 103.399 38.6367C103.185 38.5651 102.952 38.5293 102.701 38.5293C102.701 38.4219 102.665 38.3503 102.594 38.3145C102.558 38.2786 102.504 38.2607 102.433 38.2607C102.397 38.2249 102.361 38.1891 102.325 38.1533C102.289 38.1175 102.289 38.028 102.325 37.8848C102.075 37.9206 101.878 37.9206 101.734 37.8848C101.627 37.8132 101.52 37.7415 101.412 37.6699C101.305 37.5983 101.179 37.5446 101.036 37.5088C100.893 37.4372 100.714 37.4193 100.499 37.4551C100.392 37.0612 100.087 36.7747 99.5859 36.5957C99.4785 36.3451 99.3532 36.1123 99.21 35.8975C99.0667 35.6468 98.8519 35.4857 98.5654 35.4141C98.4938 34.9844 98.3685 34.5726 98.1895 34.1787C98.0104 33.7848 97.8672 33.373 97.7598 32.9434C97.6882 32.7643 97.6165 32.6569 97.5449 32.6211C97.4733 32.5853 97.3659 32.5137 97.2227 32.4062C97.3301 31.9408 97.3301 31.5111 97.2227 31.1172C97.1152 30.6875 96.9899 30.2578 96.8467 29.8281C96.7035 29.4701 96.6497 29.1299 96.6855 28.8076C96.7572 28.4495 96.6676 28.0915 96.417 27.7334C96.596 27.1247 96.7393 26.4264 96.8467 25.6387C96.9899 24.8509 97.2943 24.2064 97.7598 23.7051C97.8314 23.3828 97.7777 23.2038 97.5986 23.168C97.4196 23.1322 97.348 23.0426 97.3838 22.8994C97.6344 22.613 97.8672 22.3981 98.082 22.2549C98.2969 22.0758 98.4222 21.7536 98.458 21.2881C98.7445 21.0374 98.9235 20.7331 98.9951 20.375C99.1025 19.9811 99.2637 19.641 99.4785 19.3545C99.6576 19.2471 99.8187 19.1396 99.9619 19.0322C100.141 18.889 100.32 18.7637 100.499 18.6562C101.144 17.8685 101.788 17.1882 102.433 16.6152C102.397 16.4362 102.415 16.3288 102.486 16.293C102.558 16.2214 102.594 16.096 102.594 15.917C102.809 15.8454 102.916 15.7559 102.916 15.6484C102.952 15.5052 103.131 15.4694 103.453 15.541C103.525 15.2904 103.668 15.0576 103.883 14.8428C104.133 14.5921 104.384 14.3773 104.635 14.1982C104.921 13.9834 105.172 13.8044 105.387 13.6611C105.602 13.4821 105.727 13.3031 105.763 13.124C106.049 13.1598 106.228 13.1061 106.3 12.9629C106.407 12.8197 106.55 12.6585 106.729 12.4795ZM147.531 36.6494C147.424 36.8285 147.281 36.9896 147.102 37.1328C146.958 37.276 146.833 37.4372 146.726 37.6162C146.833 37.8311 146.869 38.028 146.833 38.207C146.833 38.3861 146.815 38.6009 146.779 38.8516C146.564 38.959 146.368 39.1022 146.188 39.2812C146.009 39.4603 145.795 39.4603 145.544 39.2812C145.293 39.5677 144.899 39.7288 144.362 39.7646C143.861 39.8005 143.449 39.7467 143.127 39.6035C143.02 39.6751 142.912 39.7646 142.805 39.8721C142.697 39.9437 142.572 40.0153 142.429 40.0869C142.214 40.1227 142.071 40.2301 141.999 40.4092C141.748 40.4808 141.498 40.4987 141.247 40.4629C140.996 40.4271 140.746 40.4092 140.495 40.4092C139.886 40.4808 139.475 40.4629 139.26 40.3555C139.081 40.2122 138.812 40.2301 138.454 40.4092C138.168 40.3376 137.935 40.1943 137.756 39.9795C137.505 40.0153 137.344 40.0869 137.272 40.1943C137.201 40.266 137.076 40.3376 136.896 40.4092C136.61 40.3734 136.306 40.3376 135.983 40.3018C135.697 40.266 135.41 40.248 135.124 40.248C134.873 40.248 134.659 40.3018 134.479 40.4092C134.3 40.5166 134.175 40.5703 134.104 40.5703C133.566 40.4629 133.173 40.4629 132.922 40.5703C132.671 40.6419 132.421 40.7135 132.17 40.7852C131.991 40.8568 131.722 40.8926 131.364 40.8926C131.257 40.9284 131.132 40.9642 130.988 41C130.881 41.0358 130.773 41.1074 130.666 41.2148C130.451 41.1432 130.165 41.0895 129.807 41.0537C129.449 41.0179 129.27 41.1969 129.27 41.5908C129.162 41.4476 129.09 41.3044 129.055 41.1611C129.055 41.0537 128.929 41.0179 128.679 41.0537C128.428 40.7314 128.249 40.5882 128.142 40.624C128.034 40.6598 127.945 40.6419 127.873 40.5703C127.801 40.3913 127.748 40.266 127.712 40.1943C127.676 40.0869 127.569 39.9974 127.39 39.9258C127.246 39.7467 127.103 39.6035 126.96 39.4961C126.817 39.3529 126.691 39.1917 126.584 39.0127C126.548 38.8337 126.566 38.7083 126.638 38.6367C126.745 38.5293 126.835 38.3861 126.906 38.207C126.763 38.1354 126.674 38.0638 126.638 37.9922C126.602 37.8848 126.548 37.7415 126.477 37.5625C126.477 37.3835 126.512 37.2223 126.584 37.0791C126.691 36.9001 126.799 36.721 126.906 36.542C126.763 36.363 126.709 36.2018 126.745 36.0586C126.817 35.8796 126.853 35.7005 126.853 35.5215C126.853 35.1992 126.799 34.8949 126.691 34.6084C126.62 34.3219 126.584 34.0355 126.584 33.749C126.584 33.4626 126.602 33.1582 126.638 32.8359C126.709 32.5137 126.602 32.263 126.315 32.084C126.423 31.5827 126.423 31.0814 126.315 30.5801C126.208 30.0788 126.262 29.5954 126.477 29.1299C126.441 28.915 126.369 28.7539 126.262 28.6465C126.19 28.5033 126.118 28.3421 126.047 28.1631C126.118 27.9482 126.136 27.7334 126.101 27.5186C126.101 27.2679 126.083 27.0352 126.047 26.8203C126.047 26.6055 126.047 26.3906 126.047 26.1758C126.047 25.9251 126.101 25.6924 126.208 25.4775C126.101 25.2627 126.011 25.012 125.939 24.7256C125.904 24.4033 125.868 24.0632 125.832 23.7051C125.832 23.347 125.85 23.0247 125.886 22.7383C125.922 22.416 125.975 22.1475 126.047 21.9326C126.083 21.7178 126.065 21.5924 125.993 21.5566C125.922 21.5208 125.85 21.4134 125.778 21.2344C125.85 20.9837 125.886 20.7331 125.886 20.4824C125.886 20.2318 125.957 19.999 126.101 19.7842C125.922 19.4977 125.832 19.1755 125.832 18.8174C125.868 18.4593 125.904 18.1012 125.939 17.7432C126.011 17.3493 126.047 16.9733 126.047 16.6152C126.083 16.2214 125.993 15.8454 125.778 15.4873C125.778 15.2367 125.85 15.0755 125.993 15.0039C126.136 14.8965 126.208 14.7533 126.208 14.5742V13.5C126.315 13.4642 126.405 13.4105 126.477 13.3389C126.548 13.2314 126.62 13.1419 126.691 13.0703C126.87 12.8913 127.049 12.8018 127.229 12.8018C127.408 12.766 127.604 12.6048 127.819 12.3184C128.285 12.2109 128.518 12.2109 128.518 12.3184C128.553 12.4258 128.661 12.569 128.84 12.748C129.019 12.6764 129.162 12.6585 129.27 12.6943C129.377 12.7301 129.52 12.7839 129.699 12.8555C129.878 13.1777 130.129 13.6074 130.451 14.1445C130.809 14.6816 130.988 15.1292 130.988 15.4873C130.988 15.5947 130.917 15.7021 130.773 15.8096C130.63 15.917 130.523 16.0244 130.451 16.1318C130.451 16.2751 130.451 16.4004 130.451 16.5078C130.451 16.5794 130.415 16.6689 130.344 16.7764C130.308 17.027 130.326 17.1882 130.397 17.2598C130.505 17.3314 130.576 17.4567 130.612 17.6357C130.326 17.8148 130.218 18.0117 130.29 18.2266C130.397 18.4056 130.451 18.6204 130.451 18.8711C130.451 19.0859 130.397 19.2829 130.29 19.4619C130.218 19.6051 130.308 19.7663 130.559 19.9453C130.308 20.1243 130.272 20.3571 130.451 20.6436C130.415 20.8584 130.38 21.0732 130.344 21.2881C130.344 21.5029 130.344 21.7357 130.344 21.9863C130.344 22.1654 130.38 22.3086 130.451 22.416C130.559 22.5234 130.612 22.6309 130.612 22.7383C130.612 22.8099 130.576 22.8994 130.505 23.0068C130.469 23.0785 130.451 23.168 130.451 23.2754C130.451 23.3828 130.469 23.4902 130.505 23.5977C130.576 23.6693 130.612 23.7588 130.612 23.8662C130.612 23.9378 130.559 24.0452 130.451 24.1885C130.38 24.2959 130.344 24.4212 130.344 24.5645C130.344 24.8509 130.38 25.1732 130.451 25.5312C130.523 25.8535 130.648 26.1579 130.827 26.4443C130.648 26.695 130.612 26.9456 130.72 27.1963C130.827 27.4111 130.791 27.5723 130.612 27.6797C130.505 27.8945 130.523 28.0378 130.666 28.1094C130.809 28.1452 130.881 28.2168 130.881 28.3242C130.881 28.4316 130.845 28.5391 130.773 28.6465C130.738 28.7181 130.72 28.8076 130.72 28.915C130.72 29.1657 130.756 29.4163 130.827 29.667C130.899 29.8818 130.809 30.0788 130.559 30.2578C130.773 30.7949 130.952 31.4036 131.096 32.084C131.275 32.7285 131.328 33.3551 131.257 33.9639C131.472 34.0355 131.579 34.1787 131.579 34.3936C131.579 34.6084 131.704 34.7516 131.955 34.8232C131.919 35.0023 131.866 35.1276 131.794 35.1992C131.758 35.2708 131.83 35.3962 132.009 35.5752C132.689 35.8617 133.369 35.9333 134.05 35.79C134.73 35.6468 135.428 35.5752 136.145 35.5752C136.503 35.5752 136.735 35.611 136.843 35.6826C136.986 35.7184 137.076 35.79 137.111 35.8975C137.183 35.9691 137.237 36.0407 137.272 36.1123C137.308 36.1481 137.434 36.166 137.648 36.166C138.436 35.9154 139.117 35.8438 139.689 35.9512C140.262 36.0228 140.764 35.9512 141.193 35.7363C141.301 35.7363 141.408 35.79 141.516 35.8975C141.623 35.9691 141.748 36.0228 141.892 36.0586C142.106 35.7363 142.393 35.5752 142.751 35.5752C143.145 35.5394 143.485 35.3783 143.771 35.0918C144.058 35.056 144.344 35.056 144.631 35.0918C144.917 34.9486 145.222 34.859 145.544 34.8232C145.866 34.7516 146.188 34.6621 146.511 34.5547C146.905 34.7337 147.155 35.0381 147.263 35.4678C147.406 35.8617 147.495 36.2555 147.531 36.6494ZM156.482 39.7646C156.16 39.8005 155.856 39.7826 155.569 39.7109C155.283 39.6035 154.979 39.5319 154.656 39.4961C154.585 39.3529 154.477 39.2096 154.334 39.0664C154.191 38.8874 154.03 38.762 153.851 38.6904C153.278 38.4398 152.938 38.1533 152.83 37.8311C152.723 37.5088 152.418 37.3118 151.917 37.2402C151.917 37.0254 151.881 36.8822 151.81 36.8105C151.738 36.7031 151.648 36.6136 151.541 36.542C151.469 36.4704 151.38 36.4167 151.272 36.3809C151.165 36.3092 151.058 36.2018 150.95 36.0586C150.843 35.6647 150.717 35.2708 150.574 34.877C150.431 34.4831 150.162 34.1787 149.769 33.9639C149.769 33.57 149.751 33.3193 149.715 33.2119C149.679 33.0687 149.625 32.9971 149.554 32.9971C149.518 32.9613 149.464 32.9434 149.393 32.9434C149.357 32.9076 149.303 32.8001 149.231 32.6211C149.267 32.2272 149.178 31.9229 148.963 31.708C148.784 31.4574 148.659 31.2783 148.587 31.1709C148.587 31.0277 148.587 30.9023 148.587 30.7949C148.623 30.6517 148.676 30.5085 148.748 30.3652C148.533 30.2936 148.39 30.1862 148.318 30.043C148.283 29.8639 148.247 29.6849 148.211 29.5059C148.175 29.3268 148.139 29.1478 148.104 28.9688C148.068 28.7897 147.96 28.6465 147.781 28.5391C147.853 28.0736 147.889 27.6081 147.889 27.1426C147.924 26.6413 147.799 26.1937 147.513 25.7998C147.835 25.3701 147.996 24.9046 147.996 24.4033C148.032 23.8662 148.139 23.347 148.318 22.8457C148.318 22.6667 148.265 22.5055 148.157 22.3623C148.086 22.1833 148.014 22.0042 147.942 21.8252C148.229 21.7536 148.354 21.5566 148.318 21.2344C148.318 20.9121 148.318 20.6257 148.318 20.375C148.462 20.0885 148.605 19.8379 148.748 19.623C148.891 19.4082 149.017 19.2113 149.124 19.0322C149.231 18.8174 149.321 18.6025 149.393 18.3877C149.464 18.137 149.5 17.8327 149.5 17.4746C149.786 17.2956 150.037 17.0807 150.252 16.8301C150.467 16.5794 150.682 16.3288 150.896 16.0781C151.111 15.7917 151.326 15.541 151.541 15.3262C151.756 15.0755 152.007 14.8607 152.293 14.6816C152.4 14.5026 152.508 14.3773 152.615 14.3057C152.758 14.1982 152.866 14.0192 152.938 13.7686C153.296 13.6611 153.618 13.5 153.904 13.2852C154.227 13.0703 154.531 12.8734 154.817 12.6943C155.319 12.3721 155.874 12.1035 156.482 11.8887C157.127 11.638 157.754 11.4769 158.362 11.4053C158.47 11.2979 158.595 11.2083 158.738 11.1367C158.882 11.0651 159.025 10.9756 159.168 10.8682C159.347 10.8324 159.508 10.8324 159.651 10.8682C159.83 10.8682 159.974 10.8682 160.081 10.8682C160.188 10.8324 160.296 10.7786 160.403 10.707C160.511 10.6354 160.6 10.4743 160.672 10.2236L160.994 10.8682C161.245 10.904 161.442 10.9398 161.585 10.9756C161.728 10.9756 161.889 10.8503 162.068 10.5996C162.498 10.707 162.928 10.7786 163.357 10.8145C163.787 10.8503 164.217 10.904 164.646 10.9756C165.005 11.2979 165.201 11.5127 165.237 11.6201C165.309 11.6917 165.381 11.7992 165.452 11.9424C165.739 11.9782 165.971 12.0856 166.15 12.2646C166.329 12.4079 166.58 12.4795 166.902 12.4795C167.01 12.766 167.171 12.945 167.386 13.0166C167.636 13.0524 167.798 13.2135 167.869 13.5C168.12 13.5358 168.37 13.6253 168.621 13.7686C168.836 14.1982 169.122 14.5384 169.48 14.7891C169.874 15.0397 170.161 15.3978 170.34 15.8633C170.555 15.9707 170.716 16.1139 170.823 16.293C170.966 16.4362 171.092 16.5973 171.199 16.7764C171.342 16.9196 171.468 17.0807 171.575 17.2598C171.718 17.403 171.897 17.5104 172.112 17.582C172.112 17.7611 172.076 17.9043 172.005 18.0117C171.933 18.0833 171.915 18.1729 171.951 18.2803C172.166 18.3519 172.291 18.4772 172.327 18.6562C172.399 18.8353 172.452 19.0143 172.488 19.1934C172.56 19.3724 172.632 19.5514 172.703 19.7305C172.811 19.8737 172.99 19.9632 173.24 19.999C173.24 20.3213 173.258 20.5719 173.294 20.751C173.33 20.8942 173.401 21.109 173.509 21.3955C173.688 21.7536 173.777 22.1117 173.777 22.4697C173.813 22.792 173.867 23.1501 173.938 23.5439C173.938 23.6514 173.974 23.7409 174.046 23.8125C174.153 23.8841 174.243 23.9557 174.314 24.0273C174.243 24.3138 174.243 24.6003 174.314 24.8867C174.386 25.1732 174.422 25.4596 174.422 25.7461C174.422 25.9251 174.368 26.0505 174.261 26.1221C174.153 26.1579 174.1 26.2116 174.1 26.2832C174.135 26.3548 174.225 26.4443 174.368 26.5518C174.547 26.6234 174.673 26.695 174.744 26.7666C174.493 26.8382 174.332 26.9814 174.261 27.1963C174.225 27.3753 174.207 27.5902 174.207 27.8408C174.207 28.0557 174.207 28.2884 174.207 28.5391C174.243 28.7897 174.243 29.0046 174.207 29.1836C174.171 29.3268 174.118 29.4342 174.046 29.5059C173.974 29.5775 173.938 29.6849 173.938 29.8281C174.01 30.222 174.01 30.4548 173.938 30.5264C173.867 30.598 173.813 30.6875 173.777 30.7949C173.742 30.974 173.724 31.1351 173.724 31.2783C173.759 31.4215 173.777 31.5827 173.777 31.7617C173.777 32.0482 173.706 32.2809 173.562 32.46C173.455 32.639 173.312 32.8359 173.133 33.0508C173.097 33.2298 173.115 33.3551 173.187 33.4268C173.294 33.4984 173.312 33.6237 173.24 33.8027C172.954 34.2682 172.685 34.7337 172.435 35.1992C172.184 35.6289 171.933 36.0944 171.683 36.5957C171.504 36.8822 171.289 37.097 171.038 37.2402C170.823 37.3835 170.644 37.652 170.501 38.0459C170.143 38.1175 169.767 38.2786 169.373 38.5293C169.015 38.7441 168.657 38.9769 168.299 39.2275C167.977 39.4782 167.69 39.7109 167.439 39.9258C167.189 40.1406 167.046 40.248 167.01 40.248C166.759 40.2839 166.58 40.3555 166.473 40.4629C166.365 40.5345 166.168 40.5703 165.882 40.5703C165.703 40.5345 165.577 40.624 165.506 40.8389C165.434 41.0537 165.237 41.1969 164.915 41.2686C164.45 41.4476 164.145 41.5371 164.002 41.5371C163.859 41.5371 163.698 41.4297 163.519 41.2148C163.268 41.2148 163.035 41.2507 162.82 41.3223C162.605 41.4297 162.373 41.4834 162.122 41.4834C161.907 41.4834 161.692 41.4297 161.478 41.3223C161.263 41.2507 161.048 41.2148 160.833 41.2148C160.654 41.179 160.493 41.1611 160.35 41.1611C160.206 41.1969 160.045 41.2148 159.866 41.2148C159.687 41.2148 159.454 41.1611 159.168 41.0537C158.882 40.9821 158.649 40.9105 158.47 40.8389C158.076 40.624 157.771 40.445 157.557 40.3018C157.342 40.1227 157.073 40.0332 156.751 40.0332L156.482 39.7646ZM169.588 21.2881C169.266 21.1449 169.051 20.9837 168.943 20.8047C168.872 20.5898 168.782 20.3571 168.675 20.1064C168.603 19.8558 168.532 19.623 168.46 19.4082C168.424 19.1934 168.406 19.0322 168.406 18.9248C168.263 18.71 168.102 18.5488 167.923 18.4414C167.744 18.334 167.565 18.2266 167.386 18.1191C167.243 17.9759 167.099 17.8327 166.956 17.6895C166.813 17.5462 166.723 17.3314 166.688 17.0449C166.401 16.9733 166.15 16.848 165.936 16.6689C165.757 16.4899 165.524 16.3646 165.237 16.293C165.237 16.1139 165.201 16.0244 165.13 16.0244C165.058 15.9886 165.005 15.8991 164.969 15.7559C164.467 15.6842 164.056 15.5589 163.733 15.3799C163.447 15.2008 163.107 15.0218 162.713 14.8428C162.534 15.0218 162.373 15.0934 162.229 15.0576C162.122 14.986 161.979 14.9502 161.8 14.9502C161.657 14.9502 161.513 15.0218 161.37 15.165C161.227 15.3083 161.066 15.4157 160.887 15.4873C160.779 15.3083 160.618 15.2188 160.403 15.2188C160.188 15.1829 159.992 15.1292 159.812 15.0576C159.669 15.165 159.472 15.2725 159.222 15.3799C159.007 15.4515 158.81 15.5231 158.631 15.5947C157.951 15.8812 157.324 16.3646 156.751 17.0449C156.321 17.403 155.945 17.6895 155.623 17.9043C155.337 18.0833 155.014 18.2445 154.656 18.3877C154.62 18.71 154.513 18.9964 154.334 19.2471C154.155 19.4977 154.048 19.7842 154.012 20.1064C153.618 20.2497 153.313 20.5719 153.099 21.0732C152.884 21.5745 152.741 22.0042 152.669 22.3623C152.884 22.6846 153.027 23.0426 153.099 23.4365C153.17 23.8304 153.296 24.2064 153.475 24.5645C153.296 24.7435 153.134 24.9046 152.991 25.0479C152.848 25.1911 152.723 25.3701 152.615 25.585C152.293 25.6924 152.132 25.9609 152.132 26.3906C152.168 26.7845 152.257 27.2321 152.4 27.7334C152.544 28.1989 152.705 28.6465 152.884 29.0762C153.099 29.5059 153.26 29.7744 153.367 29.8818C153.296 29.9893 153.224 30.0967 153.152 30.2041C153.081 30.3115 153.063 30.4189 153.099 30.5264C153.493 30.9561 153.743 31.529 153.851 32.2451C153.994 32.3883 154.137 32.5137 154.28 32.6211C154.424 32.6927 154.549 32.7822 154.656 32.8896C154.799 32.9613 154.889 33.0687 154.925 33.2119C154.996 33.3551 155.032 33.57 155.032 33.8564C155.211 33.8564 155.337 33.8923 155.408 33.9639C155.516 34.0355 155.605 34.125 155.677 34.2324C155.748 34.304 155.82 34.3936 155.892 34.501C155.963 34.5726 156.089 34.6084 156.268 34.6084L156.751 35.1455C156.93 35.2529 157.091 35.3066 157.234 35.3066C157.378 35.2708 157.485 35.3962 157.557 35.6826C158.13 35.8258 158.685 36.0049 159.222 36.2197C159.759 36.4346 160.296 36.6494 160.833 36.8643C161.119 36.7568 161.406 36.721 161.692 36.7568C161.979 36.7926 162.265 36.7747 162.552 36.7031C162.731 36.7031 162.856 36.6494 162.928 36.542C163.035 36.3988 163.178 36.3271 163.357 36.3271C163.465 36.3271 163.536 36.3988 163.572 36.542C163.644 36.6494 163.805 36.6673 164.056 36.5957C164.127 36.4167 164.235 36.3451 164.378 36.3809C164.557 36.4167 164.7 36.3988 164.808 36.3271C165.022 36.2197 165.166 36.0586 165.237 35.8438C165.345 35.6289 165.56 35.5215 165.882 35.5215C166.204 35.0202 166.598 34.5905 167.063 34.2324C167.529 33.8385 167.923 33.391 168.245 32.8896H168.782C168.89 32.3883 169.033 31.8691 169.212 31.332C169.427 30.7591 169.498 30.222 169.427 29.7207C169.606 29.112 169.731 28.5391 169.803 28.002C169.91 27.4648 169.964 26.9456 169.964 26.4443C169.964 26.2653 169.91 26.1042 169.803 25.9609C169.731 25.7819 169.695 25.6029 169.695 25.4238C169.695 25.2448 169.713 25.0658 169.749 24.8867C169.821 24.7077 169.856 24.5286 169.856 24.3496C169.856 23.8483 169.821 23.347 169.749 22.8457C169.713 22.3086 169.66 21.7894 169.588 21.2881ZM201.688 29.291C201.509 30.0788 201.456 30.8665 201.527 31.6543C201.635 32.4421 201.599 33.2119 201.42 33.9639C201.348 34.4294 201.169 34.859 200.883 35.2529C200.632 35.6468 200.543 36.0944 200.614 36.5957C200.507 36.6315 200.364 36.721 200.185 36.8643C200.041 37.0075 199.88 37.1686 199.701 37.3477C199.558 37.5267 199.415 37.7057 199.271 37.8848C199.164 38.028 199.092 38.1533 199.057 38.2607C198.52 38.6904 198.054 39.0664 197.66 39.3887C197.302 39.7109 196.944 40.0511 196.586 40.4092C196.299 40.3734 196.013 40.3734 195.727 40.4092C195.476 40.445 195.261 40.6061 195.082 40.8926C194.76 40.821 194.438 40.8389 194.115 40.9463C193.829 41.0179 193.507 41.0537 193.148 41.0537C193.005 41.0537 192.88 41.0179 192.772 40.9463C192.665 40.8389 192.522 40.7852 192.343 40.7852C192.235 40.7852 192.128 40.821 192.021 40.8926C191.913 40.9284 191.806 40.9463 191.698 40.9463C191.519 40.9463 191.322 40.9284 191.107 40.8926C190.893 40.8568 190.696 40.8389 190.517 40.8389C190.445 40.8389 190.302 40.8747 190.087 40.9463C189.872 41.0179 189.639 41.0895 189.389 41.1611C189.174 41.2686 188.959 41.376 188.744 41.4834C188.565 41.5908 188.458 41.6624 188.422 41.6982C187.992 41.5192 187.58 41.3402 187.187 41.1611C186.793 40.9821 186.363 40.9463 185.897 41.0537C185.468 40.6598 185.02 40.445 184.555 40.4092C184.125 40.3734 183.66 40.3197 183.158 40.248C183.015 40.248 182.925 40.1943 182.89 40.0869C182.89 39.9437 182.89 39.8184 182.89 39.7109C182.388 39.7826 181.994 39.8005 181.708 39.7646C181.422 39.693 181.171 39.5856 180.956 39.4424C180.777 39.2633 180.58 39.0664 180.365 38.8516C180.186 38.6367 179.936 38.4219 179.613 38.207C179.685 37.9922 179.685 37.8132 179.613 37.6699C179.577 37.4909 179.506 37.3298 179.398 37.1865C179.291 37.0075 179.184 36.8464 179.076 36.7031C179.005 36.5241 178.987 36.2913 179.022 36.0049C178.772 35.5394 178.378 35.1634 177.841 34.877C177.805 34.6979 177.751 34.5547 177.68 34.4473C177.608 34.3398 177.572 34.1608 177.572 33.9102C177.572 33.6953 177.501 33.57 177.357 33.5342C177.214 33.4626 177.143 33.373 177.143 33.2656C177.322 32.9434 177.536 32.6748 177.787 32.46C178.074 32.2451 178.288 31.9766 178.432 31.6543C178.718 31.7617 178.915 31.7975 179.022 31.7617C179.13 31.6901 179.327 31.7617 179.613 31.9766C179.685 32.0482 179.81 32.1377 179.989 32.2451C180.204 32.3525 180.437 32.4779 180.688 32.6211C180.938 32.7643 181.171 32.8896 181.386 32.9971C181.601 33.1045 181.744 33.1761 181.815 33.2119C181.887 33.6416 182.048 33.9639 182.299 34.1787C182.585 34.3936 182.8 34.6979 182.943 35.0918C183.122 35.1634 183.266 35.235 183.373 35.3066C183.48 35.3424 183.66 35.3245 183.91 35.2529C183.982 35.3962 184.089 35.5036 184.232 35.5752C184.376 35.6468 184.483 35.7542 184.555 35.8975C185.092 35.8258 185.504 35.8617 185.79 36.0049C186.076 36.1481 186.452 36.2376 186.918 36.2734C186.99 36.3809 187.061 36.4883 187.133 36.5957C187.204 36.6673 187.276 36.7389 187.348 36.8105C187.849 36.7747 188.386 36.7747 188.959 36.8105C189.568 36.8464 190.105 36.7389 190.57 36.4883C190.749 36.6673 190.928 36.721 191.107 36.6494C191.286 36.5778 191.465 36.542 191.645 36.542C191.824 36.542 191.985 36.5957 192.128 36.7031C192.307 36.7747 192.486 36.8105 192.665 36.8105C192.844 36.8105 193.005 36.7926 193.148 36.7568C193.327 36.721 193.507 36.7031 193.686 36.7031C193.9 36.7031 194.008 36.6136 194.008 36.4346C194.044 36.2555 194.133 36.166 194.276 36.166C194.563 36.166 194.849 36.0407 195.136 35.79C195.458 35.5394 195.727 35.3245 195.941 35.1455C196.12 35.1455 196.228 35.0918 196.264 34.9844C196.335 34.8411 196.496 34.7337 196.747 34.6621C197.141 34.2682 197.338 33.8385 197.338 33.373C197.374 32.9076 197.284 32.4421 197.069 31.9766C197.069 31.7975 197.123 31.6364 197.23 31.4932C197.374 31.3141 197.445 31.1351 197.445 30.9561C197.445 30.598 197.32 30.2399 197.069 29.8818C196.819 29.5238 196.604 29.1836 196.425 28.8613C196.353 28.7539 196.282 28.7002 196.21 28.7002C196.138 28.6644 196.049 28.6286 195.941 28.5928C195.87 28.4137 195.798 28.3242 195.727 28.3242C195.691 28.2884 195.583 28.2526 195.404 28.2168C195.297 28.1094 195.136 27.984 194.921 27.8408C194.706 27.6976 194.527 27.626 194.384 27.626C193.847 27.626 193.56 27.5723 193.524 27.4648C193.524 27.3574 193.274 27.3037 192.772 27.3037C192.343 27.3037 191.913 27.3932 191.483 27.5723C191.376 27.5007 191.215 27.429 191 27.3574C190.785 27.2858 190.552 27.25 190.302 27.25C190.087 27.2142 189.872 27.2142 189.657 27.25C189.478 27.2858 189.335 27.3574 189.228 27.4648C189.156 27.3932 189.013 27.3037 188.798 27.1963C188.583 27.0531 188.44 26.9814 188.368 26.9814C187.258 26.9814 186.238 26.8561 185.307 26.6055C184.411 26.319 183.498 26.1758 182.567 26.1758C182.102 25.9609 181.815 25.8177 181.708 25.7461C181.601 25.6745 181.439 25.6387 181.225 25.6387C181.046 25.4238 180.884 25.2269 180.741 25.0479C180.634 24.833 180.473 24.654 180.258 24.5107C180.258 24.1885 180.186 23.902 180.043 23.6514C179.936 23.4007 179.792 23.168 179.613 22.9531C179.47 22.7383 179.327 22.5234 179.184 22.3086C179.076 22.0579 179.022 21.7715 179.022 21.4492C178.772 21.0195 178.503 20.6615 178.217 20.375C178.109 19.623 178.109 18.7816 178.217 17.8506C178.324 16.8838 178.682 16.1318 179.291 15.5947V14.7354C179.649 14.7354 179.936 14.6816 180.15 14.5742C180.401 14.431 180.616 14.2699 180.795 14.0908C181.01 13.9118 181.207 13.7327 181.386 13.5537C181.601 13.3747 181.851 13.2314 182.138 13.124C182.317 13.0524 182.442 12.945 182.514 12.8018C182.585 12.6585 182.657 12.4974 182.729 12.3184C183.516 12.39 184.304 12.3184 185.092 12.1035C185.88 11.8529 186.667 11.6559 187.455 11.5127C187.634 11.4769 187.777 11.3874 187.885 11.2441C187.992 11.1009 188.118 10.9756 188.261 10.8682C188.511 10.904 188.726 10.9756 188.905 11.083C189.12 11.1546 189.335 11.2083 189.55 11.2441C189.729 11.3158 189.89 11.3337 190.033 11.2979C190.176 11.2262 190.338 11.1904 190.517 11.1904C190.696 11.1904 190.893 11.2979 191.107 11.5127C191.68 11.4769 192.11 11.5664 192.396 11.7812C192.683 11.9961 192.969 12.0856 193.256 12.0498C193.471 12.3363 193.757 12.5511 194.115 12.6943C194.473 12.8376 194.831 12.9092 195.189 12.9092C195.225 13.0882 195.315 13.2135 195.458 13.2852C195.601 13.3568 195.691 13.4821 195.727 13.6611C196.192 13.7327 196.532 13.9297 196.747 14.252C196.998 14.5384 197.338 14.7354 197.768 14.8428C197.839 15.0218 197.911 15.165 197.982 15.2725C198.09 15.3441 198.179 15.4694 198.251 15.6484C198.502 15.6126 198.645 15.6305 198.681 15.7021C198.752 15.7738 198.878 15.8454 199.057 15.917C199.307 16.4183 199.522 16.9912 199.701 17.6357C199.522 17.9222 199.361 18.2266 199.218 18.5488C199.075 18.8353 198.86 19.068 198.573 19.2471C197.642 19.2471 196.872 19.068 196.264 18.71C195.655 18.3519 195.046 17.8327 194.438 17.1523C194.258 17.0807 194.026 17.0449 193.739 17.0449C193.453 17.0091 193.256 16.9375 193.148 16.8301C192.79 16.5078 192.522 16.3646 192.343 16.4004C192.2 16.4004 192.038 16.3646 191.859 16.293C191.465 16.2214 191.072 16.096 190.678 15.917C190.284 15.738 189.872 15.6484 189.442 15.6484C189.228 15.6484 189.031 15.6842 188.852 15.7559C188.708 15.8275 188.547 15.8812 188.368 15.917C188.189 15.9528 188.028 15.9528 187.885 15.917C187.777 15.8812 187.634 15.8633 187.455 15.8633C187.169 15.8633 186.972 15.917 186.864 16.0244C186.793 16.1318 186.721 16.1855 186.649 16.1855C186.184 16.1855 185.79 16.2572 185.468 16.4004C185.181 16.5436 184.931 16.651 184.716 16.7227C184.573 16.7943 184.447 16.8838 184.34 16.9912C184.232 17.0628 184.161 17.1882 184.125 17.3672C183.731 17.4388 183.463 17.5999 183.319 17.8506C183.176 18.0654 182.961 18.2266 182.675 18.334C182.567 18.513 182.603 18.6921 182.782 18.8711C182.639 19.0859 182.603 19.265 182.675 19.4082C182.746 19.5156 182.836 19.641 182.943 19.7842C183.087 19.8916 183.23 20.0348 183.373 20.2139C183.516 20.3571 183.588 20.5719 183.588 20.8584C183.588 21.109 183.695 21.2702 183.91 21.3418C184.161 21.3776 184.358 21.4671 184.501 21.6104C184.68 21.7536 184.913 21.9147 185.199 22.0938C185.486 22.237 185.718 22.3086 185.897 22.3086C186.005 22.3086 186.094 22.2907 186.166 22.2549C186.273 22.2191 186.381 22.2012 186.488 22.2012C186.739 22.2012 186.954 22.2549 187.133 22.3623C187.348 22.4339 187.562 22.4697 187.777 22.4697C187.885 22.4697 187.992 22.4697 188.1 22.4697C188.207 22.4339 188.314 22.416 188.422 22.416C188.816 22.416 189.156 22.4876 189.442 22.6309C189.765 22.7383 190.141 22.6667 190.57 22.416C191.036 22.6667 191.43 22.7741 191.752 22.7383C192.11 22.7025 192.396 22.7562 192.611 22.8994C192.719 22.971 192.808 23.0426 192.88 23.1143C192.987 23.1859 193.095 23.2217 193.202 23.2217C193.31 23.2217 193.399 23.2038 193.471 23.168C193.578 23.1322 193.668 23.1143 193.739 23.1143C193.882 23.1143 194.026 23.1501 194.169 23.2217C194.312 23.2933 194.438 23.2396 194.545 23.0605C194.76 23.3112 195.028 23.4186 195.351 23.3828C195.673 23.347 195.977 23.347 196.264 23.3828C196.371 23.5618 196.443 23.6872 196.479 23.7588C196.514 23.7946 196.514 23.9378 196.479 24.1885C196.801 24.1527 197.051 24.1706 197.23 24.2422C197.41 24.278 197.553 24.3496 197.66 24.457C197.803 24.5645 197.929 24.6719 198.036 24.7793C198.179 24.8509 198.358 24.9046 198.573 24.9404C198.681 25.2627 198.824 25.5492 199.003 25.7998C199.218 26.0505 199.504 26.2116 199.862 26.2832C199.97 26.5697 200.131 26.8382 200.346 27.0889C200.561 27.3037 200.793 27.5007 201.044 27.6797C201.08 28.2884 201.295 28.8255 201.688 29.291ZM230.083 14.8428C229.868 15.0218 229.635 15.2904 229.385 15.6484C229.17 16.0065 228.955 16.2214 228.74 16.293C228.669 16.3288 228.579 16.3467 228.472 16.3467C228.364 16.3109 228.257 16.293 228.149 16.293C227.97 16.293 227.845 16.3288 227.773 16.4004C227.702 16.472 227.594 16.5257 227.451 16.5615C227.201 16.4183 226.95 16.3288 226.699 16.293C226.449 16.2572 226.198 16.1676 225.947 16.0244C225.732 16.0244 225.571 16.0781 225.464 16.1855C225.356 16.293 225.213 16.3467 225.034 16.3467C224.855 16.3467 224.676 16.3109 224.497 16.2393C224.354 16.1676 224.211 16.2214 224.067 16.4004C223.387 16.1855 222.689 16.0423 221.973 15.9707C221.292 15.8633 220.612 15.7201 219.932 15.541C219.645 15.6842 219.359 15.7559 219.072 15.7559C218.822 15.7201 218.553 15.738 218.267 15.8096C218.159 15.8454 218.052 15.8991 217.944 15.9707C217.837 16.0065 217.729 16.0244 217.622 16.0244C217.479 16.0244 217.354 16.0065 217.246 15.9707C217.139 15.9349 217.013 15.917 216.87 15.917C216.655 15.917 216.44 15.9707 216.226 16.0781C216.011 16.1497 215.796 16.1855 215.581 16.1855C215.402 16.1855 215.259 16.1497 215.151 16.0781C215.044 15.9707 214.901 16.0065 214.722 16.1855C214.614 16.0065 214.489 15.9707 214.346 16.0781C214.238 16.1497 214.131 16.2214 214.023 16.293C213.451 16.293 213.057 16.2751 212.842 16.2393C212.663 16.1676 212.448 16.1497 212.197 16.1855C212.197 16.4362 212.197 16.7943 212.197 17.2598C212.197 17.7253 212.197 18.2087 212.197 18.71C212.233 19.1755 212.251 19.623 212.251 20.0527C212.251 20.4466 212.233 20.7152 212.197 20.8584C212.305 21.109 212.484 21.2344 212.734 21.2344C213.021 21.2344 213.254 21.2344 213.433 21.2344C213.934 21.4492 214.435 21.5745 214.937 21.6104C215.474 21.6104 215.993 21.6104 216.494 21.6104C216.673 21.6104 216.816 21.5924 216.924 21.5566C217.067 21.5208 217.228 21.5029 217.407 21.5029C217.55 21.5029 217.765 21.5387 218.052 21.6104C218.374 21.6462 218.678 21.682 218.965 21.7178C219.287 21.7178 219.556 21.682 219.771 21.6104C220.021 21.5387 220.146 21.3597 220.146 21.0732C220.54 21.0016 220.809 21.0732 220.952 21.2881C221.131 21.5029 221.31 21.6104 221.489 21.6104C221.668 21.6104 221.794 21.5387 221.865 21.3955C221.937 21.2523 222.044 21.1449 222.188 21.0732C222.331 21.0732 222.42 21.1449 222.456 21.2881C222.492 21.3955 222.635 21.4492 222.886 21.4492C223.101 21.4492 223.333 21.3776 223.584 21.2344C223.87 21.0553 224.157 21.1449 224.443 21.5029C224.694 21.5745 224.873 21.5745 224.98 21.5029C225.088 21.4313 225.249 21.3776 225.464 21.3418C225.715 21.7715 226.001 22.1833 226.323 22.5771C226.646 22.9352 226.896 23.347 227.075 23.8125C226.968 23.8125 226.842 23.8662 226.699 23.9736C226.556 24.0811 226.431 24.2243 226.323 24.4033C226.216 24.5465 226.126 24.6898 226.055 24.833C225.983 24.9762 225.965 25.1016 226.001 25.209C225.786 25.388 225.553 25.5671 225.303 25.7461C225.088 25.8893 224.837 25.9609 224.551 25.9609C224.264 25.9609 224.085 25.9072 224.014 25.7998C223.978 25.6924 223.87 25.6387 223.691 25.6387C223.512 25.6387 223.351 25.6745 223.208 25.7461C223.101 25.7819 222.975 25.7998 222.832 25.7998C222.653 25.7998 222.456 25.7819 222.241 25.7461C222.062 25.6745 221.865 25.6387 221.65 25.6387C221.4 25.6387 221.149 25.6924 220.898 25.7998C220.684 25.8714 220.451 25.9072 220.2 25.9072C220.021 25.9072 219.86 25.8714 219.717 25.7998C219.609 25.7282 219.484 25.6745 219.341 25.6387C219.09 25.6029 218.857 25.585 218.643 25.585C218.428 25.5492 218.195 25.5312 217.944 25.5312C217.765 25.5312 217.604 25.585 217.461 25.6924C217.354 25.764 217.21 25.7998 217.031 25.7998C216.852 25.7998 216.655 25.7819 216.44 25.7461C216.261 25.6745 216.082 25.6387 215.903 25.6387C215.76 25.6387 215.635 25.6566 215.527 25.6924C215.42 25.7282 215.312 25.7461 215.205 25.7461C214.561 25.8177 214.041 25.8893 213.647 25.9609C213.254 25.9967 212.86 26.0684 212.466 26.1758C212.502 26.5697 212.52 26.9635 212.52 27.3574C212.555 27.7513 212.663 28.1273 212.842 28.4854C212.842 28.5928 212.788 28.6644 212.681 28.7002C212.609 28.736 212.573 28.8434 212.573 29.0225C212.86 29.3805 213.021 29.7744 213.057 30.2041C213.128 30.598 213.146 31.0098 213.11 31.4395C213.075 31.8691 213.039 32.2988 213.003 32.7285C212.967 33.1582 213.039 33.5879 213.218 34.0176C213.11 34.304 213.021 34.5726 212.949 34.8232C212.913 35.0381 212.913 35.2887 212.949 35.5752C213.2 35.9333 213.522 36.1123 213.916 36.1123C214.095 36.1123 214.256 36.1123 214.399 36.1123C214.543 36.0765 214.704 36.0586 214.883 36.0586C215.026 36.0586 215.151 36.0765 215.259 36.1123C215.366 36.1481 215.492 36.166 215.635 36.166C216.064 36.166 216.494 36.1481 216.924 36.1123C217.354 36.0407 217.783 36.0049 218.213 36.0049C218.356 36.0049 218.481 36.0228 218.589 36.0586C218.732 36.0586 218.875 36.0586 219.019 36.0586C219.269 36.0586 219.502 36.0407 219.717 36.0049C219.967 35.9333 220.218 35.8975 220.469 35.8975C220.648 35.8975 220.809 35.9333 220.952 36.0049C221.095 36.0407 221.257 36.0586 221.436 36.0586C221.758 36.0586 222.062 36.0049 222.349 35.8975C222.671 35.79 222.993 35.7363 223.315 35.7363C223.387 35.7363 223.477 35.7542 223.584 35.79C223.691 35.79 223.781 35.79 223.853 35.79C224.032 35.79 224.157 35.7184 224.229 35.5752C224.3 35.3962 224.372 35.2887 224.443 35.2529C224.622 35.2171 224.801 35.1813 224.98 35.1455C225.16 35.1097 225.339 35.0739 225.518 35.0381C225.661 35.0023 225.768 35.056 225.84 35.1992C225.947 35.3066 226.019 35.4141 226.055 35.5215C226.377 35.5573 226.628 35.6647 226.807 35.8438C227.021 36.0228 227.272 36.1302 227.559 36.166C227.63 36.3451 227.72 36.5062 227.827 36.6494C227.935 36.7568 228.078 36.8105 228.257 36.8105C228.185 37.097 228.221 37.4014 228.364 37.7236C228.149 37.7952 227.952 37.9206 227.773 38.0996C227.63 38.2786 227.469 38.404 227.29 38.4756C227.326 38.6904 227.362 38.9053 227.397 39.1201C227.433 39.2992 227.433 39.514 227.397 39.7646C227.326 39.8363 227.218 39.8721 227.075 39.8721C226.968 39.8363 226.86 39.8184 226.753 39.8184C226.502 39.8184 226.341 39.9079 226.27 40.0869C226.234 40.2301 226.126 40.3018 225.947 40.3018C225.84 40.2301 225.697 40.1943 225.518 40.1943C225.339 40.1943 225.16 40.1943 224.98 40.1943C224.801 40.1943 224.622 40.1943 224.443 40.1943C224.3 40.1943 224.175 40.1585 224.067 40.0869C223.853 40.0869 223.674 40.1406 223.53 40.248C223.387 40.3197 223.244 40.4271 223.101 40.5703C222.743 40.4271 222.402 40.4092 222.08 40.5166C221.794 40.624 221.507 40.7673 221.221 40.9463C221.077 40.8031 220.934 40.7314 220.791 40.7314C220.684 40.7314 220.54 40.7493 220.361 40.7852C220.361 40.6777 220.308 40.5882 220.2 40.5166C220.129 40.4092 220.075 40.3018 220.039 40.1943C219.43 40.3018 218.822 40.3376 218.213 40.3018C217.604 40.2301 216.995 40.2839 216.387 40.4629C216.064 40.2839 215.671 40.1943 215.205 40.1943C214.775 40.1943 214.399 40.3197 214.077 40.5703C213.791 40.4271 213.486 40.4271 213.164 40.5703C212.842 40.6777 212.52 40.7314 212.197 40.7314C211.732 40.624 211.445 40.624 211.338 40.7314C211.266 40.8031 211.177 40.8389 211.069 40.8389C210.89 40.8389 210.711 40.8389 210.532 40.8389C210.389 40.8389 210.228 40.8031 210.049 40.7314C209.87 40.4808 209.709 40.3555 209.565 40.3555C209.458 40.3555 209.333 40.3197 209.189 40.248C209.154 39.9616 208.993 39.693 208.706 39.4424C208.42 39.1917 208.187 38.9769 208.008 38.7979C208.115 38.7262 208.223 38.6725 208.33 38.6367C208.473 38.5651 208.545 38.4577 208.545 38.3145C208.294 37.9564 208.151 37.7057 208.115 37.5625C208.115 37.4193 208.115 37.276 208.115 37.1328C208.151 36.9538 208.151 36.7926 208.115 36.6494C208.115 36.4704 208.044 36.3271 207.9 36.2197C208.258 36.1123 208.438 35.987 208.438 35.8438C208.438 35.3424 208.366 34.877 208.223 34.4473C208.079 34.0176 208.008 33.5521 208.008 33.0508C208.294 32.7643 208.42 32.5674 208.384 32.46C208.384 32.3167 208.384 32.0661 208.384 31.708C208.384 31.3141 208.402 30.9561 208.438 30.6338C208.509 30.2757 208.384 29.9535 208.062 29.667C208.133 29.3089 208.133 28.9688 208.062 28.6465C208.026 28.2884 208.008 27.9303 208.008 27.5723C208.008 27.1426 208.044 26.7308 208.115 26.3369C208.223 25.9072 208.276 25.4775 208.276 25.0479C208.276 24.7972 208.223 24.6182 208.115 24.5107C208.044 24.4033 208.008 24.2959 208.008 24.1885C208.115 23.723 208.133 23.4365 208.062 23.3291C207.99 23.1859 207.936 23.0247 207.9 22.8457C207.829 22.3086 207.811 21.7536 207.847 21.1807C207.918 20.6077 207.954 20.0348 207.954 19.4619C207.954 19.068 207.882 18.6204 207.739 18.1191C207.632 17.6178 207.614 17.2598 207.686 17.0449C207.614 16.9375 207.56 16.8122 207.524 16.6689C207.489 16.5257 207.399 16.4183 207.256 16.3467C207.471 16.0602 207.453 15.8096 207.202 15.5947C206.987 15.3441 206.88 15.0755 206.88 14.7891C206.88 14.4668 206.934 14.1982 207.041 13.9834C207.184 13.7686 207.184 13.4821 207.041 13.124C207.363 12.9808 207.721 12.8555 208.115 12.748C208.294 12.569 208.402 12.4258 208.438 12.3184C208.473 12.1751 208.67 12.1035 209.028 12.1035C209.637 12.1035 210.228 12.1572 210.801 12.2646C211.374 12.3363 211.965 12.4258 212.573 12.5332C212.716 12.4974 212.842 12.4795 212.949 12.4795C213.057 12.4437 213.164 12.39 213.271 12.3184C213.558 12.4616 213.826 12.5332 214.077 12.5332C214.328 12.4974 214.561 12.4437 214.775 12.3721C215.026 12.3005 215.259 12.2288 215.474 12.1572C215.724 12.0498 215.975 11.9961 216.226 11.9961C216.512 11.9961 216.781 12.0319 217.031 12.1035C217.282 12.1393 217.55 12.1572 217.837 12.1572C218.768 12.1572 219.699 12.1035 220.63 11.9961C221.597 11.8529 222.546 11.8171 223.477 11.8887C223.799 12.0677 223.924 12.2288 223.853 12.3721C223.996 12.3005 224.121 12.2467 224.229 12.2109C224.372 12.1751 224.533 12.1572 224.712 12.1572C225.142 12.1572 225.625 12.1751 226.162 12.2109C226.735 12.2109 227.218 12.2646 227.612 12.3721C227.827 12.5869 228.006 12.7122 228.149 12.748C228.328 12.8197 228.49 12.8913 228.633 12.9629C228.776 12.9987 228.937 13.0524 229.116 13.124C229.259 13.1956 229.385 13.2673 229.492 13.3389C229.635 13.3747 229.779 13.4284 229.922 13.5C230.173 13.8581 230.208 14.1266 230.029 14.3057C229.886 14.4489 229.904 14.6279 230.083 14.8428ZM257.94 15.7021C257.905 16.0602 257.976 16.293 258.155 16.4004C258.37 16.472 258.478 16.651 258.478 16.9375C258.478 16.9733 258.352 17.0807 258.102 17.2598C257.851 17.4388 257.69 17.5641 257.618 17.6357C257.153 17.5283 256.741 17.582 256.383 17.7969C256.061 18.0117 255.81 18.1729 255.631 18.2803C255.416 18.137 255.201 18.1012 254.986 18.1729C254.771 18.2445 254.557 18.2803 254.342 18.2803C253.984 18.2803 253.644 18.2266 253.321 18.1191C253.035 17.9759 252.73 17.9043 252.408 17.9043C252.301 17.9043 252.193 17.9222 252.086 17.958C251.979 17.9938 251.853 18.0117 251.71 18.0117C251.173 17.7253 250.743 17.6357 250.421 17.7432C250.099 17.8506 249.812 17.7611 249.562 17.4746C249.275 17.6178 248.971 17.7074 248.648 17.7432C248.362 17.7432 248.111 17.8327 247.896 18.0117C247.61 17.9043 247.324 17.8864 247.037 17.958C246.751 17.9938 246.464 17.958 246.178 17.8506C245.927 18.0654 245.855 18.2266 245.963 18.334C246.106 18.4414 246.178 18.5846 246.178 18.7637C246.07 18.8711 245.999 18.9964 245.963 19.1396C245.963 19.2471 245.963 19.3724 245.963 19.5156C245.999 19.623 245.999 19.7484 245.963 19.8916C245.927 20.0348 245.838 20.1602 245.694 20.2676C245.838 20.4466 245.927 20.6436 245.963 20.8584C246.035 21.0732 246.088 21.2881 246.124 21.5029C246.16 21.7178 246.196 21.9326 246.231 22.1475C246.267 22.3265 246.375 22.4876 246.554 22.6309C246.375 22.9889 246.339 23.347 246.446 23.7051C246.59 24.0632 246.733 24.4033 246.876 24.7256C246.983 25.012 247.019 25.2985 246.983 25.585C246.983 25.8356 247.073 26.0863 247.252 26.3369C247.073 26.6592 247.019 26.9277 247.091 27.1426C247.162 27.3216 247.252 27.5186 247.359 27.7334C247.467 27.9124 247.556 28.0915 247.628 28.2705C247.735 28.4495 247.825 28.557 247.896 28.5928C247.861 28.8076 247.807 29.0762 247.735 29.3984C247.7 29.6849 247.717 29.9176 247.789 30.0967C247.753 30.4906 247.753 30.7949 247.789 31.0098C247.825 31.1888 247.879 31.3857 247.95 31.6006C248.022 31.7796 248.076 31.9766 248.111 32.1914C248.183 32.3704 248.165 32.6211 248.058 32.9434C248.093 33.0866 248.129 33.2298 248.165 33.373C248.201 33.5163 248.29 33.6237 248.434 33.6953C248.434 33.8027 248.38 33.8923 248.272 33.9639C248.165 33.9997 248.093 34.1071 248.058 34.2861C248.237 34.7516 248.451 35.1634 248.702 35.5215C248.631 35.9154 248.631 36.2018 248.702 36.3809C248.774 36.5599 248.827 36.8285 248.863 37.1865C248.756 37.3656 248.631 37.5446 248.487 37.7236C248.344 37.8669 248.201 38.028 248.058 38.207C248.093 38.8158 248.076 39.3887 248.004 39.9258C247.968 40.4271 247.574 40.7135 246.822 40.7852C246.572 40.821 246.446 41 246.446 41.3223C246.196 41.2865 245.999 41.3223 245.855 41.4297C245.712 41.5371 245.551 41.5908 245.372 41.5908C245.229 41.376 245.104 41.2865 244.996 41.3223C244.889 41.3581 244.745 41.376 244.566 41.376C244.423 41.376 244.226 41.2327 243.976 40.9463C243.725 40.6598 243.456 40.4808 243.17 40.4092C243.277 40.1943 243.295 40.0332 243.224 39.9258C243.188 39.7826 243.134 39.6572 243.062 39.5498C243.027 39.4424 243.009 39.335 243.009 39.2275C243.009 39.1201 243.098 38.9948 243.277 38.8516C243.098 38.3503 243.045 37.849 243.116 37.3477C243.224 36.8105 243.188 36.2913 243.009 35.79C243.331 35.4678 243.456 35.056 243.385 34.5547C243.313 34.0534 243.277 33.6058 243.277 33.2119C243.277 33.0687 243.295 32.9434 243.331 32.8359C243.367 32.6927 243.385 32.5316 243.385 32.3525C243.385 32.0661 243.313 31.8333 243.17 31.6543C243.027 31.4395 242.919 31.2067 242.848 30.9561C242.919 30.2399 242.919 29.5596 242.848 28.915C242.812 28.2705 242.597 27.6439 242.203 27.0352C242.167 26.8561 242.167 26.7308 242.203 26.6592C242.275 26.5518 242.311 26.4085 242.311 26.2295C242.239 26.0863 242.185 25.943 242.149 25.7998C242.114 25.6208 242.006 25.4954 241.827 25.4238C241.97 24.9941 242.024 24.6361 241.988 24.3496C241.988 24.0632 241.935 23.8125 241.827 23.5977C241.756 23.347 241.666 23.1322 241.559 22.9531C241.451 22.7383 241.397 22.5234 241.397 22.3086C241.397 22.2012 241.415 22.0938 241.451 21.9863C241.523 21.8789 241.559 21.7715 241.559 21.6641C241.559 21.5208 241.505 21.3955 241.397 21.2881C241.29 21.1449 241.236 21.0195 241.236 20.9121C241.344 20.4108 241.344 20.0706 241.236 19.8916C241.165 19.7126 241.129 19.5335 241.129 19.3545C241.129 19.2113 241.129 19.0859 241.129 18.9785C241.165 18.8711 241.183 18.7637 241.183 18.6562C241.183 18.3698 241.057 18.1191 240.807 17.9043C240.592 17.6895 240.341 17.582 240.055 17.582C239.732 17.582 239.41 17.6357 239.088 17.7432C238.801 17.8506 238.497 17.9043 238.175 17.9043C237.674 17.9043 237.172 17.8864 236.671 17.8506C236.205 17.8148 235.722 17.8327 235.221 17.9043C235.006 17.9401 234.791 18.0117 234.576 18.1191C234.361 18.2266 234.146 18.2803 233.932 18.2803C233.717 18.2803 233.502 18.2266 233.287 18.1191C233.108 17.9759 232.911 17.9043 232.696 17.9043C232.517 17.4746 232.249 17.1344 231.891 16.8838C231.533 16.6331 231.192 16.3646 230.87 16.0781C230.727 15.6126 230.745 15.2725 230.924 15.0576C231.103 14.8428 231.264 14.5384 231.407 14.1445C231.622 14.0013 231.837 13.8581 232.052 13.7148C232.302 13.5716 232.499 13.3926 232.643 13.1777C232.857 13.2852 233.09 13.3568 233.341 13.3926C233.591 13.4284 233.824 13.5179 234.039 13.6611C234.218 13.6253 234.379 13.5716 234.522 13.5C234.701 13.4284 234.881 13.3926 235.06 13.3926C235.239 13.3926 235.4 13.4463 235.543 13.5537C235.686 13.6253 235.847 13.6611 236.026 13.6611C236.205 13.6611 236.384 13.6074 236.563 13.5C236.743 13.3926 236.922 13.3031 237.101 13.2314C237.28 13.4105 237.477 13.5 237.691 13.5C237.942 13.4642 238.175 13.4284 238.39 13.3926C238.64 13.3568 238.873 13.3389 239.088 13.3389C239.303 13.3031 239.482 13.3747 239.625 13.5537C239.804 13.4821 239.947 13.3926 240.055 13.2852C240.198 13.1777 240.341 13.0703 240.484 12.9629C240.878 13.0345 241.254 13.1777 241.612 13.3926C242.006 13.5716 242.418 13.6611 242.848 13.6611C242.991 13.6611 243.116 13.6432 243.224 13.6074C243.331 13.5358 243.456 13.5 243.6 13.5C243.814 13.5 244.029 13.5358 244.244 13.6074C244.459 13.6432 244.656 13.679 244.835 13.7148C245.05 13.7507 245.247 13.7507 245.426 13.7148C245.641 13.679 245.855 13.5716 246.07 13.3926C246.249 13.5 246.41 13.6074 246.554 13.7148C246.733 13.8223 246.912 13.9297 247.091 14.0371C247.7 13.9297 248.326 13.9118 248.971 13.9834C249.615 14.055 250.242 13.9476 250.851 13.6611C251.03 13.6969 251.191 13.7327 251.334 13.7686C251.477 13.7686 251.62 13.8223 251.764 13.9297C252.086 13.7148 252.426 13.6253 252.784 13.6611C253.142 13.6969 253.447 13.6074 253.697 13.3926C253.984 13.2493 254.181 13.1956 254.288 13.2314C254.396 13.2314 254.503 13.2314 254.61 13.2314C255.147 12.9808 255.523 12.8913 255.738 12.9629C255.989 12.9987 256.204 12.9271 256.383 12.748C256.705 12.8913 256.956 13.0345 257.135 13.1777C257.35 13.321 257.654 13.3926 258.048 13.3926C258.119 13.5716 258.245 13.8044 258.424 14.0908C258.603 14.3415 258.692 14.5563 258.692 14.7354C258.692 15.0218 258.603 15.2188 258.424 15.3262C258.245 15.3978 258.084 15.5231 257.94 15.7021Z" fill="#27383E"/>
</svg>
