<svg width="309" height="42" viewBox="0 0 309 42" fill="none" xmlns="http://www.w3.org/2000/svg">
<path d="M22.4561 33.8027C22.6709 34.0892 22.6351 34.304 22.3486 34.4473C22.3486 34.9128 22.3844 35.4857 22.4561 36.166C22.5635 36.8105 22.4919 37.3298 22.2412 37.7236C22.277 37.7952 22.3128 37.8848 22.3486 37.9922C22.3844 38.0996 22.4023 38.1891 22.4023 38.2607C22.4023 38.583 22.3486 38.8158 22.2412 38.959C22.1338 39.1022 22.0085 39.2275 21.8652 39.335C21.7578 39.4424 21.6325 39.5498 21.4893 39.6572C21.3818 39.7288 21.3281 39.8542 21.3281 40.0332C20.8626 39.9974 20.5583 40.0332 20.415 40.1406C20.2718 40.2122 20.057 40.4092 19.7705 40.7314C19.3766 40.7314 19.1081 40.6598 18.9648 40.5166C18.8216 40.3734 18.6068 40.2839 18.3203 40.248C18.1413 39.7467 17.9085 39.335 17.6221 39.0127C17.3714 38.6546 17.2461 38.2249 17.2461 37.7236C17.2461 37.5088 17.2819 37.3118 17.3535 37.1328C17.4251 36.918 17.4967 36.7031 17.5684 36.4883C17.64 36.1302 17.6221 35.8975 17.5146 35.79C17.4072 35.6826 17.3535 35.5036 17.3535 35.2529C17.3535 35.1455 17.3714 35.0381 17.4072 34.9307C17.4788 34.8232 17.4967 34.7158 17.4609 34.6084C17.5326 34.2503 17.6221 33.9818 17.7295 33.8027C17.8727 33.5879 17.9443 33.3372 17.9443 33.0508C17.9443 32.9434 17.9264 32.8359 17.8906 32.7285C17.8548 32.6211 17.8369 32.4958 17.8369 32.3525C17.8369 32.2093 17.8727 32.0661 17.9443 31.9229C18.0518 31.7438 18.1055 31.5648 18.1055 31.3857C18.1055 31.1709 18.0518 30.974 17.9443 30.7949C17.8727 30.6159 17.8369 30.4189 17.8369 30.2041C17.8369 30.0609 17.8548 29.9355 17.8906 29.8281C17.9264 29.6849 17.9443 29.5238 17.9443 29.3447C17.9443 28.9867 17.8727 28.6644 17.7295 28.3779C17.6221 28.0915 17.5505 27.7692 17.5146 27.4111C17.5146 27.3037 17.5146 27.1963 17.5146 27.0889C17.5505 26.9814 17.5326 26.874 17.4609 26.7666C17.3177 26.4443 17.2819 26.2116 17.3535 26.0684C17.3535 25.8893 17.2461 25.6924 17.0312 25.4775C16.8164 25.2269 16.7985 25.012 16.9775 24.833C16.8701 24.5107 16.8164 24.2959 16.8164 24.1885C16.8164 24.0452 16.8164 23.9378 16.8164 23.8662C16.8522 23.7588 16.888 23.6693 16.9238 23.5977C16.9954 23.526 17.0312 23.4007 17.0312 23.2217C17.0312 22.8278 16.9596 22.4518 16.8164 22.0938C16.6732 21.6999 16.6195 21.306 16.6553 20.9121C17.0492 20.196 17.1029 19.641 16.8164 19.2471C16.5299 18.8532 16.0465 18.513 15.3662 18.2266C15.4378 18.0475 15.4378 17.958 15.3662 17.958C15.3304 17.9222 15.2946 17.8327 15.2588 17.6895C15.0798 17.582 14.9723 17.5104 14.9365 17.4746C14.9007 17.403 14.7754 17.3672 14.5605 17.3672C14.5964 17.1165 14.5426 16.9196 14.3994 16.7764C14.2562 16.6331 14.0951 16.4899 13.916 16.3467C13.737 16.2035 13.5579 16.0781 13.3789 15.9707C13.1999 15.8275 13.0745 15.738 13.0029 15.7021C12.9313 15.5589 12.8418 15.4336 12.7344 15.3262C12.6628 15.2188 12.5911 15.0755 12.5195 14.8965C12.1615 14.7891 11.875 14.5921 11.6602 14.3057C11.4453 14.0192 11.1768 13.8044 10.8545 13.6611C10.7471 13.5537 10.6755 13.4463 10.6396 13.3389C10.6038 13.2314 10.5501 13.1061 10.4785 12.9629C10.1921 12.8913 9.99512 12.8018 9.8877 12.6943C9.78027 12.5869 9.56543 12.5332 9.24316 12.5332C9.27897 12.2826 9.26107 12.0677 9.18945 11.8887C8.97461 11.5306 8.65234 11.2799 8.22266 11.1367C7.82878 10.9577 7.48861 10.6891 7.20215 10.3311C7.02311 10.1162 6.87988 9.93717 6.77246 9.79395C6.70085 9.65072 6.53971 9.54329 6.28906 9.47168C6.28906 9.14941 6.21745 8.98828 6.07422 8.98828C5.9668 8.95247 5.87728 8.80924 5.80566 8.55859C5.59082 8.45117 5.37598 8.32585 5.16113 8.18262C4.9821 8.03939 4.85677 7.86035 4.78516 7.64551C4.21224 7.39486 3.76465 7.01888 3.44238 6.51758C3.08431 6.01628 2.61882 5.6582 2.0459 5.44336C1.86686 5.04948 1.63411 4.70931 1.34766 4.42285C1.02539 4.10059 0.77474 3.74251 0.595703 3.34863C0.810547 2.95475 0.882161 2.48926 0.810547 1.95215C0.989583 1.95215 1.13281 1.91634 1.24023 1.84473C1.31185 1.7373 1.40137 1.64779 1.50879 1.57617C1.5804 1.46875 1.70573 1.37923 1.88477 1.30762C2.02799 1.236 2.27865 1.2002 2.63672 1.2002C2.92318 1.2002 3.13802 1.12858 3.28125 0.985352C3.56771 1.2002 3.90788 1.32552 4.30176 1.36133C4.65983 1.36133 4.9821 1.50456 5.26855 1.79102C5.30436 1.97005 5.34017 2.13118 5.37598 2.27441C5.41178 2.38184 5.44759 2.52507 5.4834 2.7041C5.76986 2.81152 6.0026 2.95475 6.18164 3.13379C6.36068 3.31283 6.53971 3.50977 6.71875 3.72461C6.89779 3.90365 7.07682 4.08268 7.25586 4.26172C7.4707 4.44076 7.72135 4.56608 8.00781 4.6377C8.25846 5.03158 8.56283 5.35384 8.9209 5.60449C9.31478 5.81934 9.74447 5.99837 10.21 6.1416C10.3174 6.39225 10.4606 6.6071 10.6396 6.78613C10.8187 6.92936 10.944 7.14421 11.0156 7.43066C11.1947 7.50228 11.4632 7.57389 11.8213 7.64551C11.8929 7.78874 11.9466 7.93197 11.9824 8.0752C12.0182 8.18262 12.0719 8.30794 12.1436 8.45117C12.2868 8.48698 12.3942 8.54069 12.4658 8.6123C12.5374 8.68392 12.609 8.75553 12.6807 8.82715C12.7523 8.89876 12.8239 8.95247 12.8955 8.98828C13.0029 9.02409 13.1462 9.02409 13.3252 8.98828C13.361 9.13151 13.4147 9.23893 13.4863 9.31055C13.5938 9.38216 13.6296 9.48958 13.5938 9.63281C13.7728 9.66862 13.916 9.70443 14.0234 9.74023C14.1667 9.77604 14.3278 9.81185 14.5068 9.84766C14.5785 10.1699 14.7396 10.4564 14.9902 10.707C15.2767 10.9577 15.4557 11.2441 15.5273 11.5664C15.7064 11.638 15.8317 11.7096 15.9033 11.7812C16.0107 11.8529 16.154 11.8887 16.333 11.8887C16.3688 12.0677 16.4225 12.193 16.4941 12.2646C16.6016 12.3363 16.6732 12.4437 16.709 12.5869C17.0671 12.6585 17.3177 12.8555 17.4609 13.1777C17.64 13.4642 17.9264 13.6253 18.3203 13.6611C18.2845 14.055 18.3382 14.2878 18.4814 14.3594C18.6247 14.3952 18.7679 14.5384 18.9111 14.7891C19.0186 14.7174 19.1081 14.6637 19.1797 14.6279C19.2871 14.5921 19.3945 14.5384 19.502 14.4668C19.7168 14.3594 19.8958 14.2161 20.0391 14.0371C20.2181 13.8223 20.4329 13.6969 20.6836 13.6611C20.6836 13.5179 20.7015 13.4284 20.7373 13.3926C20.8089 13.3568 20.8268 13.2493 20.791 13.0703C21.1849 13.0703 21.3997 13.0166 21.4355 12.9092C21.4714 12.8018 21.6325 12.6943 21.9189 12.5869C22.0622 12.4079 22.1875 12.2646 22.2949 12.1572C22.4382 12.0498 22.5456 11.8708 22.6172 11.6201C22.832 11.5485 22.9574 11.4769 22.9932 11.4053C23.029 11.2979 23.1364 11.262 23.3154 11.2979L23.6377 10.8145C23.7093 10.7428 23.7988 10.707 23.9062 10.707C24.0137 10.707 24.1032 10.6712 24.1748 10.5996C24.5329 10.2415 24.8372 9.93717 25.0879 9.68652C25.3743 9.43587 25.5534 9.22103 25.625 9.04199C25.625 8.93457 25.6608 8.86296 25.7324 8.82715C25.804 8.79134 25.8936 8.73763 26.001 8.66602C26.1084 8.5944 26.2158 8.50488 26.3232 8.39746C26.4307 8.25423 26.5381 8.03939 26.6455 7.75293C26.8245 7.68132 27.0036 7.6276 27.1826 7.5918C27.3975 7.52018 27.5944 7.39486 27.7734 7.21582C28.1315 6.82194 28.4001 6.46387 28.5791 6.1416C28.7581 5.81934 28.973 5.60449 29.2236 5.49707C29.4743 5.38965 29.6175 5.30013 29.6533 5.22852C29.6891 5.12109 29.7786 4.95996 29.9219 4.74512C30.1009 4.53027 30.262 4.38704 30.4053 4.31543C30.5843 4.24382 30.7633 4.06478 30.9424 3.77832C31.0498 3.63509 31.193 3.52767 31.3721 3.45605C31.4437 3.38444 31.4616 3.29492 31.4258 3.1875C31.4258 3.04427 31.4974 2.90104 31.6406 2.75781C32.2493 2.72201 32.6611 2.38184 32.876 1.7373C33.1624 1.7015 33.3057 1.7373 33.3057 1.84473C33.3415 1.91634 33.4489 2.02376 33.6279 2.16699C33.9144 1.95215 34.2904 1.84473 34.7559 1.84473C35.2214 1.84473 35.6331 1.89844 35.9912 2.00586C35.9912 2.2207 36.0449 2.38184 36.1523 2.48926C36.2598 2.59668 36.3672 2.7041 36.4746 2.81152C36.582 2.91895 36.6715 3.04427 36.7432 3.1875C36.8148 3.33073 36.8327 3.52767 36.7969 3.77832C36.9401 3.92155 37.0654 4.04688 37.1729 4.1543C37.3161 4.22591 37.4235 4.35124 37.4951 4.53027C37.4235 4.78092 37.3698 4.95996 37.334 5.06738C37.2982 5.139 37.3161 5.31803 37.3877 5.60449C37.2803 5.78353 37.1549 5.89095 37.0117 5.92676C36.8685 5.92676 36.7074 5.96257 36.5283 6.03418C36.4567 6.28483 36.3135 6.42806 36.0986 6.46387C35.9196 6.49967 35.7943 6.66081 35.7227 6.94727C35.6152 6.98307 35.5257 7.00098 35.4541 7.00098C35.3825 6.96517 35.293 6.94727 35.1855 6.94727C34.9707 7.16211 34.7738 7.28743 34.5947 7.32324C34.4515 7.35905 34.2725 7.43066 34.0576 7.53809C33.8786 7.6097 33.7174 7.73503 33.5742 7.91406C33.4668 8.0931 33.431 8.37956 33.4668 8.77344C33.3236 8.84505 33.1982 8.91667 33.0908 8.98828C33.0192 9.0599 32.9297 9.0957 32.8223 9.0957C32.6432 9.16732 32.5 9.27474 32.3926 9.41797C32.321 9.52539 32.1598 9.59701 31.9092 9.63281C31.8018 9.81185 31.6943 9.97298 31.5869 10.1162C31.4795 10.2236 31.39 10.3669 31.3184 10.5459C30.8171 10.6175 30.4232 10.7607 30.1367 10.9756C29.8503 11.1904 29.6891 11.5485 29.6533 12.0498C29.2594 12.0856 28.9909 12.2109 28.8477 12.4258C28.7044 12.6406 28.4538 12.7839 28.0957 12.8555C28.0241 12.9629 27.9704 13.0703 27.9346 13.1777C27.9346 13.2852 27.8809 13.3926 27.7734 13.5C27.7376 13.6432 27.666 13.7148 27.5586 13.7148C27.487 13.679 27.3975 13.6969 27.29 13.7686C27.0394 14.0192 26.7708 14.1445 26.4844 14.1445C26.4128 14.5384 26.2337 14.8428 25.9473 15.0576C25.6966 15.2725 25.4818 15.541 25.3027 15.8633C24.9447 16.1139 24.7119 16.3109 24.6045 16.4541C24.5329 16.5615 24.4792 16.7048 24.4434 16.8838C24.0853 16.9912 23.8167 17.1882 23.6377 17.4746C23.4945 17.7611 23.2438 17.958 22.8857 18.0654C22.8141 18.3161 22.653 18.4951 22.4023 18.6025C22.1875 18.6742 21.9906 18.7995 21.8115 18.9785C21.8831 19.1934 21.8831 19.3724 21.8115 19.5156C21.7399 19.6589 21.6683 19.82 21.5967 19.999C21.7757 20.2855 21.8115 20.5719 21.7041 20.8584C21.5967 21.1449 21.543 21.4313 21.543 21.7178C21.543 21.8968 21.5072 22.0221 21.4355 22.0938C21.3639 22.1296 21.2565 22.1833 21.1133 22.2549C21.3281 22.5413 21.4535 22.8815 21.4893 23.2754C21.5609 23.6335 21.7041 23.9557 21.9189 24.2422C21.8831 24.4212 21.8473 24.7435 21.8115 25.209C21.8115 25.6745 21.8473 25.9609 21.9189 26.0684L22.0801 26.6055C22.0443 26.7487 22.0443 26.8919 22.0801 27.0352C22.1517 27.1426 22.2054 27.25 22.2412 27.3574C22.3128 27.6439 22.3307 27.9303 22.2949 28.2168C22.2591 28.4674 22.2412 28.736 22.2412 29.0225C22.2412 29.1657 22.2949 29.2552 22.4023 29.291C22.5098 29.3268 22.6172 29.3447 22.7246 29.3447C22.6888 29.5238 22.653 29.6312 22.6172 29.667C22.5814 29.7028 22.5098 29.7923 22.4023 29.9355C22.474 30.0072 22.5277 30.1146 22.5635 30.2578C22.5993 30.3652 22.653 30.4906 22.7246 30.6338C22.6888 30.8844 22.6709 31.1709 22.6709 31.4932C22.6709 31.7796 22.6172 32.0303 22.5098 32.2451C22.5814 32.3525 22.5993 32.4958 22.5635 32.6748C22.5635 32.8538 22.653 32.9434 22.832 32.9434C22.8678 33.3014 22.8141 33.4805 22.6709 33.4805C22.5635 33.4447 22.4919 33.5521 22.4561 33.8027ZM43.3848 39.7646C43.0625 39.8005 42.7581 39.7826 42.4717 39.7109C42.1852 39.6035 41.8809 39.5319 41.5586 39.4961C41.487 39.3529 41.3796 39.2096 41.2363 39.0664C41.0931 38.8874 40.932 38.762 40.7529 38.6904C40.18 38.4398 39.8398 38.1533 39.7324 37.8311C39.625 37.5088 39.3206 37.3118 38.8193 37.2402C38.8193 37.0254 38.7835 36.8822 38.7119 36.8105C38.6403 36.7031 38.5508 36.6136 38.4434 36.542C38.3717 36.4704 38.2822 36.4167 38.1748 36.3809C38.0674 36.3092 37.96 36.2018 37.8525 36.0586C37.7451 35.6647 37.6198 35.2708 37.4766 34.877C37.3333 34.4831 37.0648 34.1787 36.6709 33.9639C36.6709 33.57 36.653 33.3193 36.6172 33.2119C36.5814 33.0687 36.5277 32.9971 36.4561 32.9971C36.4202 32.9613 36.3665 32.9434 36.2949 32.9434C36.2591 32.9076 36.2054 32.8001 36.1338 32.6211C36.1696 32.2272 36.0801 31.9229 35.8652 31.708C35.6862 31.4574 35.5609 31.2783 35.4893 31.1709C35.4893 31.0277 35.4893 30.9023 35.4893 30.7949C35.5251 30.6517 35.5788 30.5085 35.6504 30.3652C35.4355 30.2936 35.2923 30.1862 35.2207 30.043C35.1849 29.8639 35.1491 29.6849 35.1133 29.5059C35.0775 29.3268 35.0417 29.1478 35.0059 28.9688C34.9701 28.7897 34.8626 28.6465 34.6836 28.5391C34.7552 28.0736 34.791 27.6081 34.791 27.1426C34.8268 26.6413 34.7015 26.1937 34.415 25.7998C34.7373 25.3701 34.8984 24.9046 34.8984 24.4033C34.9342 23.8662 35.0417 23.347 35.2207 22.8457C35.2207 22.6667 35.167 22.5055 35.0596 22.3623C34.988 22.1833 34.9163 22.0042 34.8447 21.8252C35.1312 21.7536 35.2565 21.5566 35.2207 21.2344C35.2207 20.9121 35.2207 20.6257 35.2207 20.375C35.3639 20.0885 35.5072 19.8379 35.6504 19.623C35.7936 19.4082 35.9189 19.2113 36.0264 19.0322C36.1338 18.8174 36.2233 18.6025 36.2949 18.3877C36.3665 18.137 36.4023 17.8327 36.4023 17.4746C36.6888 17.2956 36.9395 17.0807 37.1543 16.8301C37.3691 16.5794 37.584 16.3288 37.7988 16.0781C38.0137 15.7917 38.2285 15.541 38.4434 15.3262C38.6582 15.0755 38.9089 14.8607 39.1953 14.6816C39.3027 14.5026 39.4102 14.3773 39.5176 14.3057C39.6608 14.1982 39.7682 14.0192 39.8398 13.7686C40.1979 13.6611 40.5202 13.5 40.8066 13.2852C41.1289 13.0703 41.4333 12.8734 41.7197 12.6943C42.221 12.3721 42.776 12.1035 43.3848 11.8887C44.0293 11.638 44.6559 11.4769 45.2646 11.4053C45.3721 11.2979 45.4974 11.2083 45.6406 11.1367C45.7839 11.0651 45.9271 10.9756 46.0703 10.8682C46.2493 10.8324 46.4105 10.8324 46.5537 10.8682C46.7327 10.8682 46.876 10.8682 46.9834 10.8682C47.0908 10.8324 47.1982 10.7786 47.3057 10.707C47.4131 10.6354 47.5026 10.4743 47.5742 10.2236L47.8965 10.8682C48.1471 10.904 48.3441 10.9398 48.4873 10.9756C48.6305 10.9756 48.7917 10.8503 48.9707 10.5996C49.4004 10.707 49.8301 10.7786 50.2598 10.8145C50.6895 10.8503 51.1191 10.904 51.5488 10.9756C51.9069 11.2979 52.1038 11.5127 52.1396 11.6201C52.2113 11.6917 52.2829 11.7992 52.3545 11.9424C52.641 11.9782 52.8737 12.0856 53.0527 12.2646C53.2318 12.4079 53.4824 12.4795 53.8047 12.4795C53.9121 12.766 54.0732 12.945 54.2881 13.0166C54.5387 13.0524 54.6999 13.2135 54.7715 13.5C55.0221 13.5358 55.2728 13.6253 55.5234 13.7686C55.7383 14.1982 56.0247 14.5384 56.3828 14.7891C56.7767 15.0397 57.0632 15.3978 57.2422 15.8633C57.457 15.9707 57.6182 16.1139 57.7256 16.293C57.8688 16.4362 57.9941 16.5973 58.1016 16.7764C58.2448 16.9196 58.3701 17.0807 58.4775 17.2598C58.6208 17.403 58.7998 17.5104 59.0146 17.582C59.0146 17.7611 58.9788 17.9043 58.9072 18.0117C58.8356 18.0833 58.8177 18.1729 58.8535 18.2803C59.0684 18.3519 59.1937 18.4772 59.2295 18.6562C59.3011 18.8353 59.3548 19.0143 59.3906 19.1934C59.4622 19.3724 59.5339 19.5514 59.6055 19.7305C59.7129 19.8737 59.8919 19.9632 60.1426 19.999C60.1426 20.3213 60.1605 20.5719 60.1963 20.751C60.2321 20.8942 60.3037 21.109 60.4111 21.3955C60.5902 21.7536 60.6797 22.1117 60.6797 22.4697C60.7155 22.792 60.7692 23.1501 60.8408 23.5439C60.8408 23.6514 60.8766 23.7409 60.9482 23.8125C61.0557 23.8841 61.1452 23.9557 61.2168 24.0273C61.1452 24.3138 61.1452 24.6003 61.2168 24.8867C61.2884 25.1732 61.3242 25.4596 61.3242 25.7461C61.3242 25.9251 61.2705 26.0505 61.1631 26.1221C61.0557 26.1579 61.002 26.2116 61.002 26.2832C61.0378 26.3548 61.1273 26.4443 61.2705 26.5518C61.4495 26.6234 61.5749 26.695 61.6465 26.7666C61.3958 26.8382 61.2347 26.9814 61.1631 27.1963C61.1273 27.3753 61.1094 27.5902 61.1094 27.8408C61.1094 28.0557 61.1094 28.2884 61.1094 28.5391C61.1452 28.7897 61.1452 29.0046 61.1094 29.1836C61.0736 29.3268 61.0199 29.4342 60.9482 29.5059C60.8766 29.5775 60.8408 29.6849 60.8408 29.8281C60.9124 30.222 60.9124 30.4548 60.8408 30.5264C60.7692 30.598 60.7155 30.6875 60.6797 30.7949C60.6439 30.974 60.626 31.1351 60.626 31.2783C60.6618 31.4215 60.6797 31.5827 60.6797 31.7617C60.6797 32.0482 60.6081 32.2809 60.4648 32.46C60.3574 32.639 60.2142 32.8359 60.0352 33.0508C59.9993 33.2298 60.0173 33.3551 60.0889 33.4268C60.1963 33.4984 60.2142 33.6237 60.1426 33.8027C59.8561 34.2682 59.5876 34.7337 59.3369 35.1992C59.0863 35.6289 58.8356 36.0944 58.585 36.5957C58.4059 36.8822 58.1911 37.097 57.9404 37.2402C57.7256 37.3835 57.5465 37.652 57.4033 38.0459C57.0452 38.1175 56.6693 38.2786 56.2754 38.5293C55.9173 38.7441 55.5592 38.9769 55.2012 39.2275C54.8789 39.4782 54.5924 39.7109 54.3418 39.9258C54.0911 40.1406 53.9479 40.248 53.9121 40.248C53.6615 40.2839 53.4824 40.3555 53.375 40.4629C53.2676 40.5345 53.0706 40.5703 52.7842 40.5703C52.6051 40.5345 52.4798 40.624 52.4082 40.8389C52.3366 41.0537 52.1396 41.1969 51.8174 41.2686C51.3519 41.4476 51.0475 41.5371 50.9043 41.5371C50.7611 41.5371 50.5999 41.4297 50.4209 41.2148C50.1702 41.2148 49.9375 41.2507 49.7227 41.3223C49.5078 41.4297 49.2751 41.4834 49.0244 41.4834C48.8096 41.4834 48.5947 41.4297 48.3799 41.3223C48.165 41.2507 47.9502 41.2148 47.7354 41.2148C47.5563 41.179 47.3952 41.1611 47.252 41.1611C47.1087 41.1969 46.9476 41.2148 46.7686 41.2148C46.5895 41.2148 46.3568 41.1611 46.0703 41.0537C45.7839 40.9821 45.5511 40.9105 45.3721 40.8389C44.9782 40.624 44.6738 40.445 44.459 40.3018C44.2441 40.1227 43.9756 40.0332 43.6533 40.0332L43.3848 39.7646ZM56.4902 21.2881C56.168 21.1449 55.9531 20.9837 55.8457 20.8047C55.7741 20.5898 55.6846 20.3571 55.5771 20.1064C55.5055 19.8558 55.4339 19.623 55.3623 19.4082C55.3265 19.1934 55.3086 19.0322 55.3086 18.9248C55.1654 18.71 55.0042 18.5488 54.8252 18.4414C54.6462 18.334 54.4671 18.2266 54.2881 18.1191C54.1449 17.9759 54.0016 17.8327 53.8584 17.6895C53.7152 17.5462 53.6257 17.3314 53.5898 17.0449C53.3034 16.9733 53.0527 16.848 52.8379 16.6689C52.6589 16.4899 52.4261 16.3646 52.1396 16.293C52.1396 16.1139 52.1038 16.0244 52.0322 16.0244C51.9606 15.9886 51.9069 15.8991 51.8711 15.7559C51.3698 15.6842 50.958 15.5589 50.6357 15.3799C50.3493 15.2008 50.0091 15.0218 49.6152 14.8428C49.4362 15.0218 49.2751 15.0934 49.1318 15.0576C49.0244 14.986 48.8812 14.9502 48.7021 14.9502C48.5589 14.9502 48.4157 15.0218 48.2725 15.165C48.1292 15.3083 47.9681 15.4157 47.7891 15.4873C47.6816 15.3083 47.5205 15.2188 47.3057 15.2188C47.0908 15.1829 46.8939 15.1292 46.7148 15.0576C46.5716 15.165 46.3747 15.2725 46.124 15.3799C45.9092 15.4515 45.7122 15.5231 45.5332 15.5947C44.8529 15.8812 44.2262 16.3646 43.6533 17.0449C43.2236 17.403 42.8477 17.6895 42.5254 17.9043C42.2389 18.0833 41.9167 18.2445 41.5586 18.3877C41.5228 18.71 41.4154 18.9964 41.2363 19.2471C41.0573 19.4977 40.9499 19.7842 40.9141 20.1064C40.5202 20.2497 40.2158 20.5719 40.001 21.0732C39.7861 21.5745 39.6429 22.0042 39.5713 22.3623C39.7861 22.6846 39.9294 23.0426 40.001 23.4365C40.0726 23.8304 40.1979 24.2064 40.377 24.5645C40.1979 24.7435 40.0368 24.9046 39.8936 25.0479C39.7503 25.1911 39.625 25.3701 39.5176 25.585C39.1953 25.6924 39.0342 25.9609 39.0342 26.3906C39.07 26.7845 39.1595 27.2321 39.3027 27.7334C39.446 28.1989 39.6071 28.6465 39.7861 29.0762C40.001 29.5059 40.1621 29.7744 40.2695 29.8818C40.1979 29.9893 40.1263 30.0967 40.0547 30.2041C39.9831 30.3115 39.9652 30.4189 40.001 30.5264C40.3949 30.9561 40.6455 31.529 40.7529 32.2451C40.8962 32.3883 41.0394 32.5137 41.1826 32.6211C41.3258 32.6927 41.4512 32.7822 41.5586 32.8896C41.7018 32.9613 41.7913 33.0687 41.8271 33.2119C41.8988 33.3551 41.9346 33.57 41.9346 33.8564C42.1136 33.8564 42.2389 33.8923 42.3105 33.9639C42.418 34.0355 42.5075 34.125 42.5791 34.2324C42.6507 34.304 42.7223 34.3936 42.7939 34.501C42.8656 34.5726 42.9909 34.6084 43.1699 34.6084L43.6533 35.1455C43.8324 35.2529 43.9935 35.3066 44.1367 35.3066C44.2799 35.2708 44.3874 35.3962 44.459 35.6826C45.0319 35.8258 45.5869 36.0049 46.124 36.2197C46.6611 36.4346 47.1982 36.6494 47.7354 36.8643C48.0218 36.7568 48.3083 36.721 48.5947 36.7568C48.8812 36.7926 49.1676 36.7747 49.4541 36.7031C49.6331 36.7031 49.7585 36.6494 49.8301 36.542C49.9375 36.3988 50.0807 36.3271 50.2598 36.3271C50.3672 36.3271 50.4388 36.3988 50.4746 36.542C50.5462 36.6494 50.7074 36.6673 50.958 36.5957C51.0296 36.4167 51.137 36.3451 51.2803 36.3809C51.4593 36.4167 51.6025 36.3988 51.71 36.3271C51.9248 36.2197 52.068 36.0586 52.1396 35.8438C52.2471 35.6289 52.4619 35.5215 52.7842 35.5215C53.1064 35.0202 53.5003 34.5905 53.9658 34.2324C54.4313 33.8385 54.8252 33.391 55.1475 32.8896H55.6846C55.792 32.3883 55.9352 31.8691 56.1143 31.332C56.3291 30.7591 56.4007 30.222 56.3291 29.7207C56.5081 29.112 56.6335 28.5391 56.7051 28.002C56.8125 27.4648 56.8662 26.9456 56.8662 26.4443C56.8662 26.2653 56.8125 26.1042 56.7051 25.9609C56.6335 25.7819 56.5977 25.6029 56.5977 25.4238C56.5977 25.2448 56.6156 25.0658 56.6514 24.8867C56.723 24.7077 56.7588 24.5286 56.7588 24.3496C56.7588 23.8483 56.723 23.347 56.6514 22.8457C56.6156 22.3086 56.5618 21.7894 56.4902 21.2881ZM75.8076 35.4678C76.1299 35.2887 76.4342 35.1634 76.7207 35.0918C77.0072 35.0202 77.3294 35.0918 77.6875 35.3066C77.8665 35.1634 77.9919 35.056 78.0635 34.9844C78.1351 34.877 78.2604 34.7874 78.4395 34.7158C78.6185 34.7516 78.8154 34.7874 79.0303 34.8232C79.2451 34.8232 79.46 34.8232 79.6748 34.8232C79.9613 34.8232 80.2477 34.7516 80.5342 34.6084C80.8206 34.4652 81.125 34.4831 81.4473 34.6621C81.9128 34.3757 82.4499 34.125 83.0586 33.9102C83.6673 33.6595 84.1149 33.3014 84.4014 32.8359C84.473 32.1198 84.5983 31.4036 84.7773 30.6875C84.9564 29.9355 84.9027 29.2015 84.6162 28.4854C84.9385 27.8766 85.0638 27.3216 84.9922 26.8203C84.9206 26.2832 84.8848 25.7103 84.8848 25.1016C84.8848 24.8509 84.9027 24.6182 84.9385 24.4033C85.0101 24.1527 85.0459 23.902 85.0459 23.6514C85.0459 23.1501 84.9564 22.6846 84.7773 22.2549C84.5983 21.8252 84.5088 21.3597 84.5088 20.8584C84.5088 20.7152 84.5267 20.5898 84.5625 20.4824C84.5983 20.375 84.6341 20.2497 84.6699 20.1064C84.6699 20.0706 84.6162 19.999 84.5088 19.8916C84.4372 19.7484 84.4014 19.6051 84.4014 19.4619C84.4014 19.3187 84.4193 19.2113 84.4551 19.1396C84.4909 19.0322 84.5088 18.9069 84.5088 18.7637C84.5446 18.5846 84.5267 18.4235 84.4551 18.2803C84.4193 18.1012 84.4014 17.9222 84.4014 17.7432C84.4014 17.4209 84.473 17.1165 84.6162 16.8301C84.7594 16.5078 84.8132 16.2035 84.7773 15.917C84.7773 15.738 84.7773 15.5947 84.7773 15.4873C84.7773 15.3441 84.8132 15.1829 84.8848 15.0039C84.7057 14.61 84.5625 14.3594 84.4551 14.252C84.3835 14.1445 84.3656 13.8402 84.4014 13.3389C84.6878 13.2673 84.9027 13.2314 85.0459 13.2314C85.3324 13.0524 85.583 12.9271 85.7979 12.8555C86.1917 12.6048 86.4424 12.4974 86.5498 12.5332C86.6572 12.5332 86.7467 12.5332 86.8184 12.5332C86.9258 12.4974 87.0153 12.4437 87.0869 12.3721C87.1943 12.2646 87.3555 12.0677 87.5703 11.7812C87.6061 11.9603 87.624 12.1214 87.624 12.2646C87.6598 12.4079 87.7135 12.5511 87.7852 12.6943C87.9284 12.766 88.0358 12.8376 88.1074 12.9092C88.2148 12.9808 88.3044 13.1061 88.376 13.2852C88.6266 13.3926 88.8415 13.6611 89.0205 14.0908C89.1995 14.5205 89.3428 15.0039 89.4502 15.541C89.5576 16.0781 89.6292 16.6152 89.665 17.1523C89.7008 17.6536 89.7188 18.0296 89.7188 18.2803C89.7188 18.5667 89.6471 18.8353 89.5039 19.0859C89.3607 19.3366 89.2891 19.6051 89.2891 19.8916C89.4323 20.0348 89.486 20.1602 89.4502 20.2676C89.4144 20.3392 89.3607 20.4466 89.2891 20.5898C89.4681 20.9121 89.5576 21.2165 89.5576 21.5029C89.5576 21.7894 89.5397 22.0758 89.5039 22.3623C89.5039 22.6488 89.5039 22.9531 89.5039 23.2754C89.5397 23.5618 89.665 23.8841 89.8799 24.2422C89.7367 24.4212 89.665 24.6361 89.665 24.8867C89.665 25.0299 89.665 25.1553 89.665 25.2627C89.7008 25.3701 89.7188 25.4954 89.7188 25.6387C89.7188 25.9251 89.6829 26.1937 89.6113 26.4443C89.5755 26.695 89.5576 26.9635 89.5576 27.25C89.5576 27.5007 89.6113 27.7334 89.7188 27.9482C89.8262 28.1631 89.9157 28.3779 89.9873 28.5928C89.9157 28.8792 89.8262 29.0941 89.7188 29.2373C89.6113 29.3805 89.5218 29.5417 89.4502 29.7207C89.307 30.1146 89.2354 30.5264 89.2354 30.9561C89.2354 31.3499 89.2354 31.7617 89.2354 32.1914C89.2354 32.6211 89.1995 33.0508 89.1279 33.4805C89.0921 33.8743 88.9668 34.2503 88.752 34.6084C88.5729 34.8949 88.4118 35.1276 88.2686 35.3066C88.1611 35.4857 88.1253 35.7721 88.1611 36.166C87.266 36.7747 86.4961 37.5804 85.8516 38.583C85.3503 38.6546 84.9027 38.7979 84.5088 39.0127C84.1149 39.2275 83.6852 39.4245 83.2197 39.6035C82.8975 39.7467 82.5573 39.8542 82.1992 39.9258C81.877 39.9616 81.5547 40.0511 81.2324 40.1943C81.0534 39.9795 80.8923 39.9079 80.749 39.9795C80.6058 40.0153 80.391 40.0332 80.1045 40.0332C79.9255 39.9616 79.7822 39.9616 79.6748 40.0332C79.6032 40.069 79.4958 40.1227 79.3525 40.1943C79.2451 40.2301 79.084 40.2839 78.8691 40.3555C78.6901 40.3913 78.4215 40.4092 78.0635 40.4092C77.9561 40.4092 77.8665 40.4629 77.7949 40.5703C77.7233 40.6419 77.6517 40.7135 77.5801 40.7852L77.043 40.4629C76.6849 40.6419 76.3268 40.7493 75.9688 40.7852C75.6465 40.7852 75.3063 40.7673 74.9482 40.7314C74.626 40.6598 74.2858 40.6061 73.9277 40.5703C73.6055 40.4987 73.2653 40.4987 72.9072 40.5703C72.4775 40.4271 72.1911 40.2839 72.0479 40.1406C71.9046 39.9616 71.6003 39.89 71.1348 39.9258C71.0273 39.8184 70.8662 39.6751 70.6514 39.4961C70.4723 39.3171 70.2575 39.138 70.0068 38.959C69.7562 38.7441 69.5234 38.5651 69.3086 38.4219C69.0938 38.2428 68.9147 38.1175 68.7715 38.0459C68.2702 37.7594 67.8942 37.3835 67.6436 36.918C67.3929 36.4167 67.1423 35.9154 66.8916 35.4141C66.5693 34.9486 66.4082 34.501 66.4082 34.0713C66.444 33.6058 66.3724 33.1761 66.1934 32.7822C66.1576 32.6748 66.1217 32.5674 66.0859 32.46C66.0501 32.3525 66.0322 32.2451 66.0322 32.1377C66.0322 31.9587 66.0501 31.7975 66.0859 31.6543C66.1576 31.4753 66.1934 31.2962 66.1934 31.1172C66.1934 31.0456 66.1396 30.9382 66.0322 30.7949C65.9606 30.6159 65.9248 30.4368 65.9248 30.2578C65.9248 30.1504 65.9427 30.0609 65.9785 29.9893C66.0143 29.8818 66.0501 29.7923 66.0859 29.7207C66.0859 29.5417 65.9964 29.3268 65.8174 29.0762C65.6383 28.7897 65.5488 28.5033 65.5488 28.2168C65.5488 28.0378 65.5667 27.8766 65.6025 27.7334C65.6383 27.5902 65.6562 27.429 65.6562 27.25C65.6921 27.071 65.6562 26.874 65.5488 26.6592C65.4772 26.4443 65.4414 26.2116 65.4414 25.9609C65.4414 25.8177 65.4772 25.6029 65.5488 25.3164C65.4414 25.1732 65.3877 24.9941 65.3877 24.7793C65.4951 24.457 65.513 24.2064 65.4414 24.0273C65.3698 23.8483 65.2982 23.6693 65.2266 23.4902C65.1908 23.3112 65.1729 23.1143 65.1729 22.8994C65.1729 22.6846 65.2445 22.4339 65.3877 22.1475C65.2087 21.682 65.1729 21.2523 65.2803 20.8584C65.3877 20.4645 65.4414 20.0348 65.4414 19.5693C65.4414 19.4261 65.4056 19.3008 65.334 19.1934C65.2982 19.0859 65.2803 18.9606 65.2803 18.8174C65.2803 18.4235 65.3161 18.0475 65.3877 17.6895C65.4593 17.3314 65.513 16.9554 65.5488 16.5615C65.5846 16.3825 65.6025 16.2035 65.6025 16.0244C65.6025 15.8096 65.6025 15.6126 65.6025 15.4336C65.6383 14.7533 65.7816 14.0729 66.0322 13.3926C66.3187 12.7122 66.8737 12.3721 67.6973 12.3721C67.9121 12.3721 68.1628 12.4079 68.4492 12.4795C68.5924 12.6585 68.7178 12.766 68.8252 12.8018C68.9684 12.8376 69.0938 12.9092 69.2012 13.0166C69.4876 13.3031 69.6667 13.6074 69.7383 13.9297C69.8099 14.2161 69.8815 14.5384 69.9531 14.8965C69.9889 15.0039 70.0247 15.1113 70.0605 15.2188C70.0964 15.2904 70.1143 15.3799 70.1143 15.4873C70.1143 15.8096 70.0426 16.1139 69.8994 16.4004C69.7562 16.6868 69.6846 16.9733 69.6846 17.2598C69.6846 17.5462 69.7025 17.8148 69.7383 18.0654C69.8099 18.2803 69.8457 18.5309 69.8457 18.8174C69.8457 19.3187 69.8099 19.8021 69.7383 20.2676C69.7025 20.7331 69.6846 21.2165 69.6846 21.7178C69.6846 22.0042 69.7383 22.2549 69.8457 22.4697C69.9531 22.6488 69.9889 22.8815 69.9531 23.168C69.9889 23.4186 69.971 23.6156 69.8994 23.7588C69.8636 23.902 69.8457 24.0632 69.8457 24.2422C69.8099 24.4212 69.8278 24.654 69.8994 24.9404C70.0068 25.1911 70.0605 25.5133 70.0605 25.9072C70.1322 26.0146 70.1859 26.1042 70.2217 26.1758C70.2933 26.2474 70.3291 26.3727 70.3291 26.5518C70.3291 26.695 70.3112 26.8382 70.2754 26.9814C70.2396 27.0889 70.2217 27.2142 70.2217 27.3574C70.1859 27.9661 70.2396 28.5749 70.3828 29.1836C70.526 29.7565 70.5977 30.3473 70.5977 30.9561C70.5977 31.1351 70.7051 31.3499 70.9199 31.6006C71.1706 31.8154 71.2064 32.1198 71.0273 32.5137C71.3496 32.6211 71.5107 32.8001 71.5107 33.0508C71.5107 33.3014 71.6003 33.4626 71.7793 33.5342C72.2806 34.1071 72.6029 34.4831 72.7461 34.6621C72.8893 34.8411 73.0326 35.0023 73.1758 35.1455C73.3548 35.2529 73.5697 35.3424 73.8203 35.4141C74.1068 35.4499 74.5365 35.4678 75.1094 35.4678C75.2526 35.3962 75.36 35.3604 75.4316 35.3604C75.5391 35.3245 75.6644 35.3604 75.8076 35.4678ZM125.364 38.2607C125.221 38.762 125.203 39.2992 125.311 39.8721C125.132 40.1585 124.881 40.4092 124.559 40.624C124.272 40.8389 123.986 41.0358 123.699 41.2148C123.341 41.179 122.983 41.1074 122.625 41C122.303 40.8568 121.963 40.7493 121.604 40.6777C121.497 40.4271 121.336 40.2301 121.121 40.0869C120.942 39.9437 120.799 39.7646 120.691 39.5498C120.584 39.3708 120.512 39.1201 120.477 38.7979C120.477 38.4756 120.459 38.1533 120.423 37.8311C120.387 37.5088 120.315 37.2223 120.208 36.9717C120.136 36.721 119.993 36.5599 119.778 36.4883C119.814 36.1302 119.635 35.7005 119.241 35.1992C118.847 34.6979 118.561 34.2682 118.382 33.9102C118.095 33.7311 117.845 33.5163 117.63 33.2656C117.415 32.9792 117.218 32.6927 117.039 32.4062C116.681 32.4779 116.448 32.4242 116.341 32.2451C116.269 32.0661 116.108 32.0124 115.857 32.084C115.857 31.9766 115.822 31.887 115.75 31.8154C115.714 31.708 115.678 31.6185 115.643 31.5469C115.32 31.2604 114.98 31.0098 114.622 30.7949C114.3 30.5801 113.995 30.3294 113.709 30.043C113.53 30.043 113.351 30.0788 113.172 30.1504C113.029 30.1862 112.903 30.0967 112.796 29.8818C112.617 29.8818 112.456 29.9355 112.312 30.043C112.205 30.1146 112.098 30.1504 111.99 30.1504C111.883 30.1504 111.775 30.1325 111.668 30.0967C111.596 30.0609 111.507 30.043 111.399 30.043C111.006 30.043 110.594 30.0609 110.164 30.0967C109.77 30.0967 109.376 30.1683 108.982 30.3115C108.911 30.2399 108.821 30.1504 108.714 30.043C108.606 29.9355 108.517 29.8818 108.445 29.8818C108.374 29.8818 108.141 29.9893 107.747 30.2041C107.389 30.3831 107.067 30.4906 106.78 30.5264C106.279 30.598 105.688 30.6517 105.008 30.6875C104.327 30.7233 103.808 30.974 103.45 31.4395C103.271 31.3678 103.074 31.3499 102.859 31.3857C102.645 31.3857 102.519 31.5111 102.483 31.7617C102.269 31.7259 102.107 31.6901 102 31.6543C101.928 31.5827 101.785 31.5827 101.57 31.6543C101.391 32.0124 101.391 32.3346 101.57 32.6211C101.749 32.9076 101.875 33.2119 101.946 33.5342C101.982 33.8206 102 34.2503 102 34.8232C102 35.3962 102.143 35.7721 102.43 35.9512C102.322 36.2018 102.251 36.4525 102.215 36.7031C102.179 36.9538 102.161 37.2223 102.161 37.5088C102.161 37.6162 102.179 37.7236 102.215 37.8311C102.286 37.9027 102.322 38.0101 102.322 38.1533C102.322 38.3324 102.269 38.4935 102.161 38.6367C102.09 38.7441 102.072 38.8874 102.107 39.0664C101.857 39.138 101.714 39.2992 101.678 39.5498C101.642 39.7646 101.624 39.9616 101.624 40.1406C101.338 40.1406 101.087 40.1943 100.872 40.3018C100.693 40.3734 100.496 40.4629 100.281 40.5703C100.102 40.6777 99.9053 40.7493 99.6904 40.7852C99.4756 40.821 99.2249 40.7852 98.9385 40.6777C98.6162 40.2122 98.1865 39.7826 97.6494 39.3887C97.6852 39.2454 97.6673 39.1022 97.5957 38.959C97.5599 38.7799 97.4525 38.6904 97.2734 38.6904C97.3092 38.2965 97.2734 38.0101 97.166 37.8311C97.0586 37.652 96.9154 37.4014 96.7363 37.0791C96.7363 36.8643 96.79 36.6673 96.8975 36.4883C97.0049 36.2734 97.0944 36.0765 97.166 35.8975C97.0944 35.5394 97.0407 35.1634 97.0049 34.7695C96.9691 34.3757 96.8438 34.0355 96.6289 33.749C96.6289 33.6058 96.6468 33.4984 96.6826 33.4268C96.7184 33.3193 96.7363 33.2119 96.7363 33.1045C96.7363 32.8538 96.6826 32.5853 96.5752 32.2988C96.4678 32.0124 96.3783 31.7259 96.3066 31.4395C96.235 31.153 96.1813 30.8844 96.1455 30.6338C96.1455 30.3831 96.235 30.1862 96.4141 30.043C96.1276 29.7565 95.9665 29.5059 95.9307 29.291C95.9307 29.0404 95.8949 28.736 95.8232 28.3779C95.7516 28.1989 95.68 28.0557 95.6084 27.9482C95.5368 27.805 95.4652 27.6439 95.3936 27.4648C95.3219 27.1068 95.304 26.7487 95.3398 26.3906C95.4115 25.9967 95.3577 25.6208 95.1787 25.2627C95.1429 25.1911 95.1071 25.1195 95.0713 25.0479C95.0355 24.9404 95.0176 24.833 95.0176 24.7256C95.0176 24.5465 95.0355 24.3854 95.0713 24.2422C95.1071 24.099 95.125 23.9378 95.125 23.7588C95.125 23.0068 95.1071 22.2549 95.0713 21.5029C95.0355 20.751 95.0176 19.999 95.0176 19.2471C95.0176 19.1038 95.0176 18.9785 95.0176 18.8711C95.0534 18.7637 95.0713 18.6562 95.0713 18.5488C95.0713 18.3698 95.0176 18.1908 94.9102 18.0117C95.0534 17.6178 95.0534 17.2419 94.9102 16.8838C94.7669 16.4899 94.5879 16.1139 94.373 15.7559C94.4447 15.5768 94.4626 15.3799 94.4268 15.165C94.4268 14.9502 94.4268 14.7533 94.4268 14.5742C94.4268 14.1803 94.5163 13.9297 94.6953 13.8223C94.9102 13.7148 95.0176 13.5179 95.0176 13.2314C95.4473 13.1956 95.7874 12.9271 96.0381 12.4258C96.2887 12.4258 96.4857 12.3721 96.6289 12.2646C96.8079 12.1214 97.0049 12.014 97.2197 11.9424C97.4346 12.1572 97.7031 12.2646 98.0254 12.2646C98.276 12.2646 98.5088 12.2288 98.7236 12.1572C98.9385 12.0498 99.1712 11.9782 99.4219 11.9424C99.7441 11.8708 100.066 11.8529 100.389 11.8887C100.711 11.9245 101.051 11.9424 101.409 11.9424C101.588 11.9424 101.749 11.9245 101.893 11.8887C102.072 11.8171 102.251 11.7812 102.43 11.7812C102.537 11.7812 102.645 11.8171 102.752 11.8887C102.859 11.9245 102.985 11.9424 103.128 11.9424C103.629 11.9424 104.113 11.8708 104.578 11.7275C105.079 11.5843 105.563 11.6559 106.028 11.9424C106.315 11.8708 106.53 11.8171 106.673 11.7812C106.852 11.7096 107.085 11.7633 107.371 11.9424C107.55 11.8708 107.711 11.835 107.854 11.835C107.998 11.7992 108.159 11.7454 108.338 11.6738C108.589 11.6738 108.821 11.7275 109.036 11.835C109.251 11.9066 109.484 11.9424 109.734 11.9424C109.913 11.9424 110.075 11.9245 110.218 11.8887C110.361 11.8171 110.522 11.7812 110.701 11.7812C111.095 11.7812 111.453 11.8529 111.775 11.9961C112.133 12.1393 112.527 12.1572 112.957 12.0498C113.243 12.2646 113.584 12.5153 113.978 12.8018C114.407 13.0524 114.801 12.9987 115.159 12.6406C115.267 12.7122 115.356 12.7839 115.428 12.8555C115.535 12.9271 115.607 13.0524 115.643 13.2314C115.893 13.3031 116.054 13.3031 116.126 13.2314C116.233 13.1598 116.377 13.124 116.556 13.124C116.735 13.3031 116.86 13.3926 116.932 13.3926C117.003 13.3926 117.164 13.3926 117.415 13.3926C117.737 13.5716 117.934 13.6611 118.006 13.6611C118.113 13.8402 118.239 13.9476 118.382 13.9834C118.561 14.0192 118.668 14.1266 118.704 14.3057C119.313 14.3773 119.778 14.5563 120.101 14.8428C120.459 15.1292 120.745 15.541 120.96 16.0781C121.032 16.2572 121.246 16.3467 121.604 16.3467C121.569 16.9196 121.658 17.3135 121.873 17.5283C122.124 17.7074 122.482 17.9043 122.947 18.1191C122.911 18.4056 122.876 18.6921 122.84 18.9785C122.84 19.2292 122.84 19.4977 122.84 19.7842C122.911 20.3571 122.84 20.7689 122.625 21.0195C122.41 21.2344 122.339 21.5566 122.41 21.9863C122.303 22.0221 122.124 22.04 121.873 22.04C121.873 22.2907 121.927 22.4876 122.034 22.6309C121.461 22.8457 121.014 23.2038 120.691 23.7051C120.369 24.2064 119.975 24.6003 119.51 24.8867V25.4238C119.438 25.4954 119.349 25.5312 119.241 25.5312C119.134 25.4954 119.044 25.4775 118.973 25.4775C118.973 25.6924 118.919 25.8893 118.812 26.0684C118.704 26.2474 118.65 26.4264 118.65 26.6055C118.4 26.7487 118.149 26.8382 117.898 26.874C117.934 27.0889 118.006 27.3216 118.113 27.5723C118.257 27.7871 118.453 27.9303 118.704 28.002C118.776 28.0736 118.829 28.1631 118.865 28.2705C118.901 28.3779 118.955 28.4674 119.026 28.5391C119.098 28.6107 119.17 28.6644 119.241 28.7002C119.349 28.7002 119.438 28.736 119.51 28.8076C119.689 28.9508 119.814 29.112 119.886 29.291C119.993 29.4701 120.136 29.6133 120.315 29.7207C120.638 29.9714 120.978 30.1862 121.336 30.3652C121.694 30.5085 122.016 30.777 122.303 31.1709C122.446 31.6006 122.625 31.9408 122.84 32.1914C123.055 32.4062 123.287 32.6569 123.538 32.9434C123.789 33.194 124.039 33.4447 124.29 33.6953C124.541 33.9102 124.72 34.0534 124.827 34.125C124.827 34.3398 124.809 34.4831 124.773 34.5547C124.773 34.5905 124.881 34.68 125.096 34.8232C125.132 35.0381 125.132 35.3245 125.096 35.6826C125.096 36.0049 125.078 36.3451 125.042 36.7031C125.042 37.0612 125.06 37.3835 125.096 37.6699C125.132 37.9564 125.221 38.1533 125.364 38.2607ZM117.039 18.5488C116.86 18.5488 116.663 18.5309 116.448 18.4951C116.269 18.4235 116.072 18.4056 115.857 18.4414C115.857 18.4056 115.786 18.334 115.643 18.2266C115.499 18.1191 115.338 18.0117 115.159 17.9043C114.98 17.7611 114.801 17.6357 114.622 17.5283C114.479 17.4209 114.389 17.3672 114.354 17.3672C114.21 17.3314 114.067 17.3314 113.924 17.3672C113.781 17.3672 113.637 17.3672 113.494 17.3672C113.172 17.3672 112.903 17.2777 112.688 17.0986C112.474 16.9196 112.223 16.7943 111.937 16.7227C111.865 16.6868 111.775 16.6868 111.668 16.7227C111.561 16.7227 111.471 16.7227 111.399 16.7227C111.256 16.7227 111.131 16.6868 111.023 16.6152C110.916 16.5078 110.791 16.4541 110.647 16.4541C110.504 16.4541 110.379 16.472 110.271 16.5078C110.164 16.5436 110.039 16.5615 109.896 16.5615C109.716 16.5615 109.52 16.5078 109.305 16.4004C109.126 16.293 108.929 16.293 108.714 16.4004C108.427 16.1139 108.069 15.9886 107.64 16.0244C107.246 16.0244 106.852 15.9886 106.458 15.917C106.279 15.8812 106.082 15.8275 105.867 15.7559C105.652 15.6842 105.455 15.6484 105.276 15.6484C105.133 15.6484 105.008 15.7021 104.9 15.8096C104.793 15.8812 104.686 15.917 104.578 15.917C104.471 15.917 104.363 15.8991 104.256 15.8633C104.148 15.7917 104.041 15.7559 103.934 15.7559C103.432 15.7559 102.967 15.8633 102.537 16.0781C102.143 16.2572 101.66 16.2393 101.087 16.0244C100.657 16.4183 100.138 16.7943 99.5293 17.1523C99.5651 18.1191 99.5651 19.0859 99.5293 20.0527C99.4935 20.196 99.4577 20.3392 99.4219 20.4824C99.3861 20.6257 99.3682 20.7689 99.3682 20.9121C99.3682 21.0195 99.4219 21.127 99.5293 21.2344C99.6367 21.306 99.7262 21.3776 99.7979 21.4492C99.6188 21.6283 99.5114 21.8073 99.4756 21.9863C99.4756 22.1654 99.4935 22.3623 99.5293 22.5771C99.5651 22.7562 99.6188 22.9352 99.6904 23.1143C99.762 23.2933 99.7979 23.4723 99.7979 23.6514C99.6904 23.7588 99.6188 23.9736 99.583 24.2959C99.583 24.6182 99.6188 24.9762 99.6904 25.3701C99.762 25.7282 99.8516 26.0863 99.959 26.4443C100.102 26.7666 100.263 26.9993 100.442 27.1426C100.836 26.8919 101.212 26.8024 101.57 26.874C101.964 26.9456 102.358 26.8919 102.752 26.7129C102.895 26.6413 103.021 26.5876 103.128 26.5518C103.271 26.4801 103.414 26.4443 103.558 26.4443C103.772 26.4443 103.969 26.4801 104.148 26.5518C104.363 26.5876 104.578 26.6055 104.793 26.6055C105.079 26.6055 105.366 26.6055 105.652 26.6055C105.939 26.5697 106.225 26.5518 106.512 26.5518C106.906 26.2653 107.317 26.1221 107.747 26.1221C108.213 26.1221 108.678 26.0863 109.144 26.0146C109.573 25.943 109.967 25.8356 110.325 25.6924C110.683 25.5133 111.113 25.4596 111.614 25.5312C111.937 25.1732 112.151 24.9046 112.259 24.7256C112.366 24.5465 112.509 24.4033 112.688 24.2959C112.903 24.3675 113.064 24.3854 113.172 24.3496C113.279 24.3138 113.369 24.278 113.44 24.2422C113.548 24.1706 113.673 24.1169 113.816 24.0811C113.96 24.0452 114.157 24.0452 114.407 24.0811C114.515 23.723 114.729 23.5081 115.052 23.4365C115.374 23.3291 115.607 23.0964 115.75 22.7383C115.929 22.7025 116.072 22.6846 116.18 22.6846C116.287 22.6846 116.377 22.613 116.448 22.4697C116.627 21.9326 116.806 21.5745 116.985 21.3955C117.2 21.2165 117.361 21.0553 117.469 20.9121C117.576 20.7331 117.612 20.5003 117.576 20.2139C117.54 19.9274 117.361 19.3724 117.039 18.5488Z" fill="#224D60"/>
<path d="M156.479 12.4795C156.802 12.5153 157.106 12.4974 157.393 12.4258C157.715 12.3184 158.037 12.2288 158.359 12.1572C158.861 12.0498 159.398 11.9961 159.971 11.9961C160.579 11.9603 161.134 11.9424 161.636 11.9424C162.209 11.9424 162.764 11.9961 163.301 12.1035C163.838 12.2109 164.375 12.3005 164.912 12.3721C165.485 12.4079 166.04 12.4974 166.577 12.6406C167.114 12.7839 167.651 12.9271 168.188 13.0703C168.511 13.1777 168.815 13.321 169.102 13.5C169.388 13.6432 169.674 13.8044 169.961 13.9834C170.104 14.4131 170.122 14.9144 170.015 15.4873C169.943 16.0602 169.728 16.5078 169.37 16.8301C169.155 16.7943 168.958 16.7943 168.779 16.8301C168.6 16.8301 168.421 16.9375 168.242 17.1523C168.135 17.1165 168.063 17.0449 168.027 16.9375C167.992 16.7943 167.884 16.7048 167.705 16.6689C167.526 16.5973 167.347 16.5794 167.168 16.6152C167.025 16.651 166.864 16.651 166.685 16.6152C166.434 16.5794 166.183 16.5436 165.933 16.5078C165.718 16.4362 165.485 16.3646 165.234 16.293C165.163 16.3288 165.02 16.3288 164.805 16.293C164.626 16.2572 164.429 16.2214 164.214 16.1855C163.999 16.1497 163.802 16.1318 163.623 16.1318C163.444 16.096 163.337 16.1139 163.301 16.1855C163.193 16.1855 163.104 16.1139 163.032 15.9707C162.996 15.8275 162.889 15.7559 162.71 15.7559C162.316 15.7559 161.958 15.7738 161.636 15.8096C161.313 15.8454 160.955 15.8275 160.562 15.7559C160.239 15.8275 159.989 15.9528 159.81 16.1318C159.631 16.3109 159.344 16.3646 158.95 16.293C158.771 16.3646 158.628 16.4541 158.521 16.5615C158.413 16.6689 158.324 16.7943 158.252 16.9375C157.858 16.9017 157.536 16.9554 157.285 17.0986C157.035 17.2419 156.802 17.403 156.587 17.582C156.408 17.7611 156.229 17.9401 156.05 18.1191C155.907 18.2982 155.728 18.4056 155.513 18.4414C155.334 19.1217 154.976 19.623 154.438 19.9453C154.367 20.2318 154.349 20.4466 154.385 20.5898C154.206 20.6257 154.08 20.6615 154.009 20.6973C153.973 20.7331 153.866 20.7331 153.687 20.6973C153.472 21.4492 153.096 22.0579 152.559 22.5234V23.1143C152.38 23.1859 152.308 23.2933 152.344 23.4365C152.38 23.5798 152.254 23.6514 151.968 23.6514C152.111 23.9378 152.075 24.2601 151.86 24.6182C151.681 24.9762 151.556 25.3164 151.484 25.6387C151.305 25.8177 151.216 26.0505 151.216 26.3369C151.252 26.5876 151.162 26.8382 150.947 27.0889C151.162 27.5186 151.252 27.984 151.216 28.4854C151.216 28.9867 151.216 29.488 151.216 29.9893C151.216 30.1683 151.27 30.2757 151.377 30.3115C151.484 30.3473 151.61 30.401 151.753 30.4727C151.681 30.7591 151.681 31.0277 151.753 31.2783C151.825 31.4932 151.914 31.708 152.021 31.9229C152.129 32.1377 152.236 32.3525 152.344 32.5674C152.487 32.7822 152.559 33.015 152.559 33.2656C152.845 33.6237 153.185 33.8923 153.579 34.0713C153.973 34.2145 154.367 34.3398 154.761 34.4473C154.868 34.5189 154.94 34.5905 154.976 34.6621C155.047 34.6979 155.101 34.8053 155.137 34.9844C155.459 34.9844 155.763 35.0381 156.05 35.1455C156.372 35.2529 156.712 35.3066 157.07 35.3066C157.5 35.2708 157.769 35.3066 157.876 35.4141C158.019 35.4857 158.216 35.5215 158.467 35.5215C158.646 35.5215 158.753 35.4678 158.789 35.3604C158.861 35.2529 158.968 35.1634 159.111 35.0918C159.613 35.3424 160.221 35.5215 160.938 35.6289C161.654 35.7363 162.262 35.611 162.764 35.2529C162.907 35.2529 163.032 35.2708 163.14 35.3066C163.247 35.3424 163.354 35.3604 163.462 35.3604C163.605 35.3604 163.713 35.3424 163.784 35.3066C163.856 35.235 163.945 35.1634 164.053 35.0918C164.16 35.056 164.357 35.0202 164.644 34.9844C164.966 34.9486 165.288 34.9128 165.61 34.877C165.968 34.8411 166.291 34.8232 166.577 34.8232C166.899 34.8232 167.132 34.8232 167.275 34.8232C167.526 34.7158 167.723 34.5726 167.866 34.3936C168.009 34.1787 168.153 33.9639 168.296 33.749C168.69 33.6416 168.94 33.6774 169.048 33.8564C169.191 33.9997 169.424 34.0713 169.746 34.0713C169.925 34.0713 170.033 34.0355 170.068 33.9639C170.14 33.8564 170.247 33.7848 170.391 33.749C170.498 33.9281 170.605 34.0892 170.713 34.2324C170.856 34.3757 171.035 34.4831 171.25 34.5547C171.25 34.8053 171.268 35.056 171.304 35.3066C171.375 35.5573 171.519 35.7721 171.733 35.9512C171.626 36.0944 171.447 36.2555 171.196 36.4346C170.946 36.5778 170.695 36.7389 170.444 36.918C170.229 37.097 170.015 37.276 169.8 37.4551C169.621 37.6341 169.531 37.8132 169.531 37.9922C169.531 38.1354 169.549 38.2428 169.585 38.3145C169.621 38.3503 169.603 38.4398 169.531 38.583C169.424 38.6546 169.299 38.7083 169.155 38.7441C169.048 38.7799 168.994 38.8874 168.994 39.0664C168.564 39.0306 168.171 39.0485 167.812 39.1201C167.454 39.1559 167.096 39.2275 166.738 39.335C166.38 39.4424 166.022 39.5498 165.664 39.6572C165.342 39.7288 164.984 39.7646 164.59 39.7646C164.518 39.6572 164.393 39.6214 164.214 39.6572C164.035 39.6572 163.838 39.693 163.623 39.7646C163.444 39.8005 163.247 39.8542 163.032 39.9258C162.853 39.9974 162.71 40.0332 162.603 40.0332C162.424 40.0332 162.244 40.0153 162.065 39.9795C161.886 39.9079 161.707 39.8721 161.528 39.8721C161.242 39.8721 160.973 39.89 160.723 39.9258C160.508 39.9616 160.257 39.9795 159.971 39.9795C159.326 39.9795 158.95 39.8721 158.843 39.6572C158.735 39.4424 158.574 39.335 158.359 39.335C158.145 39.335 158.019 39.4066 157.983 39.5498C157.983 39.6572 157.912 39.7646 157.769 39.8721C157.375 39.7288 156.945 39.5677 156.479 39.3887C156.05 39.2096 155.62 39.2275 155.19 39.4424C155.011 39.1917 154.779 39.0664 154.492 39.0664C154.206 39.0664 153.991 38.9411 153.848 38.6904C153.597 38.6904 153.364 38.6725 153.149 38.6367C152.935 38.5651 152.702 38.5293 152.451 38.5293C152.451 38.4219 152.415 38.3503 152.344 38.3145C152.308 38.2786 152.254 38.2607 152.183 38.2607C152.147 38.2249 152.111 38.1891 152.075 38.1533C152.039 38.1175 152.039 38.028 152.075 37.8848C151.825 37.9206 151.628 37.9206 151.484 37.8848C151.377 37.8132 151.27 37.7415 151.162 37.6699C151.055 37.5983 150.929 37.5446 150.786 37.5088C150.643 37.4372 150.464 37.4193 150.249 37.4551C150.142 37.0612 149.837 36.7747 149.336 36.5957C149.229 36.3451 149.103 36.1123 148.96 35.8975C148.817 35.6468 148.602 35.4857 148.315 35.4141C148.244 34.9844 148.118 34.5726 147.939 34.1787C147.76 33.7848 147.617 33.373 147.51 32.9434C147.438 32.7643 147.367 32.6569 147.295 32.6211C147.223 32.5853 147.116 32.5137 146.973 32.4062C147.08 31.9408 147.08 31.5111 146.973 31.1172C146.865 30.6875 146.74 30.2578 146.597 29.8281C146.453 29.4701 146.4 29.1299 146.436 28.8076C146.507 28.4495 146.418 28.0915 146.167 27.7334C146.346 27.1247 146.489 26.4264 146.597 25.6387C146.74 24.8509 147.044 24.2064 147.51 23.7051C147.581 23.3828 147.528 23.2038 147.349 23.168C147.17 23.1322 147.098 23.0426 147.134 22.8994C147.384 22.613 147.617 22.3981 147.832 22.2549C148.047 22.0758 148.172 21.7536 148.208 21.2881C148.494 21.0374 148.674 20.7331 148.745 20.375C148.853 19.9811 149.014 19.641 149.229 19.3545C149.408 19.2471 149.569 19.1396 149.712 19.0322C149.891 18.889 150.07 18.7637 150.249 18.6562C150.894 17.8685 151.538 17.1882 152.183 16.6152C152.147 16.4362 152.165 16.3288 152.236 16.293C152.308 16.2214 152.344 16.096 152.344 15.917C152.559 15.8454 152.666 15.7559 152.666 15.6484C152.702 15.5052 152.881 15.4694 153.203 15.541C153.275 15.2904 153.418 15.0576 153.633 14.8428C153.883 14.5921 154.134 14.3773 154.385 14.1982C154.671 13.9834 154.922 13.8044 155.137 13.6611C155.352 13.4821 155.477 13.3031 155.513 13.124C155.799 13.1598 155.978 13.1061 156.05 12.9629C156.157 12.8197 156.3 12.6585 156.479 12.4795ZM197.281 36.6494C197.174 36.8285 197.031 36.9896 196.852 37.1328C196.708 37.276 196.583 37.4372 196.476 37.6162C196.583 37.8311 196.619 38.028 196.583 38.207C196.583 38.3861 196.565 38.6009 196.529 38.8516C196.314 38.959 196.118 39.1022 195.938 39.2812C195.759 39.4603 195.545 39.4603 195.294 39.2812C195.043 39.5677 194.649 39.7288 194.112 39.7646C193.611 39.8005 193.199 39.7467 192.877 39.6035C192.77 39.6751 192.662 39.7646 192.555 39.8721C192.447 39.9437 192.322 40.0153 192.179 40.0869C191.964 40.1227 191.821 40.2301 191.749 40.4092C191.498 40.4808 191.248 40.4987 190.997 40.4629C190.746 40.4271 190.496 40.4092 190.245 40.4092C189.636 40.4808 189.225 40.4629 189.01 40.3555C188.831 40.2122 188.562 40.2301 188.204 40.4092C187.918 40.3376 187.685 40.1943 187.506 39.9795C187.255 40.0153 187.094 40.0869 187.022 40.1943C186.951 40.266 186.826 40.3376 186.646 40.4092C186.36 40.3734 186.056 40.3376 185.733 40.3018C185.447 40.266 185.16 40.248 184.874 40.248C184.623 40.248 184.409 40.3018 184.229 40.4092C184.05 40.5166 183.925 40.5703 183.854 40.5703C183.316 40.4629 182.923 40.4629 182.672 40.5703C182.421 40.6419 182.171 40.7135 181.92 40.7852C181.741 40.8568 181.472 40.8926 181.114 40.8926C181.007 40.9284 180.882 40.9642 180.738 41C180.631 41.0358 180.523 41.1074 180.416 41.2148C180.201 41.1432 179.915 41.0895 179.557 41.0537C179.199 41.0179 179.02 41.1969 179.02 41.5908C178.912 41.4476 178.84 41.3044 178.805 41.1611C178.805 41.0537 178.679 41.0179 178.429 41.0537C178.178 40.7314 177.999 40.5882 177.892 40.624C177.784 40.6598 177.695 40.6419 177.623 40.5703C177.551 40.3913 177.498 40.266 177.462 40.1943C177.426 40.0869 177.319 39.9974 177.14 39.9258C176.996 39.7467 176.853 39.6035 176.71 39.4961C176.567 39.3529 176.441 39.1917 176.334 39.0127C176.298 38.8337 176.316 38.7083 176.388 38.6367C176.495 38.5293 176.585 38.3861 176.656 38.207C176.513 38.1354 176.424 38.0638 176.388 37.9922C176.352 37.8848 176.298 37.7415 176.227 37.5625C176.227 37.3835 176.262 37.2223 176.334 37.0791C176.441 36.9001 176.549 36.721 176.656 36.542C176.513 36.363 176.459 36.2018 176.495 36.0586C176.567 35.8796 176.603 35.7005 176.603 35.5215C176.603 35.1992 176.549 34.8949 176.441 34.6084C176.37 34.3219 176.334 34.0355 176.334 33.749C176.334 33.4626 176.352 33.1582 176.388 32.8359C176.459 32.5137 176.352 32.263 176.065 32.084C176.173 31.5827 176.173 31.0814 176.065 30.5801C175.958 30.0788 176.012 29.5954 176.227 29.1299C176.191 28.915 176.119 28.7539 176.012 28.6465C175.94 28.5033 175.868 28.3421 175.797 28.1631C175.868 27.9482 175.886 27.7334 175.851 27.5186C175.851 27.2679 175.833 27.0352 175.797 26.8203C175.797 26.6055 175.797 26.3906 175.797 26.1758C175.797 25.9251 175.851 25.6924 175.958 25.4775C175.851 25.2627 175.761 25.012 175.689 24.7256C175.654 24.4033 175.618 24.0632 175.582 23.7051C175.582 23.347 175.6 23.0247 175.636 22.7383C175.672 22.416 175.725 22.1475 175.797 21.9326C175.833 21.7178 175.815 21.5924 175.743 21.5566C175.672 21.5208 175.6 21.4134 175.528 21.2344C175.6 20.9837 175.636 20.7331 175.636 20.4824C175.636 20.2318 175.707 19.999 175.851 19.7842C175.672 19.4977 175.582 19.1755 175.582 18.8174C175.618 18.4593 175.654 18.1012 175.689 17.7432C175.761 17.3493 175.797 16.9733 175.797 16.6152C175.833 16.2214 175.743 15.8454 175.528 15.4873C175.528 15.2367 175.6 15.0755 175.743 15.0039C175.886 14.8965 175.958 14.7533 175.958 14.5742V13.5C176.065 13.4642 176.155 13.4105 176.227 13.3389C176.298 13.2314 176.37 13.1419 176.441 13.0703C176.62 12.8913 176.799 12.8018 176.979 12.8018C177.158 12.766 177.354 12.6048 177.569 12.3184C178.035 12.2109 178.268 12.2109 178.268 12.3184C178.303 12.4258 178.411 12.569 178.59 12.748C178.769 12.6764 178.912 12.6585 179.02 12.6943C179.127 12.7301 179.27 12.7839 179.449 12.8555C179.628 13.1777 179.879 13.6074 180.201 14.1445C180.559 14.6816 180.738 15.1292 180.738 15.4873C180.738 15.5947 180.667 15.7021 180.523 15.8096C180.38 15.917 180.273 16.0244 180.201 16.1318C180.201 16.2751 180.201 16.4004 180.201 16.5078C180.201 16.5794 180.165 16.6689 180.094 16.7764C180.058 17.027 180.076 17.1882 180.147 17.2598C180.255 17.3314 180.326 17.4567 180.362 17.6357C180.076 17.8148 179.968 18.0117 180.04 18.2266C180.147 18.4056 180.201 18.6204 180.201 18.8711C180.201 19.0859 180.147 19.2829 180.04 19.4619C179.968 19.6051 180.058 19.7663 180.309 19.9453C180.058 20.1243 180.022 20.3571 180.201 20.6436C180.165 20.8584 180.13 21.0732 180.094 21.2881C180.094 21.5029 180.094 21.7357 180.094 21.9863C180.094 22.1654 180.13 22.3086 180.201 22.416C180.309 22.5234 180.362 22.6309 180.362 22.7383C180.362 22.8099 180.326 22.8994 180.255 23.0068C180.219 23.0785 180.201 23.168 180.201 23.2754C180.201 23.3828 180.219 23.4902 180.255 23.5977C180.326 23.6693 180.362 23.7588 180.362 23.8662C180.362 23.9378 180.309 24.0452 180.201 24.1885C180.13 24.2959 180.094 24.4212 180.094 24.5645C180.094 24.8509 180.13 25.1732 180.201 25.5312C180.273 25.8535 180.398 26.1579 180.577 26.4443C180.398 26.695 180.362 26.9456 180.47 27.1963C180.577 27.4111 180.541 27.5723 180.362 27.6797C180.255 27.8945 180.273 28.0378 180.416 28.1094C180.559 28.1452 180.631 28.2168 180.631 28.3242C180.631 28.4316 180.595 28.5391 180.523 28.6465C180.488 28.7181 180.47 28.8076 180.47 28.915C180.47 29.1657 180.506 29.4163 180.577 29.667C180.649 29.8818 180.559 30.0788 180.309 30.2578C180.523 30.7949 180.702 31.4036 180.846 32.084C181.025 32.7285 181.078 33.3551 181.007 33.9639C181.222 34.0355 181.329 34.1787 181.329 34.3936C181.329 34.6084 181.454 34.7516 181.705 34.8232C181.669 35.0023 181.616 35.1276 181.544 35.1992C181.508 35.2708 181.58 35.3962 181.759 35.5752C182.439 35.8617 183.119 35.9333 183.8 35.79C184.48 35.6468 185.178 35.5752 185.895 35.5752C186.253 35.5752 186.485 35.611 186.593 35.6826C186.736 35.7184 186.826 35.79 186.861 35.8975C186.933 35.9691 186.987 36.0407 187.022 36.1123C187.058 36.1481 187.184 36.166 187.398 36.166C188.186 35.9154 188.867 35.8438 189.439 35.9512C190.012 36.0228 190.514 35.9512 190.943 35.7363C191.051 35.7363 191.158 35.79 191.266 35.8975C191.373 35.9691 191.498 36.0228 191.642 36.0586C191.856 35.7363 192.143 35.5752 192.501 35.5752C192.895 35.5394 193.235 35.3783 193.521 35.0918C193.808 35.056 194.094 35.056 194.381 35.0918C194.667 34.9486 194.972 34.859 195.294 34.8232C195.616 34.7516 195.938 34.6621 196.261 34.5547C196.655 34.7337 196.905 35.0381 197.013 35.4678C197.156 35.8617 197.245 36.2555 197.281 36.6494ZM206.232 39.7646C205.91 39.8005 205.606 39.7826 205.319 39.7109C205.033 39.6035 204.729 39.5319 204.406 39.4961C204.335 39.3529 204.227 39.2096 204.084 39.0664C203.941 38.8874 203.78 38.762 203.601 38.6904C203.028 38.4398 202.688 38.1533 202.58 37.8311C202.473 37.5088 202.168 37.3118 201.667 37.2402C201.667 37.0254 201.631 36.8822 201.56 36.8105C201.488 36.7031 201.398 36.6136 201.291 36.542C201.219 36.4704 201.13 36.4167 201.022 36.3809C200.915 36.3092 200.808 36.2018 200.7 36.0586C200.593 35.6647 200.467 35.2708 200.324 34.877C200.181 34.4831 199.912 34.1787 199.519 33.9639C199.519 33.57 199.501 33.3193 199.465 33.2119C199.429 33.0687 199.375 32.9971 199.304 32.9971C199.268 32.9613 199.214 32.9434 199.143 32.9434C199.107 32.9076 199.053 32.8001 198.981 32.6211C199.017 32.2272 198.928 31.9229 198.713 31.708C198.534 31.4574 198.409 31.2783 198.337 31.1709C198.337 31.0277 198.337 30.9023 198.337 30.7949C198.373 30.6517 198.426 30.5085 198.498 30.3652C198.283 30.2936 198.14 30.1862 198.068 30.043C198.033 29.8639 197.997 29.6849 197.961 29.5059C197.925 29.3268 197.889 29.1478 197.854 28.9688C197.818 28.7897 197.71 28.6465 197.531 28.5391C197.603 28.0736 197.639 27.6081 197.639 27.1426C197.674 26.6413 197.549 26.1937 197.263 25.7998C197.585 25.3701 197.746 24.9046 197.746 24.4033C197.782 23.8662 197.889 23.347 198.068 22.8457C198.068 22.6667 198.015 22.5055 197.907 22.3623C197.836 22.1833 197.764 22.0042 197.692 21.8252C197.979 21.7536 198.104 21.5566 198.068 21.2344C198.068 20.9121 198.068 20.6257 198.068 20.375C198.212 20.0885 198.355 19.8379 198.498 19.623C198.641 19.4082 198.767 19.2113 198.874 19.0322C198.981 18.8174 199.071 18.6025 199.143 18.3877C199.214 18.137 199.25 17.8327 199.25 17.4746C199.536 17.2956 199.787 17.0807 200.002 16.8301C200.217 16.5794 200.432 16.3288 200.646 16.0781C200.861 15.7917 201.076 15.541 201.291 15.3262C201.506 15.0755 201.757 14.8607 202.043 14.6816C202.15 14.5026 202.258 14.3773 202.365 14.3057C202.508 14.1982 202.616 14.0192 202.688 13.7686C203.046 13.6611 203.368 13.5 203.654 13.2852C203.977 13.0703 204.281 12.8734 204.567 12.6943C205.069 12.3721 205.624 12.1035 206.232 11.8887C206.877 11.638 207.504 11.4769 208.112 11.4053C208.22 11.2979 208.345 11.2083 208.488 11.1367C208.632 11.0651 208.775 10.9756 208.918 10.8682C209.097 10.8324 209.258 10.8324 209.401 10.8682C209.58 10.8682 209.724 10.8682 209.831 10.8682C209.938 10.8324 210.046 10.7786 210.153 10.707C210.261 10.6354 210.35 10.4743 210.422 10.2236L210.744 10.8682C210.995 10.904 211.192 10.9398 211.335 10.9756C211.478 10.9756 211.639 10.8503 211.818 10.5996C212.248 10.707 212.678 10.7786 213.107 10.8145C213.537 10.8503 213.967 10.904 214.396 10.9756C214.755 11.2979 214.951 11.5127 214.987 11.6201C215.059 11.6917 215.131 11.7992 215.202 11.9424C215.489 11.9782 215.721 12.0856 215.9 12.2646C216.079 12.4079 216.33 12.4795 216.652 12.4795C216.76 12.766 216.921 12.945 217.136 13.0166C217.386 13.0524 217.548 13.2135 217.619 13.5C217.87 13.5358 218.12 13.6253 218.371 13.7686C218.586 14.1982 218.872 14.5384 219.23 14.7891C219.624 15.0397 219.911 15.3978 220.09 15.8633C220.305 15.9707 220.466 16.1139 220.573 16.293C220.716 16.4362 220.842 16.5973 220.949 16.7764C221.092 16.9196 221.218 17.0807 221.325 17.2598C221.468 17.403 221.647 17.5104 221.862 17.582C221.862 17.7611 221.826 17.9043 221.755 18.0117C221.683 18.0833 221.665 18.1729 221.701 18.2803C221.916 18.3519 222.041 18.4772 222.077 18.6562C222.149 18.8353 222.202 19.0143 222.238 19.1934C222.31 19.3724 222.382 19.5514 222.453 19.7305C222.561 19.8737 222.74 19.9632 222.99 19.999C222.99 20.3213 223.008 20.5719 223.044 20.751C223.08 20.8942 223.151 21.109 223.259 21.3955C223.438 21.7536 223.527 22.1117 223.527 22.4697C223.563 22.792 223.617 23.1501 223.688 23.5439C223.688 23.6514 223.724 23.7409 223.796 23.8125C223.903 23.8841 223.993 23.9557 224.064 24.0273C223.993 24.3138 223.993 24.6003 224.064 24.8867C224.136 25.1732 224.172 25.4596 224.172 25.7461C224.172 25.9251 224.118 26.0505 224.011 26.1221C223.903 26.1579 223.85 26.2116 223.85 26.2832C223.885 26.3548 223.975 26.4443 224.118 26.5518C224.297 26.6234 224.423 26.695 224.494 26.7666C224.243 26.8382 224.082 26.9814 224.011 27.1963C223.975 27.3753 223.957 27.5902 223.957 27.8408C223.957 28.0557 223.957 28.2884 223.957 28.5391C223.993 28.7897 223.993 29.0046 223.957 29.1836C223.921 29.3268 223.868 29.4342 223.796 29.5059C223.724 29.5775 223.688 29.6849 223.688 29.8281C223.76 30.222 223.76 30.4548 223.688 30.5264C223.617 30.598 223.563 30.6875 223.527 30.7949C223.492 30.974 223.474 31.1351 223.474 31.2783C223.509 31.4215 223.527 31.5827 223.527 31.7617C223.527 32.0482 223.456 32.2809 223.312 32.46C223.205 32.639 223.062 32.8359 222.883 33.0508C222.847 33.2298 222.865 33.3551 222.937 33.4268C223.044 33.4984 223.062 33.6237 222.99 33.8027C222.704 34.2682 222.435 34.7337 222.185 35.1992C221.934 35.6289 221.683 36.0944 221.433 36.5957C221.254 36.8822 221.039 37.097 220.788 37.2402C220.573 37.3835 220.394 37.652 220.251 38.0459C219.893 38.1175 219.517 38.2786 219.123 38.5293C218.765 38.7441 218.407 38.9769 218.049 39.2275C217.727 39.4782 217.44 39.7109 217.189 39.9258C216.939 40.1406 216.796 40.248 216.76 40.248C216.509 40.2839 216.33 40.3555 216.223 40.4629C216.115 40.5345 215.918 40.5703 215.632 40.5703C215.453 40.5345 215.327 40.624 215.256 40.8389C215.184 41.0537 214.987 41.1969 214.665 41.2686C214.2 41.4476 213.895 41.5371 213.752 41.5371C213.609 41.5371 213.448 41.4297 213.269 41.2148C213.018 41.2148 212.785 41.2507 212.57 41.3223C212.355 41.4297 212.123 41.4834 211.872 41.4834C211.657 41.4834 211.442 41.4297 211.228 41.3223C211.013 41.2507 210.798 41.2148 210.583 41.2148C210.404 41.179 210.243 41.1611 210.1 41.1611C209.956 41.1969 209.795 41.2148 209.616 41.2148C209.437 41.2148 209.204 41.1611 208.918 41.0537C208.632 40.9821 208.399 40.9105 208.22 40.8389C207.826 40.624 207.521 40.445 207.307 40.3018C207.092 40.1227 206.823 40.0332 206.501 40.0332L206.232 39.7646ZM219.338 21.2881C219.016 21.1449 218.801 20.9837 218.693 20.8047C218.622 20.5898 218.532 20.3571 218.425 20.1064C218.353 19.8558 218.282 19.623 218.21 19.4082C218.174 19.1934 218.156 19.0322 218.156 18.9248C218.013 18.71 217.852 18.5488 217.673 18.4414C217.494 18.334 217.315 18.2266 217.136 18.1191C216.993 17.9759 216.849 17.8327 216.706 17.6895C216.563 17.5462 216.473 17.3314 216.438 17.0449C216.151 16.9733 215.9 16.848 215.686 16.6689C215.507 16.4899 215.274 16.3646 214.987 16.293C214.987 16.1139 214.951 16.0244 214.88 16.0244C214.808 15.9886 214.755 15.8991 214.719 15.7559C214.217 15.6842 213.806 15.5589 213.483 15.3799C213.197 15.2008 212.857 15.0218 212.463 14.8428C212.284 15.0218 212.123 15.0934 211.979 15.0576C211.872 14.986 211.729 14.9502 211.55 14.9502C211.407 14.9502 211.263 15.0218 211.12 15.165C210.977 15.3083 210.816 15.4157 210.637 15.4873C210.529 15.3083 210.368 15.2188 210.153 15.2188C209.938 15.1829 209.742 15.1292 209.562 15.0576C209.419 15.165 209.222 15.2725 208.972 15.3799C208.757 15.4515 208.56 15.5231 208.381 15.5947C207.701 15.8812 207.074 16.3646 206.501 17.0449C206.071 17.403 205.695 17.6895 205.373 17.9043C205.087 18.0833 204.764 18.2445 204.406 18.3877C204.37 18.71 204.263 18.9964 204.084 19.2471C203.905 19.4977 203.798 19.7842 203.762 20.1064C203.368 20.2497 203.063 20.5719 202.849 21.0732C202.634 21.5745 202.491 22.0042 202.419 22.3623C202.634 22.6846 202.777 23.0426 202.849 23.4365C202.92 23.8304 203.046 24.2064 203.225 24.5645C203.046 24.7435 202.884 24.9046 202.741 25.0479C202.598 25.1911 202.473 25.3701 202.365 25.585C202.043 25.6924 201.882 25.9609 201.882 26.3906C201.918 26.7845 202.007 27.2321 202.15 27.7334C202.294 28.1989 202.455 28.6465 202.634 29.0762C202.849 29.5059 203.01 29.7744 203.117 29.8818C203.046 29.9893 202.974 30.0967 202.902 30.2041C202.831 30.3115 202.813 30.4189 202.849 30.5264C203.243 30.9561 203.493 31.529 203.601 32.2451C203.744 32.3883 203.887 32.5137 204.03 32.6211C204.174 32.6927 204.299 32.7822 204.406 32.8896C204.549 32.9613 204.639 33.0687 204.675 33.2119C204.746 33.3551 204.782 33.57 204.782 33.8564C204.961 33.8564 205.087 33.8923 205.158 33.9639C205.266 34.0355 205.355 34.125 205.427 34.2324C205.498 34.304 205.57 34.3936 205.642 34.501C205.713 34.5726 205.839 34.6084 206.018 34.6084L206.501 35.1455C206.68 35.2529 206.841 35.3066 206.984 35.3066C207.128 35.2708 207.235 35.3962 207.307 35.6826C207.88 35.8258 208.435 36.0049 208.972 36.2197C209.509 36.4346 210.046 36.6494 210.583 36.8643C210.869 36.7568 211.156 36.721 211.442 36.7568C211.729 36.7926 212.015 36.7747 212.302 36.7031C212.481 36.7031 212.606 36.6494 212.678 36.542C212.785 36.3988 212.928 36.3271 213.107 36.3271C213.215 36.3271 213.286 36.3988 213.322 36.542C213.394 36.6494 213.555 36.6673 213.806 36.5957C213.877 36.4167 213.985 36.3451 214.128 36.3809C214.307 36.4167 214.45 36.3988 214.558 36.3271C214.772 36.2197 214.916 36.0586 214.987 35.8438C215.095 35.6289 215.31 35.5215 215.632 35.5215C215.954 35.0202 216.348 34.5905 216.813 34.2324C217.279 33.8385 217.673 33.391 217.995 32.8896H218.532C218.64 32.3883 218.783 31.8691 218.962 31.332C219.177 30.7591 219.248 30.222 219.177 29.7207C219.356 29.112 219.481 28.5391 219.553 28.002C219.66 27.4648 219.714 26.9456 219.714 26.4443C219.714 26.2653 219.66 26.1042 219.553 25.9609C219.481 25.7819 219.445 25.6029 219.445 25.4238C219.445 25.2448 219.463 25.0658 219.499 24.8867C219.571 24.7077 219.606 24.5286 219.606 24.3496C219.606 23.8483 219.571 23.347 219.499 22.8457C219.463 22.3086 219.41 21.7894 219.338 21.2881ZM251.438 29.291C251.259 30.0788 251.206 30.8665 251.277 31.6543C251.385 32.4421 251.349 33.2119 251.17 33.9639C251.098 34.4294 250.919 34.859 250.633 35.2529C250.382 35.6468 250.293 36.0944 250.364 36.5957C250.257 36.6315 250.114 36.721 249.935 36.8643C249.791 37.0075 249.63 37.1686 249.451 37.3477C249.308 37.5267 249.165 37.7057 249.021 37.8848C248.914 38.028 248.842 38.1533 248.807 38.2607C248.27 38.6904 247.804 39.0664 247.41 39.3887C247.052 39.7109 246.694 40.0511 246.336 40.4092C246.049 40.3734 245.763 40.3734 245.477 40.4092C245.226 40.445 245.011 40.6061 244.832 40.8926C244.51 40.821 244.188 40.8389 243.865 40.9463C243.579 41.0179 243.257 41.0537 242.898 41.0537C242.755 41.0537 242.63 41.0179 242.522 40.9463C242.415 40.8389 242.272 40.7852 242.093 40.7852C241.985 40.7852 241.878 40.821 241.771 40.8926C241.663 40.9284 241.556 40.9463 241.448 40.9463C241.269 40.9463 241.072 40.9284 240.857 40.8926C240.643 40.8568 240.446 40.8389 240.267 40.8389C240.195 40.8389 240.052 40.8747 239.837 40.9463C239.622 41.0179 239.389 41.0895 239.139 41.1611C238.924 41.2686 238.709 41.376 238.494 41.4834C238.315 41.5908 238.208 41.6624 238.172 41.6982C237.742 41.5192 237.33 41.3402 236.937 41.1611C236.543 40.9821 236.113 40.9463 235.647 41.0537C235.218 40.6598 234.77 40.445 234.305 40.4092C233.875 40.3734 233.41 40.3197 232.908 40.248C232.765 40.248 232.675 40.1943 232.64 40.0869C232.64 39.9437 232.64 39.8184 232.64 39.7109C232.138 39.7826 231.744 39.8005 231.458 39.7646C231.172 39.693 230.921 39.5856 230.706 39.4424C230.527 39.2633 230.33 39.0664 230.115 38.8516C229.936 38.6367 229.686 38.4219 229.363 38.207C229.435 37.9922 229.435 37.8132 229.363 37.6699C229.327 37.4909 229.256 37.3298 229.148 37.1865C229.041 37.0075 228.934 36.8464 228.826 36.7031C228.755 36.5241 228.737 36.2913 228.772 36.0049C228.522 35.5394 228.128 35.1634 227.591 34.877C227.555 34.6979 227.501 34.5547 227.43 34.4473C227.358 34.3398 227.322 34.1608 227.322 33.9102C227.322 33.6953 227.251 33.57 227.107 33.5342C226.964 33.4626 226.893 33.373 226.893 33.2656C227.072 32.9434 227.286 32.6748 227.537 32.46C227.824 32.2451 228.038 31.9766 228.182 31.6543C228.468 31.7617 228.665 31.7975 228.772 31.7617C228.88 31.6901 229.077 31.7617 229.363 31.9766C229.435 32.0482 229.56 32.1377 229.739 32.2451C229.954 32.3525 230.187 32.4779 230.438 32.6211C230.688 32.7643 230.921 32.8896 231.136 32.9971C231.351 33.1045 231.494 33.1761 231.565 33.2119C231.637 33.6416 231.798 33.9639 232.049 34.1787C232.335 34.3936 232.55 34.6979 232.693 35.0918C232.872 35.1634 233.016 35.235 233.123 35.3066C233.23 35.3424 233.41 35.3245 233.66 35.2529C233.732 35.3962 233.839 35.5036 233.982 35.5752C234.126 35.6468 234.233 35.7542 234.305 35.8975C234.842 35.8258 235.254 35.8617 235.54 36.0049C235.826 36.1481 236.202 36.2376 236.668 36.2734C236.74 36.3809 236.811 36.4883 236.883 36.5957C236.954 36.6673 237.026 36.7389 237.098 36.8105C237.599 36.7747 238.136 36.7747 238.709 36.8105C239.318 36.8464 239.855 36.7389 240.32 36.4883C240.499 36.6673 240.678 36.721 240.857 36.6494C241.036 36.5778 241.215 36.542 241.395 36.542C241.574 36.542 241.735 36.5957 241.878 36.7031C242.057 36.7747 242.236 36.8105 242.415 36.8105C242.594 36.8105 242.755 36.7926 242.898 36.7568C243.077 36.721 243.257 36.7031 243.436 36.7031C243.65 36.7031 243.758 36.6136 243.758 36.4346C243.794 36.2555 243.883 36.166 244.026 36.166C244.313 36.166 244.599 36.0407 244.886 35.79C245.208 35.5394 245.477 35.3245 245.691 35.1455C245.87 35.1455 245.978 35.0918 246.014 34.9844C246.085 34.8411 246.246 34.7337 246.497 34.6621C246.891 34.2682 247.088 33.8385 247.088 33.373C247.124 32.9076 247.034 32.4421 246.819 31.9766C246.819 31.7975 246.873 31.6364 246.98 31.4932C247.124 31.3141 247.195 31.1351 247.195 30.9561C247.195 30.598 247.07 30.2399 246.819 29.8818C246.569 29.5238 246.354 29.1836 246.175 28.8613C246.103 28.7539 246.032 28.7002 245.96 28.7002C245.888 28.6644 245.799 28.6286 245.691 28.5928C245.62 28.4137 245.548 28.3242 245.477 28.3242C245.441 28.2884 245.333 28.2526 245.154 28.2168C245.047 28.1094 244.886 27.984 244.671 27.8408C244.456 27.6976 244.277 27.626 244.134 27.626C243.597 27.626 243.31 27.5723 243.274 27.4648C243.274 27.3574 243.024 27.3037 242.522 27.3037C242.093 27.3037 241.663 27.3932 241.233 27.5723C241.126 27.5007 240.965 27.429 240.75 27.3574C240.535 27.2858 240.302 27.25 240.052 27.25C239.837 27.2142 239.622 27.2142 239.407 27.25C239.228 27.2858 239.085 27.3574 238.978 27.4648C238.906 27.3932 238.763 27.3037 238.548 27.1963C238.333 27.0531 238.19 26.9814 238.118 26.9814C237.008 26.9814 235.988 26.8561 235.057 26.6055C234.161 26.319 233.248 26.1758 232.317 26.1758C231.852 25.9609 231.565 25.8177 231.458 25.7461C231.351 25.6745 231.189 25.6387 230.975 25.6387C230.796 25.4238 230.634 25.2269 230.491 25.0479C230.384 24.833 230.223 24.654 230.008 24.5107C230.008 24.1885 229.936 23.902 229.793 23.6514C229.686 23.4007 229.542 23.168 229.363 22.9531C229.22 22.7383 229.077 22.5234 228.934 22.3086C228.826 22.0579 228.772 21.7715 228.772 21.4492C228.522 21.0195 228.253 20.6615 227.967 20.375C227.859 19.623 227.859 18.7816 227.967 17.8506C228.074 16.8838 228.432 16.1318 229.041 15.5947V14.7354C229.399 14.7354 229.686 14.6816 229.9 14.5742C230.151 14.431 230.366 14.2699 230.545 14.0908C230.76 13.9118 230.957 13.7327 231.136 13.5537C231.351 13.3747 231.601 13.2314 231.888 13.124C232.067 13.0524 232.192 12.945 232.264 12.8018C232.335 12.6585 232.407 12.4974 232.479 12.3184C233.266 12.39 234.054 12.3184 234.842 12.1035C235.63 11.8529 236.417 11.6559 237.205 11.5127C237.384 11.4769 237.527 11.3874 237.635 11.2441C237.742 11.1009 237.868 10.9756 238.011 10.8682C238.261 10.904 238.476 10.9756 238.655 11.083C238.87 11.1546 239.085 11.2083 239.3 11.2441C239.479 11.3158 239.64 11.3337 239.783 11.2979C239.926 11.2262 240.088 11.1904 240.267 11.1904C240.446 11.1904 240.643 11.2979 240.857 11.5127C241.43 11.4769 241.86 11.5664 242.146 11.7812C242.433 11.9961 242.719 12.0856 243.006 12.0498C243.221 12.3363 243.507 12.5511 243.865 12.6943C244.223 12.8376 244.581 12.9092 244.939 12.9092C244.975 13.0882 245.065 13.2135 245.208 13.2852C245.351 13.3568 245.441 13.4821 245.477 13.6611C245.942 13.7327 246.282 13.9297 246.497 14.252C246.748 14.5384 247.088 14.7354 247.518 14.8428C247.589 15.0218 247.661 15.165 247.732 15.2725C247.84 15.3441 247.929 15.4694 248.001 15.6484C248.252 15.6126 248.395 15.6305 248.431 15.7021C248.502 15.7738 248.628 15.8454 248.807 15.917C249.057 16.4183 249.272 16.9912 249.451 17.6357C249.272 17.9222 249.111 18.2266 248.968 18.5488C248.825 18.8353 248.61 19.068 248.323 19.2471C247.392 19.2471 246.622 19.068 246.014 18.71C245.405 18.3519 244.796 17.8327 244.188 17.1523C244.008 17.0807 243.776 17.0449 243.489 17.0449C243.203 17.0091 243.006 16.9375 242.898 16.8301C242.54 16.5078 242.272 16.3646 242.093 16.4004C241.95 16.4004 241.788 16.3646 241.609 16.293C241.215 16.2214 240.822 16.096 240.428 15.917C240.034 15.738 239.622 15.6484 239.192 15.6484C238.978 15.6484 238.781 15.6842 238.602 15.7559C238.458 15.8275 238.297 15.8812 238.118 15.917C237.939 15.9528 237.778 15.9528 237.635 15.917C237.527 15.8812 237.384 15.8633 237.205 15.8633C236.919 15.8633 236.722 15.917 236.614 16.0244C236.543 16.1318 236.471 16.1855 236.399 16.1855C235.934 16.1855 235.54 16.2572 235.218 16.4004C234.931 16.5436 234.681 16.651 234.466 16.7227C234.323 16.7943 234.197 16.8838 234.09 16.9912C233.982 17.0628 233.911 17.1882 233.875 17.3672C233.481 17.4388 233.213 17.5999 233.069 17.8506C232.926 18.0654 232.711 18.2266 232.425 18.334C232.317 18.513 232.353 18.6921 232.532 18.8711C232.389 19.0859 232.353 19.265 232.425 19.4082C232.496 19.5156 232.586 19.641 232.693 19.7842C232.837 19.8916 232.98 20.0348 233.123 20.2139C233.266 20.3571 233.338 20.5719 233.338 20.8584C233.338 21.109 233.445 21.2702 233.66 21.3418C233.911 21.3776 234.108 21.4671 234.251 21.6104C234.43 21.7536 234.663 21.9147 234.949 22.0938C235.236 22.237 235.468 22.3086 235.647 22.3086C235.755 22.3086 235.844 22.2907 235.916 22.2549C236.023 22.2191 236.131 22.2012 236.238 22.2012C236.489 22.2012 236.704 22.2549 236.883 22.3623C237.098 22.4339 237.312 22.4697 237.527 22.4697C237.635 22.4697 237.742 22.4697 237.85 22.4697C237.957 22.4339 238.064 22.416 238.172 22.416C238.566 22.416 238.906 22.4876 239.192 22.6309C239.515 22.7383 239.891 22.6667 240.32 22.416C240.786 22.6667 241.18 22.7741 241.502 22.7383C241.86 22.7025 242.146 22.7562 242.361 22.8994C242.469 22.971 242.558 23.0426 242.63 23.1143C242.737 23.1859 242.845 23.2217 242.952 23.2217C243.06 23.2217 243.149 23.2038 243.221 23.168C243.328 23.1322 243.418 23.1143 243.489 23.1143C243.632 23.1143 243.776 23.1501 243.919 23.2217C244.062 23.2933 244.188 23.2396 244.295 23.0605C244.51 23.3112 244.778 23.4186 245.101 23.3828C245.423 23.347 245.727 23.347 246.014 23.3828C246.121 23.5618 246.193 23.6872 246.229 23.7588C246.264 23.7946 246.264 23.9378 246.229 24.1885C246.551 24.1527 246.801 24.1706 246.98 24.2422C247.16 24.278 247.303 24.3496 247.41 24.457C247.553 24.5645 247.679 24.6719 247.786 24.7793C247.929 24.8509 248.108 24.9046 248.323 24.9404C248.431 25.2627 248.574 25.5492 248.753 25.7998C248.968 26.0505 249.254 26.2116 249.612 26.2832C249.72 26.5697 249.881 26.8382 250.096 27.0889C250.311 27.3037 250.543 27.5007 250.794 27.6797C250.83 28.2884 251.045 28.8255 251.438 29.291ZM279.833 14.8428C279.618 15.0218 279.385 15.2904 279.135 15.6484C278.92 16.0065 278.705 16.2214 278.49 16.293C278.419 16.3288 278.329 16.3467 278.222 16.3467C278.114 16.3109 278.007 16.293 277.899 16.293C277.72 16.293 277.595 16.3288 277.523 16.4004C277.452 16.472 277.344 16.5257 277.201 16.5615C276.951 16.4183 276.7 16.3288 276.449 16.293C276.199 16.2572 275.948 16.1676 275.697 16.0244C275.482 16.0244 275.321 16.0781 275.214 16.1855C275.106 16.293 274.963 16.3467 274.784 16.3467C274.605 16.3467 274.426 16.3109 274.247 16.2393C274.104 16.1676 273.961 16.2214 273.817 16.4004C273.137 16.1855 272.439 16.0423 271.723 15.9707C271.042 15.8633 270.362 15.7201 269.682 15.541C269.395 15.6842 269.109 15.7559 268.822 15.7559C268.572 15.7201 268.303 15.738 268.017 15.8096C267.909 15.8454 267.802 15.8991 267.694 15.9707C267.587 16.0065 267.479 16.0244 267.372 16.0244C267.229 16.0244 267.104 16.0065 266.996 15.9707C266.889 15.9349 266.763 15.917 266.62 15.917C266.405 15.917 266.19 15.9707 265.976 16.0781C265.761 16.1497 265.546 16.1855 265.331 16.1855C265.152 16.1855 265.009 16.1497 264.901 16.0781C264.794 15.9707 264.651 16.0065 264.472 16.1855C264.364 16.0065 264.239 15.9707 264.096 16.0781C263.988 16.1497 263.881 16.2214 263.773 16.293C263.201 16.293 262.807 16.2751 262.592 16.2393C262.413 16.1676 262.198 16.1497 261.947 16.1855C261.947 16.4362 261.947 16.7943 261.947 17.2598C261.947 17.7253 261.947 18.2087 261.947 18.71C261.983 19.1755 262.001 19.623 262.001 20.0527C262.001 20.4466 261.983 20.7152 261.947 20.8584C262.055 21.109 262.234 21.2344 262.484 21.2344C262.771 21.2344 263.004 21.2344 263.183 21.2344C263.684 21.4492 264.185 21.5745 264.687 21.6104C265.224 21.6104 265.743 21.6104 266.244 21.6104C266.423 21.6104 266.566 21.5924 266.674 21.5566C266.817 21.5208 266.978 21.5029 267.157 21.5029C267.3 21.5029 267.515 21.5387 267.802 21.6104C268.124 21.6462 268.428 21.682 268.715 21.7178C269.037 21.7178 269.306 21.682 269.521 21.6104C269.771 21.5387 269.896 21.3597 269.896 21.0732C270.29 21.0016 270.559 21.0732 270.702 21.2881C270.881 21.5029 271.06 21.6104 271.239 21.6104C271.418 21.6104 271.544 21.5387 271.615 21.3955C271.687 21.2523 271.794 21.1449 271.938 21.0732C272.081 21.0732 272.17 21.1449 272.206 21.2881C272.242 21.3955 272.385 21.4492 272.636 21.4492C272.851 21.4492 273.083 21.3776 273.334 21.2344C273.62 21.0553 273.907 21.1449 274.193 21.5029C274.444 21.5745 274.623 21.5745 274.73 21.5029C274.838 21.4313 274.999 21.3776 275.214 21.3418C275.465 21.7715 275.751 22.1833 276.073 22.5771C276.396 22.9352 276.646 23.347 276.825 23.8125C276.718 23.8125 276.592 23.8662 276.449 23.9736C276.306 24.0811 276.181 24.2243 276.073 24.4033C275.966 24.5465 275.876 24.6898 275.805 24.833C275.733 24.9762 275.715 25.1016 275.751 25.209C275.536 25.388 275.303 25.5671 275.053 25.7461C274.838 25.8893 274.587 25.9609 274.301 25.9609C274.014 25.9609 273.835 25.9072 273.764 25.7998C273.728 25.6924 273.62 25.6387 273.441 25.6387C273.262 25.6387 273.101 25.6745 272.958 25.7461C272.851 25.7819 272.725 25.7998 272.582 25.7998C272.403 25.7998 272.206 25.7819 271.991 25.7461C271.812 25.6745 271.615 25.6387 271.4 25.6387C271.15 25.6387 270.899 25.6924 270.648 25.7998C270.434 25.8714 270.201 25.9072 269.95 25.9072C269.771 25.9072 269.61 25.8714 269.467 25.7998C269.359 25.7282 269.234 25.6745 269.091 25.6387C268.84 25.6029 268.607 25.585 268.393 25.585C268.178 25.5492 267.945 25.5312 267.694 25.5312C267.515 25.5312 267.354 25.585 267.211 25.6924C267.104 25.764 266.96 25.7998 266.781 25.7998C266.602 25.7998 266.405 25.7819 266.19 25.7461C266.011 25.6745 265.832 25.6387 265.653 25.6387C265.51 25.6387 265.385 25.6566 265.277 25.6924C265.17 25.7282 265.062 25.7461 264.955 25.7461C264.311 25.8177 263.791 25.8893 263.397 25.9609C263.004 25.9967 262.61 26.0684 262.216 26.1758C262.252 26.5697 262.27 26.9635 262.27 27.3574C262.305 27.7513 262.413 28.1273 262.592 28.4854C262.592 28.5928 262.538 28.6644 262.431 28.7002C262.359 28.736 262.323 28.8434 262.323 29.0225C262.61 29.3805 262.771 29.7744 262.807 30.2041C262.878 30.598 262.896 31.0098 262.86 31.4395C262.825 31.8691 262.789 32.2988 262.753 32.7285C262.717 33.1582 262.789 33.5879 262.968 34.0176C262.86 34.304 262.771 34.5726 262.699 34.8232C262.663 35.0381 262.663 35.2887 262.699 35.5752C262.95 35.9333 263.272 36.1123 263.666 36.1123C263.845 36.1123 264.006 36.1123 264.149 36.1123C264.293 36.0765 264.454 36.0586 264.633 36.0586C264.776 36.0586 264.901 36.0765 265.009 36.1123C265.116 36.1481 265.242 36.166 265.385 36.166C265.814 36.166 266.244 36.1481 266.674 36.1123C267.104 36.0407 267.533 36.0049 267.963 36.0049C268.106 36.0049 268.231 36.0228 268.339 36.0586C268.482 36.0586 268.625 36.0586 268.769 36.0586C269.019 36.0586 269.252 36.0407 269.467 36.0049C269.717 35.9333 269.968 35.8975 270.219 35.8975C270.398 35.8975 270.559 35.9333 270.702 36.0049C270.845 36.0407 271.007 36.0586 271.186 36.0586C271.508 36.0586 271.812 36.0049 272.099 35.8975C272.421 35.79 272.743 35.7363 273.065 35.7363C273.137 35.7363 273.227 35.7542 273.334 35.79C273.441 35.79 273.531 35.79 273.603 35.79C273.782 35.79 273.907 35.7184 273.979 35.5752C274.05 35.3962 274.122 35.2887 274.193 35.2529C274.372 35.2171 274.551 35.1813 274.73 35.1455C274.91 35.1097 275.089 35.0739 275.268 35.0381C275.411 35.0023 275.518 35.056 275.59 35.1992C275.697 35.3066 275.769 35.4141 275.805 35.5215C276.127 35.5573 276.378 35.6647 276.557 35.8438C276.771 36.0228 277.022 36.1302 277.309 36.166C277.38 36.3451 277.47 36.5062 277.577 36.6494C277.685 36.7568 277.828 36.8105 278.007 36.8105C277.935 37.097 277.971 37.4014 278.114 37.7236C277.899 37.7952 277.702 37.9206 277.523 38.0996C277.38 38.2786 277.219 38.404 277.04 38.4756C277.076 38.6904 277.112 38.9053 277.147 39.1201C277.183 39.2992 277.183 39.514 277.147 39.7646C277.076 39.8363 276.968 39.8721 276.825 39.8721C276.718 39.8363 276.61 39.8184 276.503 39.8184C276.252 39.8184 276.091 39.9079 276.02 40.0869C275.984 40.2301 275.876 40.3018 275.697 40.3018C275.59 40.2301 275.447 40.1943 275.268 40.1943C275.089 40.1943 274.91 40.1943 274.73 40.1943C274.551 40.1943 274.372 40.1943 274.193 40.1943C274.05 40.1943 273.925 40.1585 273.817 40.0869C273.603 40.0869 273.424 40.1406 273.28 40.248C273.137 40.3197 272.994 40.4271 272.851 40.5703C272.493 40.4271 272.152 40.4092 271.83 40.5166C271.544 40.624 271.257 40.7673 270.971 40.9463C270.827 40.8031 270.684 40.7314 270.541 40.7314C270.434 40.7314 270.29 40.7493 270.111 40.7852C270.111 40.6777 270.058 40.5882 269.95 40.5166C269.879 40.4092 269.825 40.3018 269.789 40.1943C269.18 40.3018 268.572 40.3376 267.963 40.3018C267.354 40.2301 266.745 40.2839 266.137 40.4629C265.814 40.2839 265.421 40.1943 264.955 40.1943C264.525 40.1943 264.149 40.3197 263.827 40.5703C263.541 40.4271 263.236 40.4271 262.914 40.5703C262.592 40.6777 262.27 40.7314 261.947 40.7314C261.482 40.624 261.195 40.624 261.088 40.7314C261.016 40.8031 260.927 40.8389 260.819 40.8389C260.64 40.8389 260.461 40.8389 260.282 40.8389C260.139 40.8389 259.978 40.8031 259.799 40.7314C259.62 40.4808 259.459 40.3555 259.315 40.3555C259.208 40.3555 259.083 40.3197 258.939 40.248C258.904 39.9616 258.743 39.693 258.456 39.4424C258.17 39.1917 257.937 38.9769 257.758 38.7979C257.865 38.7262 257.973 38.6725 258.08 38.6367C258.223 38.5651 258.295 38.4577 258.295 38.3145C258.044 37.9564 257.901 37.7057 257.865 37.5625C257.865 37.4193 257.865 37.276 257.865 37.1328C257.901 36.9538 257.901 36.7926 257.865 36.6494C257.865 36.4704 257.794 36.3271 257.65 36.2197C258.008 36.1123 258.188 35.987 258.188 35.8438C258.188 35.3424 258.116 34.877 257.973 34.4473C257.829 34.0176 257.758 33.5521 257.758 33.0508C258.044 32.7643 258.17 32.5674 258.134 32.46C258.134 32.3167 258.134 32.0661 258.134 31.708C258.134 31.3141 258.152 30.9561 258.188 30.6338C258.259 30.2757 258.134 29.9535 257.812 29.667C257.883 29.3089 257.883 28.9688 257.812 28.6465C257.776 28.2884 257.758 27.9303 257.758 27.5723C257.758 27.1426 257.794 26.7308 257.865 26.3369C257.973 25.9072 258.026 25.4775 258.026 25.0479C258.026 24.7972 257.973 24.6182 257.865 24.5107C257.794 24.4033 257.758 24.2959 257.758 24.1885C257.865 23.723 257.883 23.4365 257.812 23.3291C257.74 23.1859 257.686 23.0247 257.65 22.8457C257.579 22.3086 257.561 21.7536 257.597 21.1807C257.668 20.6077 257.704 20.0348 257.704 19.4619C257.704 19.068 257.632 18.6204 257.489 18.1191C257.382 17.6178 257.364 17.2598 257.436 17.0449C257.364 16.9375 257.31 16.8122 257.274 16.6689C257.239 16.5257 257.149 16.4183 257.006 16.3467C257.221 16.0602 257.203 15.8096 256.952 15.5947C256.737 15.3441 256.63 15.0755 256.63 14.7891C256.63 14.4668 256.684 14.1982 256.791 13.9834C256.934 13.7686 256.934 13.4821 256.791 13.124C257.113 12.9808 257.471 12.8555 257.865 12.748C258.044 12.569 258.152 12.4258 258.188 12.3184C258.223 12.1751 258.42 12.1035 258.778 12.1035C259.387 12.1035 259.978 12.1572 260.551 12.2646C261.124 12.3363 261.715 12.4258 262.323 12.5332C262.466 12.4974 262.592 12.4795 262.699 12.4795C262.807 12.4437 262.914 12.39 263.021 12.3184C263.308 12.4616 263.576 12.5332 263.827 12.5332C264.078 12.4974 264.311 12.4437 264.525 12.3721C264.776 12.3005 265.009 12.2288 265.224 12.1572C265.474 12.0498 265.725 11.9961 265.976 11.9961C266.262 11.9961 266.531 12.0319 266.781 12.1035C267.032 12.1393 267.3 12.1572 267.587 12.1572C268.518 12.1572 269.449 12.1035 270.38 11.9961C271.347 11.8529 272.296 11.8171 273.227 11.8887C273.549 12.0677 273.674 12.2288 273.603 12.3721C273.746 12.3005 273.871 12.2467 273.979 12.2109C274.122 12.1751 274.283 12.1572 274.462 12.1572C274.892 12.1572 275.375 12.1751 275.912 12.2109C276.485 12.2109 276.968 12.2646 277.362 12.3721C277.577 12.5869 277.756 12.7122 277.899 12.748C278.078 12.8197 278.24 12.8913 278.383 12.9629C278.526 12.9987 278.687 13.0524 278.866 13.124C279.009 13.1956 279.135 13.2673 279.242 13.3389C279.385 13.3747 279.529 13.4284 279.672 13.5C279.923 13.8581 279.958 14.1266 279.779 14.3057C279.636 14.4489 279.654 14.6279 279.833 14.8428ZM307.69 15.7021C307.655 16.0602 307.726 16.293 307.905 16.4004C308.12 16.472 308.228 16.651 308.228 16.9375C308.228 16.9733 308.102 17.0807 307.852 17.2598C307.601 17.4388 307.44 17.5641 307.368 17.6357C306.903 17.5283 306.491 17.582 306.133 17.7969C305.811 18.0117 305.56 18.1729 305.381 18.2803C305.166 18.137 304.951 18.1012 304.736 18.1729C304.521 18.2445 304.307 18.2803 304.092 18.2803C303.734 18.2803 303.394 18.2266 303.071 18.1191C302.785 17.9759 302.48 17.9043 302.158 17.9043C302.051 17.9043 301.943 17.9222 301.836 17.958C301.729 17.9938 301.603 18.0117 301.46 18.0117C300.923 17.7253 300.493 17.6357 300.171 17.7432C299.849 17.8506 299.562 17.7611 299.312 17.4746C299.025 17.6178 298.721 17.7074 298.398 17.7432C298.112 17.7432 297.861 17.8327 297.646 18.0117C297.36 17.9043 297.074 17.8864 296.787 17.958C296.501 17.9938 296.214 17.958 295.928 17.8506C295.677 18.0654 295.605 18.2266 295.713 18.334C295.856 18.4414 295.928 18.5846 295.928 18.7637C295.82 18.8711 295.749 18.9964 295.713 19.1396C295.713 19.2471 295.713 19.3724 295.713 19.5156C295.749 19.623 295.749 19.7484 295.713 19.8916C295.677 20.0348 295.588 20.1602 295.444 20.2676C295.588 20.4466 295.677 20.6436 295.713 20.8584C295.785 21.0732 295.838 21.2881 295.874 21.5029C295.91 21.7178 295.946 21.9326 295.981 22.1475C296.017 22.3265 296.125 22.4876 296.304 22.6309C296.125 22.9889 296.089 23.347 296.196 23.7051C296.34 24.0632 296.483 24.4033 296.626 24.7256C296.733 25.012 296.769 25.2985 296.733 25.585C296.733 25.8356 296.823 26.0863 297.002 26.3369C296.823 26.6592 296.769 26.9277 296.841 27.1426C296.912 27.3216 297.002 27.5186 297.109 27.7334C297.217 27.9124 297.306 28.0915 297.378 28.2705C297.485 28.4495 297.575 28.557 297.646 28.5928C297.611 28.8076 297.557 29.0762 297.485 29.3984C297.45 29.6849 297.467 29.9176 297.539 30.0967C297.503 30.4906 297.503 30.7949 297.539 31.0098C297.575 31.1888 297.629 31.3857 297.7 31.6006C297.772 31.7796 297.826 31.9766 297.861 32.1914C297.933 32.3704 297.915 32.6211 297.808 32.9434C297.843 33.0866 297.879 33.2298 297.915 33.373C297.951 33.5163 298.04 33.6237 298.184 33.6953C298.184 33.8027 298.13 33.8923 298.022 33.9639C297.915 33.9997 297.843 34.1071 297.808 34.2861C297.987 34.7516 298.201 35.1634 298.452 35.5215C298.381 35.9154 298.381 36.2018 298.452 36.3809C298.524 36.5599 298.577 36.8285 298.613 37.1865C298.506 37.3656 298.381 37.5446 298.237 37.7236C298.094 37.8669 297.951 38.028 297.808 38.207C297.843 38.8158 297.826 39.3887 297.754 39.9258C297.718 40.4271 297.324 40.7135 296.572 40.7852C296.322 40.821 296.196 41 296.196 41.3223C295.946 41.2865 295.749 41.3223 295.605 41.4297C295.462 41.5371 295.301 41.5908 295.122 41.5908C294.979 41.376 294.854 41.2865 294.746 41.3223C294.639 41.3581 294.495 41.376 294.316 41.376C294.173 41.376 293.976 41.2327 293.726 40.9463C293.475 40.6598 293.206 40.4808 292.92 40.4092C293.027 40.1943 293.045 40.0332 292.974 39.9258C292.938 39.7826 292.884 39.6572 292.812 39.5498C292.777 39.4424 292.759 39.335 292.759 39.2275C292.759 39.1201 292.848 38.9948 293.027 38.8516C292.848 38.3503 292.795 37.849 292.866 37.3477C292.974 36.8105 292.938 36.2913 292.759 35.79C293.081 35.4678 293.206 35.056 293.135 34.5547C293.063 34.0534 293.027 33.6058 293.027 33.2119C293.027 33.0687 293.045 32.9434 293.081 32.8359C293.117 32.6927 293.135 32.5316 293.135 32.3525C293.135 32.0661 293.063 31.8333 292.92 31.6543C292.777 31.4395 292.669 31.2067 292.598 30.9561C292.669 30.2399 292.669 29.5596 292.598 28.915C292.562 28.2705 292.347 27.6439 291.953 27.0352C291.917 26.8561 291.917 26.7308 291.953 26.6592C292.025 26.5518 292.061 26.4085 292.061 26.2295C291.989 26.0863 291.935 25.943 291.899 25.7998C291.864 25.6208 291.756 25.4954 291.577 25.4238C291.72 24.9941 291.774 24.6361 291.738 24.3496C291.738 24.0632 291.685 23.8125 291.577 23.5977C291.506 23.347 291.416 23.1322 291.309 22.9531C291.201 22.7383 291.147 22.5234 291.147 22.3086C291.147 22.2012 291.165 22.0938 291.201 21.9863C291.273 21.8789 291.309 21.7715 291.309 21.6641C291.309 21.5208 291.255 21.3955 291.147 21.2881C291.04 21.1449 290.986 21.0195 290.986 20.9121C291.094 20.4108 291.094 20.0706 290.986 19.8916C290.915 19.7126 290.879 19.5335 290.879 19.3545C290.879 19.2113 290.879 19.0859 290.879 18.9785C290.915 18.8711 290.933 18.7637 290.933 18.6562C290.933 18.3698 290.807 18.1191 290.557 17.9043C290.342 17.6895 290.091 17.582 289.805 17.582C289.482 17.582 289.16 17.6357 288.838 17.7432C288.551 17.8506 288.247 17.9043 287.925 17.9043C287.424 17.9043 286.922 17.8864 286.421 17.8506C285.955 17.8148 285.472 17.8327 284.971 17.9043C284.756 17.9401 284.541 18.0117 284.326 18.1191C284.111 18.2266 283.896 18.2803 283.682 18.2803C283.467 18.2803 283.252 18.2266 283.037 18.1191C282.858 17.9759 282.661 17.9043 282.446 17.9043C282.267 17.4746 281.999 17.1344 281.641 16.8838C281.283 16.6331 280.942 16.3646 280.62 16.0781C280.477 15.6126 280.495 15.2725 280.674 15.0576C280.853 14.8428 281.014 14.5384 281.157 14.1445C281.372 14.0013 281.587 13.8581 281.802 13.7148C282.052 13.5716 282.249 13.3926 282.393 13.1777C282.607 13.2852 282.84 13.3568 283.091 13.3926C283.341 13.4284 283.574 13.5179 283.789 13.6611C283.968 13.6253 284.129 13.5716 284.272 13.5C284.451 13.4284 284.631 13.3926 284.81 13.3926C284.989 13.3926 285.15 13.4463 285.293 13.5537C285.436 13.6253 285.597 13.6611 285.776 13.6611C285.955 13.6611 286.134 13.6074 286.313 13.5C286.493 13.3926 286.672 13.3031 286.851 13.2314C287.03 13.4105 287.227 13.5 287.441 13.5C287.692 13.4642 287.925 13.4284 288.14 13.3926C288.39 13.3568 288.623 13.3389 288.838 13.3389C289.053 13.3031 289.232 13.3747 289.375 13.5537C289.554 13.4821 289.697 13.3926 289.805 13.2852C289.948 13.1777 290.091 13.0703 290.234 12.9629C290.628 13.0345 291.004 13.1777 291.362 13.3926C291.756 13.5716 292.168 13.6611 292.598 13.6611C292.741 13.6611 292.866 13.6432 292.974 13.6074C293.081 13.5358 293.206 13.5 293.35 13.5C293.564 13.5 293.779 13.5358 293.994 13.6074C294.209 13.6432 294.406 13.679 294.585 13.7148C294.8 13.7507 294.997 13.7507 295.176 13.7148C295.391 13.679 295.605 13.5716 295.82 13.3926C295.999 13.5 296.16 13.6074 296.304 13.7148C296.483 13.8223 296.662 13.9297 296.841 14.0371C297.45 13.9297 298.076 13.9118 298.721 13.9834C299.365 14.055 299.992 13.9476 300.601 13.6611C300.78 13.6969 300.941 13.7327 301.084 13.7686C301.227 13.7686 301.37 13.8223 301.514 13.9297C301.836 13.7148 302.176 13.6253 302.534 13.6611C302.892 13.6969 303.197 13.6074 303.447 13.3926C303.734 13.2493 303.931 13.1956 304.038 13.2314C304.146 13.2314 304.253 13.2314 304.36 13.2314C304.897 12.9808 305.273 12.8913 305.488 12.9629C305.739 12.9987 305.954 12.9271 306.133 12.748C306.455 12.8913 306.706 13.0345 306.885 13.1777C307.1 13.321 307.404 13.3926 307.798 13.3926C307.869 13.5716 307.995 13.8044 308.174 14.0908C308.353 14.3415 308.442 14.5563 308.442 14.7354C308.442 15.0218 308.353 15.2188 308.174 15.3262C307.995 15.3978 307.834 15.5231 307.69 15.7021Z" fill="#27383E"/>
</svg>
